<?xml version="1.0" standalone="no"?>
<!DOCTYPE svg PUBLIC "-//W3C//DTD SVG 1.1//EN" "http://www.w3.org/Graphics/SVG/1.1/DTD/svg11.dtd" >
<!--
Chai ForOne Font designed by Caiguangxian.
Chai ForOne letter used triacode characters that include 64 symbols.
Chai ForOne letter used on touch pad gesture language.
triacode forone symbol have 64 that is matching Braille symbol code.
triacode forone symbol is a Taiji symbol language character. 
-->
<svg xmlns="http://www.w3.org/2000/svg" xmlns:xlink="http://www.w3.org/1999/xlink" version="1.1">
<metadata>
Created by FontForge 20170731 at Wed Feb 07 16:49:21 2018
 By caixnet
(c) 2018 Daway Caiguangxian. All Rights Reserved.
Chai ForOne OpenType Layout logic copyright (c) 2013 &#38; 2018, Caiguangxian. 
This layout logic for Chai ForOne is open source software under the MIT License; see embedded license description for details.
</metadata>
<defs>
<font id="ChaiForOne" horiz-adv-x="1234" vert-adv-y="2048" >
  <font-face 
    font-family="ChaiForOne"
    font-weight="400"
    font-stretch="normal"
    units-per-em="2048"
    panose-1="2 11 6 9 3 8 4 2 2 4"
    ascent="1556"
    descent="-492"
    x-height="1115.5"
    cap-height="1300"
    bbox="-10 -483 1579 1798"
    underline-thickness="141"
    underline-position="-283"
    unicode-range="U+0021-FB02"
  />
    <missing-glyph />
    <glyph glyph-name="exclam" unicode="!" 
d="M516 1493h203v-655l-21 -357h-161l-21 357v655zM516 254h203v-254h-203v254z" />
    <glyph glyph-name="quotedbl" unicode="&#x22;" 
d="M895 1493v-555h-174v555h174zM512 1493v-555h-174v555h174z" />
    <glyph glyph-name="numbersign" unicode="#" 
d="M684 1470l-104 -415h245l105 415h160l-105 -415h244v-154h-281l-84 -334h250v-153h-289l-104 -414h-160l105 414h-246l-105 -414h-159l104 414h-258v153h297l84 334h-266v154h303l104 415h160zM788 901h-245l-84 -334h246z" />
    <glyph glyph-name="dollar" unicode="$" 
d="M692 580v-434q110 3 172 61t62 158q0 93 -56 144.5t-178 70.5zM592 770v413q-104 -4 -162.5 -60t-58.5 -150q0 -86 54.5 -136t166.5 -67zM692 -301h-100l-1 301q-102 5 -202.5 28t-198.5 64v180q100 -62 201.5 -95t200.5 -35v458q-200 31 -301 122t-101 241
q0 157 105.5 250.5t296.5 107.5v235h100l1 -235q79 -5 160 -20t165 -41v-173q-85 43 -165.5 66.5t-160.5 27.5v-431q206 -31 314 -128t108 -251t-116.5 -257t-304.5 -112z" />
    <glyph glyph-name="percent" unicode="%" 
d="M696 319q0 -78 52.5 -131t130.5 -53q77 0 130.5 53.5t53.5 130.5t-54 131t-130 54q-78 0 -130.5 -53t-52.5 -132zM561 319q0 135 92 227.5t226 92.5q64 0 121.5 -24t103.5 -70q46 -47 71 -105t25 -121q0 -133 -93 -226t-228 -93q-136 0 -227 91.5t-91 227.5zM121 465
l-35 96l1042 418l41 -96zM168 1112q0 -79 52.5 -131.5t131.5 -52.5q77 0 131 53.5t54 130.5t-54 130.5t-131 53.5t-130.5 -53t-53.5 -131zM33 1112q0 135 92 227.5t227 92.5q64 0 122.5 -24t103.5 -69t69.5 -103.5t24.5 -123.5q0 -134 -93 -226.5t-227 -92.5q-135 0 -227 92
t-92 227z" />
    <glyph glyph-name="ampersand" unicode="&#x26;" vert-adv-y="0" 
d="M400.349 845.015q-87.8623 116.449 -117.149 188.975q-29.2881 72.5254 -29.2881 139.944q0 134.836 91.8564 234.431q91.8564 99.5957 228.088 99.5957q136.231 0 220.987 -93.9775q84.7559 -93.9766 84.7559 -225.748q0 -213.49 -245.837 -364.672l233.412 -342.197
q39.9375 89.8896 62.125 208.383l165.963 -40.8594q-42.6006 -196.126 -115.375 -322.79q89.6377 -136.88 203.237 -229.835l-107.388 -146.072q-96.7373 71.5039 -199.688 211.447q-157.975 -202.254 -365.65 -202.254q-207.675 0 -324.825 155.266
q-94.9629 126.664 -94.9629 282.952q0.0017 277.355 309.739 447.411zM551.225 942.056q103.838 70.4824 134.457 123.6q30.6182 53.1182 30.6182 123.601q0 70.4824 -42.1562 119.003q-42.1562 48.5215 -106.056 48.5215q-63.8998 0 -106.944 -48.0107
q-43.0439 -48.0098 -43.0439 -116.96q0 -68.9507 62.125 -154.755zM482.888 724.478q-129.575 -88.8691 -174.838 -164.971q-45.2627 -76.0996 -45.2627 -158.84q0 -82.7407 63.0127 -180.803q63.0127 -98.0635 178.388 -98.0635q71.8877 0 148.656 51.585
q76.7686 51.5859 122.919 133.305z" />
    <glyph glyph-name="quotesingle" unicode="'" 
d="M702 1493v-555h-174v555h174z" />
    <glyph glyph-name="parenleft" unicode="(" 
d="M885 1554q-133 -228 -198.5 -454.5t-65.5 -456.5q0 -229 65.5 -456t198.5 -457h-160q-151 238 -225 463.5t-74 449.5q0 223 74 449t225 462h160z" />
    <glyph glyph-name="parenright" unicode=")" 
d="M348 1554h160q151 -236 225 -462t74 -449q0 -225 -74 -451t-225 -462h-160q133 232 198.5 459t65.5 454q0 228 -65.5 455t-198.5 456z" />
    <glyph glyph-name="asterisk" unicode="*" 
d="M1067 1247l-358 -194l358 -195l-57 -98l-336 203v-377h-115v377l-336 -203l-57 98l358 195l-358 194l57 99l336 -203v377h115v-377l336 203z" />
    <glyph glyph-name="plus" unicode="+" 
d="M700 1171v-444h445v-170h-445v-444h-168v444h-444v170h444v444h168z" />
    <glyph glyph-name="comma" unicode="," 
d="M502 303h252v-207l-197 -383h-154l99 383v207z" />
    <glyph glyph-name="hyphen" unicode="-" 
d="M356 643h521v-164h-521v164z" />
    <glyph glyph-name="period" unicode="." 
d="M489 305h252v-305h-252v305z" />
    <glyph glyph-name="slash" unicode="/" 
d="M995 1710h190l-942 -2093h-191z" />
    <glyph glyph-name="zero" unicode="0" 
d="M1088 85.0977q0.0410156 -30.0537 -25.8115 -57.6143q-26.1846 -27.4785 -64.1885 -27.4785h-762q-32 -0.00488281 -61 18.9951t-29 54.9814v11.2061l0.170898 75.0283l2.83008 1243.47v0.00195312q0 32.3135 26.4043 58.8252q26.1045 25.999 62.2275 25.999
q0.677734 0 1.35938 -0.00878906h0.0712891l729.954 -0.481445l27.5449 -0.0185547q36.4375 -0.00292969 63.3652 -25.1797q24.0723 -22.8232 26.7061 -58.3467q0.366211 -4.47656 -0.423828 -8.36816zM855.116 1318.09l-526.311 0.34668l-2.0752 -911.942zM394.858 170
h513.044l-1.01953 883.372z" />
    <glyph glyph-name="one" unicode="1" 
d="M635 1404.5q0 -51.5 -37.5 -88q-36.9932 -36.0068 -88.0977 -36.0068q-0.699219 0 -1.40234 0.00683594q-52 0.5 -88.5 37t-36.5 87.5t37 87t89 36t89 -36t37 -87.5zM917.372 1440.49q25.5303 44.498 84.627 44.498q17.3281 0 50.9121 -17.1885
q33.585 -17.1875 33.585 -69.0605q0 -20.3047 -10.8662 -39.2432l-754.5 -1315q-25.1289 -44.498 -80.4502 -44.498h-0.00585938q-21.498 0 -55.083 17.1875t-33.585 69.0615q0 20.3047 10.8662 39.2432z" />
    <glyph glyph-name="two" unicode="2" 
d="M1060 1343q-26 -25 -64 -25h-606l681 -1193q16 -28 16 -50q0 -44 -59 -68q-17 -7 -36 -7h-759q-35 0 -63 25q-32 29 -32 59t32 61q26 25 63 25h608l-681 1193q-11 19 -11 41q0 84 90 84h758q36 0 63 -25q32 -29 32 -59t-32 -61z" />
    <glyph glyph-name="three" unicode="3" 
d="M1086.5 1406.3q0.128906 -34.7227 -26.3945 -59.9492q-26.5225 -25.2256 -63.2891 -25.3477l-665.008 -2.2041l-2.61328 -1148.8h665.806q37 0 63.5 -25t26.5 -60t-26.5 -60t-63.5 -25h-756q-32.001 0 -61.041 24.4814t-28.958 60.7012l2.99902 1318.5
q0.0742188 32.46 26.2314 58.5762t63.4531 26.2402l754.499 2.5q36.7666 0.12207 63.4766 -24.9277t26.8389 -59.7734v0.00292969z" />
    <glyph glyph-name="four" unicode="4" 
d="M1039.36 1480.74q32.3291 -16.5361 43.0586 -50.6123q4.07715 -12.9473 4.07715 -25.3838q0 -20.2939 -10.8555 -39.2256l-685.547 -1195.52h604.906q37 0 63.5 -25t26.5 -60t-26.5 -60t-63.5 -25h-756q-19.0771 0 -36.5176 7.31152q-35.4629 14.8691 -48.2803 50.4072
q-5.25 14.5557 -5.25 28.5547q0 20.1807 10.9092 39.2051l757.499 1321q17.5098 30.5342 53.5898 40.667q13.709 3.85059 26.877 3.85059q21.4873 0 41.5322 -10.2529z" />
    <glyph glyph-name="five" unicode="5" 
d="M919.083 1446.35q12.167 19.207 33.1484 30.4639q20.9824 11.2578 44.5586 11.1855q36.7656 -0.111328 63.2969 -25.3311q26.4121 -25.1064 26.4121 -59.6338v-0.30957l-0.498047 -146l-4.00195 -1172q-0.120117 -35.2402 -27.7676 -59.9834
q-27.6475 -24.7422 -62.2314 -24.7422h-759q-38.7998 0 -65.7832 27.5693q-24.248 24.7734 -24.248 56.7852q0 3.61133 0.308594 7.31445q1.49414 17.9336 10.5586 33.7666l741 1294q8.8252 15.4121 24.2471 26.915zM905.398 1080.52l-521.404 -910.522h518.295z" />
    <glyph glyph-name="six" unicode="6" 
d="M906 403v997q1 36 27 60q27 25 64 25t63 -25t26 -60v-1249v-66q0 -34 -30 -60q-29 -25 -64 -25h-756q-37 0 -64 28q-26 27 -26 57v1319q0 36 29 62q28 25 59 25q25 0 52 -17q20 -12 29 -30zM831 170l-505 894v-894h505z" />
    <glyph glyph-name="seven" unicode="7" 
d="M239.194 0q-36.7666 -0.0751953 -63.4404 25.0098q-26.6738 25.084 -26.7529 59.8076l-3.00098 1318.5q-0.0810547 35.2539 27.4268 60.1602q27.5078 24.9072 62.2598 25.0215l760.5 2.5q36.7656 0.121094 63.4746 -24.9287q26.709 -25.0508 26.8379 -59.7744
q0.12793 -34.7236 -26.3965 -59.9492q-26.5234 -25.2246 -63.2891 -25.3457l-670.621 -2.20508l2.80762 -1233.61q0.0791016 -34.7236 -26.4805 -59.915q-26.5596 -25.1924 -63.3252 -25.2666v-0.00390625z" />
    <glyph glyph-name="eight" unicode="8" 
d="M1134.16 1565.27q31.5615 -17.8086 40.7607 -52.2812q3.01562 -11.3027 3.01562 -22.1045q0 -22.1426 -12.6738 -42.1787l-444.13 -702.092l446.064 -702.917q12.7363 -20.0693 12.7363 -42.2744q0 -10.7471 -2.9834 -21.9932q-9.14746 -34.4854 -40.6836 -52.3369
q-21.251 -12.0293 -44.7627 -12.0293q-11.3789 0 -23.2871 2.81738q-36.5137 8.63965 -55.4141 38.4238l-396.431 624.703l-395.11 -624.602q-19.8994 -31.458 -58.7979 -39.1963q-10.3994 -2.06836 -20.2803 -2.06836q-27.0771 0 -50.2617 15.5352
q-17.6006 11.7939 -27.7559 32.4824t-10.166 36.7881l-1 1492.3v0.0605469q0 36.6045 29.1494 62.0859q26.2383 22.9355 60.1699 22.9355q3.79492 0 7.68555 -0.286133q21.5117 -1.58594 41.4736 -14.417q19.9619 -12.8301 28.7188 -26.6289l395.931 -623.914
l394.61 623.812q18.8574 29.8096 55.3584 38.4971q11.9678 2.84766 23.4053 2.84766q23.4443 0 44.6582 -11.9688zM511.367 746.476l-278.161 438.331l0.587891 -877.127z" />
    <glyph glyph-name="nine" unicode="9" 
d="M907 1081l-595 -1037q-10 -18 -30 -30q-27 -16 -51 -16q-40 0 -59 25q-20 26 -20 63v1318q0 32 26 59.5t64 27.5h754q33 0 61 -24q29 -25 29 -61q2 -156 2 -1321q0 -34 -27 -60q-26 -25 -63 -25q-36 0 -63 25q-26 24 -27 60q-1 38 -1 996zM840 1320h-509v-896z" />
    <glyph glyph-name="colon" unicode=":" 
d="M489 1063h252v-303h-252v303zM489 305h252v-305h-252v305z" />
    <glyph glyph-name="semicolon" unicode=";" 
d="M502 303h252v-207l-197 -383h-154l99 383v207zM489 1063h252v-303h-252v303z" />
    <glyph glyph-name="less" unicode="&#x3c;" 
d="M1145 961l-850 -320l850 -317v-183l-1057 418v166l1057 418v-182z" />
    <glyph glyph-name="equal" unicode="=" 
d="M88 524h1057v-172h-1057v172zM88 930h1057v-170h-1057v170z" />
    <glyph glyph-name="greater" unicode="&#x3e;" 
d="M88 961v182l1057 -418v-166l-1057 -418v183l850 317z" />
    <glyph glyph-name="question" unicode="?" 
d="M244 1407q186.351 113 380.675 113q194.325 0 304.825 -96t110.5 -257q0 -76 -33.5 -141.5t-127.5 -157.5l-88 -86q-69 -66 -88 -108t-19 -103v-170h-190v154q0 98 30.5 166.5t114.5 150.5l90 89q62 59 85.5 103t23.5 93q0 89 -65.5 144t-174.5 55q-156.559 0 -354 -137
v188zM487 254h203v-254h-203v254z" />
    <glyph glyph-name="at" unicode="@" horiz-adv-x="1200" 
d="M800.658 -88.3447q-22.0312 -12.3643 -22.71 -13.6582q-5.64746 -10.4824 -12.3418 -17.2656q-6.69434 -6.78125 -60.6367 -14.8857q-52.6992 -7.91797 -103.004 -7.91797q-1.1875 0 -2.37305 0.00390625q-0.78125 -0.000976563 -1.56055 -0.000976563
q-163.18 0 -248.011 39.8555q-240.456 112.973 -240.932 525.004q-0.00195312 1.17285 -0.00195312 2.34277q0 410.389 165.942 655.245q139.433 206.632 403.172 206.632q201.304 0 305.72 -133.578q104.396 -133.554 104.396 -373.911v-0.0869141v-0.272461
q0 -314.55 -106.638 -462.301q-62.7617 -87.0264 -153.418 -87.0264h-0.202148q-90.7881 0.0966797 -125.815 75.6445q-12.5127 26.1426 -16.7852 59.6426q-97.2852 -135.016 -190.239 -135.675q-151.244 0.806641 -151.401 247.676q0.100586 160.919 43.5156 284.305
q69.4551 197.391 202.632 197.391q0.350586 0 0.701172 -0.000976562q0.505859 0.00488281 1.01172 0.00488281q79.2822 0 144.468 -116.559l11.1895 80.1299q3.75488 26.2764 40.0771 26.2764q11.4277 0 26.0781 -2.60156q22.2051 -3.76465 19.4189 -23.6748
l-58.5859 -418.864q-4.16699 -30.457 -4.16699 -54.9209q0 -99.7949 69.3359 -99.877q121.002 0.234375 143.502 328.719q3.21191 48.9121 3.21191 111.365q0 259.761 -168.765 346.197q-63.377 32.3428 -147.5 32.3428q-1.22168 0 -2.44727 -0.00683594
q-277.533 -1.54492 -387.2 -293.67q-66.4502 -172.748 -69.4463 -437.531q0.884766 -220.955 75.043 -329.627q87.3926 -128.394 285.576 -128.394q0.712891 0 1.42773 0.00195312q1.54297 -0.0078125 3.08203 -0.0078125q109.41 0 197.689 40.5283
q16.7275 7.67969 24.3105 7.67969q12.9443 0.716797 24.0117 0.716797q65.2734 0 65.2734 -24.9189q0 -28.7031 -86.6074 -90.4688zM706.525 720.245q-51.373 120.198 -110.656 120.198q-0.295898 0 -0.591797 -0.00292969q-0.561523 0.0078125 -1.12109 0.0078125
q-97.4385 0 -134.48 -210.35q-12.459 -68.4375 -12.6729 -138.645q-0.00292969 -0.861328 -0.00292969 -1.7168q0 -68.9336 17.082 -104.721q17.2949 -36.2334 58.7861 -36.2861q58.4639 0.191406 152.061 134.767z" />
    <glyph glyph-name="A" unicode="A" 
d="M318.907 1442.61q14.7744 -11.1543 23.5049 -26.6143l729 -1291q8.83594 -15.6484 10.3105 -33.3291q0.308594 -3.7041 0.308594 -7.31543q0 -32.0117 -24.248 -56.7852q-26.9834 -27.5684 -65.7832 -27.5684h-753q-32 0 -61 24.5t-29 60.5v1169.44v149.058
q0 34.7236 26.6172 59.8623q26.6172 25.1377 63.3828 25.1377q24.9033 0 46.6328 -12.4854q21.7295 -12.4844 33.2744 -33.4023v0.00292969zM329 1078.49v-908.486h513.003z" />
    <glyph glyph-name="B" unicode="B" 
d="M146 1488.5h31.7822h913.218q38.7998 0 65.7832 -27.5684q48.5264 -49.5791 8.74707 -105.079l-443.208 -618.381l439.845 -604.321q30.8467 -42.3818 4.73242 -88.6611q-11.9121 -21.1104 -33.8926 -33.0977q-20.8857 -11.3916 -45.0059 -11.3916h-915l-26.333 0.213867
q-32.4648 0 -56.8105 18.3516q-15.7344 11.8613 -24.7832 31.0176t-9.07324 35.293q-2.01074 1303.7 0.0400391 1316.03q-1.37012 87.5928 89.959 87.5938zM613.949 586.266l-298.349 -416.266h601.32zM299.43 1318.5l313.376 -430.56l308.593 430.56h-621.969z
M504.433 736.734l-270.01 370.979l1.15039 -746.102z" />
    <glyph glyph-name="C" unicode="C" 
d="M149.001 1403.2q-0.12793 34.7227 26.3955 59.9492q26.5225 25.2256 63.2891 25.3467l757.5 2.5q38.3672 0.126953 64.3574 -27.2695q25.9912 -27.3965 25.957 -57.8203l-1.5 -1321q-0.0400391 -35.2559 -27.6318 -60.083q-27.5928 -24.8262 -62.3682 -24.8262h-759
q-37 0 -63.5 25t-26.5 60t26.5 60t63.5 25h669.097l1.30664 1150.7l-667.088 -2.20117q-36.7666 -0.12207 -63.4766 24.9287q-26.71 25.0498 -26.8379 59.7734v0.00195312z" />
    <glyph glyph-name="D" unicode="D" 
d="M252.51 1487.07q8.79004 1.41211 16.2949 1.42871l730.5 1.5q19.3525 0.0400391 37.0127 -7.4375q35.4053 -14.9912 48.0869 -50.5723q5.14062 -14.4238 5.14062 -28.2852q0 -20.333 -11.0615 -39.4551l-763.5 -1320q-6.77246 -11.708 -17.7324 -21.2256
q-10.96 -9.5166 -25.1006 -15.584t-29.0898 -7.17871q-3.9209 -0.291992 -7.74414 -0.291992q-33.8945 0 -60.126 22.9014q-29.1904 25.4844 -29.1904 62.1289v1318.5q0 34.7246 26.6172 59.8623q26.6162 25.1377 63.3828 25.1377q7.50098 0 16.5098 -1.42871zM326 1318.62
v-900.716l521.602 901.786z" />
    <glyph glyph-name="E" unicode="E" 
d="M844 1316h-605q-37 0 -66.5 29.5t-29.5 59.5q0 31 29 55t55 25q87 3 279 3q193 0 491 -3q84 -1 89 -85v-1315q0 -37 -28 -61t-60 -24h-765q-38 0 -65 27t-27 52t13 47zM906 1070l-521 -900h521v900z" />
    <glyph glyph-name="F" unicode="F" 
d="M917 1443q12 19 30 31q26 17 51 17q31 0 60 -26q28 -25 28 -62v-1318q0 -34 -28 -59q-29 -26 -66 -26h-756q-33 0 -61 24q-29 25 -29 61h3v1319q0 33 27 59q26 25 63 25q38 0 64 -25t26 -59v-1v-990zM392 170h513v895z" />
    <glyph glyph-name="G" unicode="G" 
d="M149.001 1403.2q-0.12793 34.7227 26.3955 59.9492q26.5225 25.2256 63.2891 25.3467l757.5 2.5q38.3369 0.126953 64.2744 -27.2656q25.9365 -27.3926 26.0391 -57.46l4.5 -1321q0.118164 -34.7227 -26.4121 -59.9424q-26.5312 -25.2188 -63.2979 -25.3311
q-36.7666 -0.111328 -63.4688 24.9463q-26.7021 25.0566 -26.8203 59.7803l-4.20996 1235.98l-667.475 -2.20215q-36.7676 -0.121094 -63.4775 24.9287q-26.709 25.0508 -26.8369 59.7734v-0.00292969z" />
    <glyph glyph-name="H" unicode="H" 
d="M617.939 908.983l395.816 625.141q19.9131 31.4502 58.8145 39.1729q10.3818 2.06152 20.2461 2.06152q27.0977 0 50.291 -15.5547q17.6006 -11.8037 27.7461 -32.4941t10.1455 -36.8096v-1491.5q0 -36.6445 -29.1904 -62.1289q-26.2314 -22.9004 -60.126 -22.9004
q-3.82422 0 -7.74512 0.291016q-21.4844 1.59668 -41.4443 14.4463q-19.959 12.8486 -28.6719 26.5654l-395.637 622.862l-394.943 -623.761q-23.7939 -37.582 -70.0107 -41.1016q-4.0127 -0.304688 -7.92383 -0.304688q-33.7852 0 -59.9922 22.793
q-29.2412 25.4316 -29.3154 62.0762l-2.71777 1351.45l-0.282227 140.047v0.181641q0 34.6084 26.4971 59.7285q26.5664 25.1855 63.332 25.251q25.3145 0.0458984 47.4414 -12.9932q22.1279 -13.0391 33.5771 -34.6523q5.4668 -6.04688 9.33008 -12.1279zM722.971 743.63
l278.029 -437.71v876.818zM513.154 743.49l-279.539 440.087l1.76758 -878.79z" />
    <glyph glyph-name="I" unicode="I" 
d="M836 1404.5q0 -51.5 -37.5 -88q-36.9932 -36.0068 -88.0977 -36.0068q-0.699219 0 -1.40234 0.00683594q-52 0.5 -88.5 37t-36.5 87.5t37 87t89 36t89 -36t37 -87.5zM146.007 1402.24q0 51.8018 47.0059 75.9375q20.0918 10.3164 37.4229 10.3164
q59.0791 0 84.6348 -44.3936l759.001 -1318.5q12.6641 -24.3281 12.6641 -44.3467q0 -16.4766 -8.5791 -30.0342q-32.1494 -51.2129 -81.8027 -51.2129h-0.0185547q-54.8477 0 -80.4033 44.3945l-759.001 1318.5q-10.9238 18.9756 -10.9238 39.3389z" />
    <glyph glyph-name="J" unicode="J" 
d="M836 1404.5q0 -51.5 -37.5 -88q-36.9932 -36.0068 -88.0977 -36.0068q-0.699219 0 -1.40234 0.00683594q-52 0.5 -88.5 37t-36.5 87.5t37 87t89 36t89 -36t37 -87.5zM193.012 1478.18q20.0928 10.3174 41.6543 10.3174q13.1006 0 26.7441 -3.80859
q36.0986 -10.0781 53.6592 -40.5859l759.001 -1318.5q11.5938 -22.5371 10.4854 -45.3086q-1.1084 -22.7705 -15.415 -42.9658q-14.3066 -20.1943 -37.4883 -29.957q-17.4961 -7.36816 -36.6523 -7.36816h-759q-37 0 -63.5 25t-26.5 60t26.5 60t63.5 25h607.629
l-686.698 1192.9q-10.9238 18.9756 -10.9238 39.3389q0 12.374 4.0332 25.2598q10.6719 34.0928 42.9727 50.6777h-0.000976562z" />
    <glyph glyph-name="K" unicode="K" 
d="M172 1464q27 27 64 27h760h1q39 0 65 -27t26 -56q0 -21 -12 -43l-761 -1321q-25 -44 -80 -44q-23 0 -42 10q-33 17 -43 51q-4 13 -4 25q0 21 11 40l688 1194h-609v-2q-36 0 -63 25t-27 60v1q0 34 26 60z" />
    <glyph glyph-name="L" unicode="L" 
d="M239.194 1488.5q36.7656 -0.0751953 63.3252 -25.2666q26.5596 -25.1924 26.4805 -59.916l-2.80664 -1233.32h668.807q37 0 63.5 -25t26.5 -60t-26.5 -60t-63.5 -25h-759q-32.001 0 -61.042 24.4814t-28.958 60.7012l3.00098 1318.5q0.0791016 34.7246 26.7529 59.8086
t63.4404 25.0088v0.00292969z" />
    <glyph glyph-name="M" unicode="M" 
d="M1091 1488q89 0 89 -112q0 -1408 -3 -1413q-28 -47 -87 -47q-52 0 -78 40l-391 594l-402 -595q-33 -49 -72 -49q-31 0 -65 33q-26 25 -26 62v1403q0 76 108 84h927zM235 1134v-841l280 417zM728 708l272 -410v812zM623 868l304 450h-601z" />
    <glyph glyph-name="N" unicode="N" 
d="M236.193 1488.5q36.7656 -0.0751953 63.3252 -25.2666q26.4814 -25.1182 26.4814 -59.7119v-0.204102l-2.24316 -985.886l593.87 1020.51q18.6885 32.1143 57.2656 41.1689q11.9756 2.81055 23.3584 2.81055q25.2871 0 47.6514 -13.8711
q18.873 -11.7051 29.7676 -31.7275q10.8955 -20.0225 10.8281 -39.5967l-4.5 -1312q-0.118164 -34.7227 -26.8213 -59.7793q-26.584 -24.9453 -63.1416 -24.9453h-0.328125q-36.7656 0.113281 -63.2959 25.333q-26.4121 25.1074 -26.4121 59.6338l0.000976562 0.308594
l3.35645 978.629l-593.483 -1019.84q-10.3457 -17.7783 -29.9443 -29.9834q-19.5996 -12.2041 -42.0605 -13.8281q-3.81738 -0.276367 -7.54199 -0.276367q-34.0195 0 -60.2764 23.0225q-29.0498 25.4717 -29.0498 61.9805v0.208008l3 1318.5
q0.0791016 34.7236 26.7529 59.8076q26.5957 25.0098 63.2217 25.0098h0.21875v-0.00585938z" />
    <glyph glyph-name="O" unicode="O" 
d="M149.335 1396.08q-0.335938 4.33301 -0.334961 7.48242q0.0263672 34.7227 26.6621 59.8438q26.6348 25.1211 63.4014 25.0967l757.499 -0.5q38.3535 -0.0253906 64.1963 -27.5225q25.8438 -27.498 25.7402 -57.752l-4.5 -1318q-0.120117 -35.2412 -27.7676 -59.9834
t-62.2314 -24.7422h-753q-37.3291 0 -63.6455 26.0332q-26.3154 26.0322 -26.3535 58.874l-1.50098 1294q-0.0107422 8.66309 1.83496 17.1699zM327.57 1318.44l1.33203 -1148.44h573.387l3.91992 1148.06z" />
    <glyph glyph-name="P" unicode="P" 
d="M326 1074v-989q0 -36 -26 -60q-27 -25 -64 -25q-38 0 -64 25t-26 60v1318q0 37 29 61t61 24h761q37 0 64 -28q26 -27 26 -57v-1318q0 -37 -30 -62t-60 -25q-23 0 -51 17q-20 12 -30 30zM391 1318l515 -898v898h-515z" />
    <glyph glyph-name="Q" unicode="Q" 
d="M150.962 1488.24q1.37012 0 8.52344 0.130859t7.51465 0.130859h930q22.667 0 42.6318 -10.1406q34.1709 -17.3584 44.1084 -53.71q3.19141 -11.6748 3.19141 -22.7783q0 -23.4678 -14.2578 -44.3828l-453.053 -664.619l355.715 -564.394
q12.6025 -19.9941 12.6025 -42.0645q0 -10.8643 -3.05371 -22.2314q-9.25684 -34.459 -40.8506 -52.2207q-21.1719 -11.9014 -44.54 -11.9014q-11.5039 0 -23.54 2.88477q-36.4854 8.74316 -55.29 38.5811l-309.885 491.676l-392.105 -575.211
q-24.1455 -35.4219 -68.6123 -38.7266q-3.9209 -0.291992 -7.74414 -0.291992q-33.8955 0 -60.127 22.9014q-29.1904 25.4844 -29.1904 62.1289v1303.47v96.0342q0 34.7246 26.6172 59.8623t63.3828 25.1377q5.83105 0 7.96191 -0.261719v-0.00390625zM233 1132.6v-839.549
l274.936 403.325zM616.777 856.046l315.241 462.454h-606.709z" />
    <glyph glyph-name="R" unicode="R" 
d="M147.5 1388.04q-1.54004 7.99805 -1.49902 15.8721q0.178711 34.7227 26.9248 59.7383q26.5664 24.8477 63.0195 24.8477l0.493164 -0.000976562l31.7754 -0.146484l728.725 -3.35352q37.3096 -0.171875 63.4541 -26.3242q26.1074 -26.1143 26.1074 -58.6738v-0.0927734
l-1.42188 -1247l-0.078125 -68q-0.0390625 -35.2559 -27.6318 -60.082t-62.3682 -24.8262h-759q-38.3428 0 -64.1885 27.4785q-25.8457 27.4795 -25.8115 57.6143zM380.253 1317.83l525.111 -913.331l1.03906 910.91zM835.366 170l-508.251 884.005l-1.01758 -884.005
h509.269z" />
    <glyph glyph-name="S" unicode="S" 
d="M505.125 735.785l-435.292 598.063q-15.9873 21.9658 -15.9873 47.0938q0 9.37305 2.22461 19.1865q-0.0703125 1.79688 -0.0703125 3.37012q0 34.7236 26.6162 59.8623q26.6162 25.1377 63.3838 25.1377h31.7764h916.224q38.8008 0 65.7842 -27.5684
q24.248 -24.7734 24.248 -56.7842q0 -3.6123 -0.30957 -7.31641q-1.87012 -22.4492 -15.2656 -41.082l-445.333 -619.379l439.043 -603.22q13.6631 -18.7705 15.5566 -41.4814q0.307617 -3.70312 0.307617 -7.31445q0 -32.0117 -24.2471 -56.7861
q-26.9834 -27.5684 -65.7832 -27.5684h-942q-23.8447 0 -44.5625 11.1504q-33.7109 18.1445 -42.7012 54.7148q-2.625 10.6787 -2.625 20.8242q0 24.5986 15.4326 46.0615zM299.43 1318.5l314.24 -431.747l310.427 431.747h-624.667zM614.578 585.402l-298.675 -415.402
h601.019z" />
    <glyph glyph-name="T" unicode="T" 
d="M264 1490h733q39 0 64 -27q26 -28 25 -58v-1320q0 -36 -33 -62q-31 -24 -62 -24q-22 0 -48 16q-21 13 -30 29l-754 1297q-13 37 -13 65q0 84 118 84zM377 1320l529 -906v906h-529z" />
    <glyph glyph-name="U" unicode="U" 
d="M236 1488.5q36.7656 0 63.3828 -25.1377t26.6172 -59.8623v-1233.5h579.098l1.40234 1230.09q0.0400391 34.7236 26.6855 59.834q26.6445 25.1113 63.4111 25.0742t63.3555 -25.2031q26.5879 -25.165 26.5479 -59.8887l-1.5 -1315q-0.0371094 -32.8428 -26.3535 -58.875
q-26.3164 -26.0332 -63.6465 -26.0332h-759q-32 0 -61 24.5t-29 60.5v1318.5q0 34.7246 26.6172 59.8623t63.3828 25.1377v0.00195312z" />
    <glyph glyph-name="V" unicode="V" 
d="M236.193 1488.5q36.7656 -0.0751953 63.3252 -25.2666q26.4814 -25.1182 26.4814 -59.7119v-0.204102l-2.24512 -986.555l593.914 1018.25q17.7393 30.4141 53.8955 40.3037q13.4199 3.66992 26.2949 3.66992q21.8145 0 42.0654 -10.5352
q32.2031 -16.7549 42.6738 -50.9023q3.88672 -12.6748 3.88672 -24.835q0 -20.6016 -11.1553 -39.7266l-763.499 -1309q-10.2617 -17.5918 -29.8965 -29.8555q-19.6357 -12.2627 -42.0664 -13.8838q-3.81738 -0.276367 -7.54199 -0.276367q-34.0195 0 -60.2773 23.0225
q-29.0498 25.4707 -29.0498 61.9805q0 0.103516 0.000976562 0.208008l3 1318.5q0.0791016 34.7236 26.7529 59.8076q26.5957 25.0098 63.2227 25.0098h0.217773z" />
    <glyph glyph-name="W" unicode="W" 
d="M97.9072 1564.15q21.8662 13.0557 46.5273 13.0557q10.3877 0 21.2705 -2.31641q36.7217 -7.81543 56.3682 -37.166l393.673 -588.127l396.319 588.333q19.7354 29.2969 56.4795 37.0127q10.7578 2.25977 21.0254 2.25977q24.8008 0 46.7402 -13.1816
q31.0205 -18.6406 39.1904 -53.3438q2.3916 -10.1602 2.3916 -19.8564q0 -23.4238 -13.957 -44.1426l-441.857 -655.936l441.995 -660.319q13.5635 -20.2617 13.7217 -44.1826q0.15918 -23.9209 -12.6035 -44.584q-12.7637 -20.6621 -35.2158 -31.8428
q-19.7021 -9.81055 -41.9756 -9.81055h-948q-38.7998 0 -65.7832 27.5693q-47.1396 48.1621 -10.1514 103.057l444.866 660.402l-439.005 655.852q-13.8242 20.6523 -13.8242 43.9434q0 9.80957 2.45312 20.0879q8.27539 34.6807 39.3516 53.2354v0.000976562z
M615.264 632.174l-311.334 -462.174h620.698z" />
    <glyph glyph-name="X" unicode="X" 
d="M617.626 579.03l-396.494 -622.828q-18.9443 -29.7598 -55.4697 -38.3506q-11.8496 -2.78711 -23.1709 -2.78711q-23.5771 0 -44.8662 12.0879q-31.5098 17.8926 -40.6055 52.3896q-2.95117 11.1904 -2.95117 21.8818q0 22.2686 12.7998 42.374l445.91 700.454
l-446.976 704.352q-12.7373 20.0713 -12.7373 42.2754q0 10.7471 2.9834 21.9941q9.14844 34.4844 40.6836 52.335q21.251 12.0293 44.7627 12.0293q11.3779 0 23.2861 -2.81738q36.5137 -8.63965 55.415 -38.4238l397.674 -626.66l398.998 626.763
q10.4043 16.3428 29.5811 27.875q19.1777 11.5322 40.7178 13.082q3.79883 0.272461 7.50488 0.272461q34.042 0 60.3047 -23.0439q29.0234 -25.4688 29.0234 -61.9521v-0.246094l-4 -1492.3q-0.118164 -43.7021 -37.8193 -69.0391q-23.2148 -15.6025 -50.3633 -15.6025
q-9.82227 0 -20.1592 2.04199q-38.9102 7.68652 -58.8555 39.1191zM722.719 744.114l278.102 -438.237l2.35645 878.79z" />
    <glyph glyph-name="Y" unicode="Y" 
d="M196.013 1478.18q20.0928 10.3174 41.6543 10.3174q13.1006 0 26.7441 -3.80859q36.0977 -10.0781 53.6592 -40.5859l589.549 -1024.14l-1.11914 982.945v0.102539q0 34.6582 26.5488 59.7861q26.5879 25.165 63.3545 25.2031h0.109375q36.6973 0 63.3027 -25.0742
q26.6455 -25.1113 26.6855 -59.834l1.5 -1318q0.0234375 -21.0176 -10.9697 -40.3584t-29.9707 -30.9951q-22.2559 -13.666 -47.3213 -13.666q-11.5713 0 -23.7422 2.91211q-38.5332 9.22168 -57.0654 41.416l-759 1318.5q-10.9238 18.9756 -10.9238 39.3389
q0 12.374 4.0332 25.2598q10.6719 34.0928 42.9727 50.6777z" />
    <glyph glyph-name="Z" unicode="Z" 
d="M172.632 1463.39q26.6328 25.1113 63.3594 25.1113l0.0712891 -0.5h760.5q38.7998 -0.0253906 65.7627 -27.6113q25.8135 -26.4092 25.8135 -55.7031q0 -20.417 -12.54 -42.2354l-685.342 -1192.45h604.742q37 0 63.5 -25t26.5 -60t-26.5 -60t-63.5 -25h-756
q-19.125 0 -36.5967 7.34473q-53.4502 22.4688 -53.4502 78.9336q0 20.2197 10.9502 39.2715l685.397 1192.55h-609.363q-36.7607 0.0244141 -63.3486 25.377q-31.5928 30.125 -31.5928 60.0928q0 29.9883 31.6367 59.8184z" />
    <glyph glyph-name="bracketleft" unicode="[" 
d="M463 1556h424v-143h-240v-1540h240v-143h-424v1826z" />
    <glyph glyph-name="backslash" unicode="\" 
d="M293 1493l786 -1683h-190l-787 1683h191z" />
    <glyph glyph-name="bracketright" unicode="]" 
d="M770 1556v-1826h-424v143h240v1540h-240v143h424z" />
    <glyph glyph-name="asciicircum" unicode="^" 
d="M705 1493l456 -557h-178l-367 395l-366 -395h-178l456 557h177z" />
    <glyph glyph-name="underscore" unicode="_" 
d="M1024 -403v-80h-1024v80h1024z" />
    <glyph glyph-name="grave" unicode="`" 
d="M477 1638l281 -376h-154l-325 376h198z" />
    <glyph glyph-name="a" unicode="a" 
d="M350.893 1084.31q15.4541 -9.04199 24.9414 -22.8633l648 -944q11.3604 -16.5488 13.416 -42.6719t-20.4297 -50.4482q-22.4863 -24.3252 -54.8203 -24.3252h-678q-26.9648 0 -51.0811 21.7422t-23.917 53.7246l6 965.5q0.19043 30.7402 22.4961 52.7314t56.252 21.7803
t57.1426 -31.1699zM363.595 814.226l-4.12793 -664.226h460.08z" />
    <glyph glyph-name="b" unicode="b" 
d="M180.316 1105.35q17.5869 10.1543 37.6836 10.1543h837q32.333 0 54.8193 -24.3252t19.9492 -56.5586q-1.98047 -25.1572 -18.7646 -44.001l-389.789 -437.605l383.63 -427.947q21.583 -24.0762 18.4795 -57.0566t-28.7979 -52.6074q-20.1592 -15.3984 -45.5273 -15.3984
h-823q-7.08887 0 -14.9482 1.49902q-43.7227 -5.99512 -70.1768 21.583q-20.7803 21.6631 -20.874 51.6826l-3 956q-0.0800781 25.4209 18.3125 46.7627q18.3936 21.3418 45.0029 27.8184h0.000976562zM620.814 440.291l-258.571 -290.291h518.8zM351.441 965.5
l269.015 -300.092l267.301 300.092h-536.315zM520.054 552.69l-252.437 281.598l1.7666 -563.019z" />
    <glyph glyph-name="c" unicode="c" 
d="M234.405 1093.61q22.2441 22.0527 52.9854 21.8926l671.5 -3.5q31.0596 -0.162109 52.7822 -23.2412q21.7227 -23.0781 21.8262 -51.4854l3.5 -962q0.116211 -31.9668 -24.0537 -53.6201q-24.1689 -21.6523 -50.9463 -21.6523h-675q-30.6631 0 -52.8311 22.1289
q-22.1689 22.1299 -22.1689 52.8711t22.1689 52.8701q22.168 22.1299 52.8311 22.1299h599.728l-2.95605 812.388l-597.162 3.1123q-30.7402 0.160156 -52.7539 22.4434q-22.0137 22.2842 -21.8535 52.9463q0.15918 30.6641 22.4043 52.7168z" />
    <glyph glyph-name="d" unicode="d" 
d="M231.168 1093.37q22.168 22.1289 40.2539 22.1289q18.085 0 24.5576 0.0302734q6.47168 0.0292969 12.7695 -0.0332031l650.5 -6.5q20.1289 -0.201172 42.7021 -13.5625q22.5742 -13.3613 29.5352 -45.7471q6.96094 -32.3867 -11.6406 -58.834l-674.5 -959
q-20.2939 -28.8545 -53.9951 -31.5068q-33.7002 -2.65234 -58.0254 19.834t-24.3252 54.8193v965.5q0 30.7412 22.168 52.8711zM359 964.987v-652.984l456.062 648.427z" />
    <glyph glyph-name="e" unicode="e" 
d="M813.719 967.46l-526.439 -1.95996q-30.7412 -0.114258 -52.9531 21.9717t-22.3262 52.749t21.9326 52.9131q22.0469 22.251 52.7881 22.3652l671.5 2.5q31.9648 0.119141 53.6152 -24.0488q21.6504 -24.167 21.6641 -50.9121l0.0175781 -35l0.482422 -933
q0.0166016 -31.9492 -24.2178 -53.4941q-24.2344 -21.5439 -50.7822 -21.5439h-678q-32.334 0 -54.8193 24.3252q-22.4863 24.3252 -19.9492 56.5586q1.60254 20.3643 13.3105 37.1035zM883.623 805.696l-458.636 -655.696h458.975z" />
    <glyph glyph-name="f" unicode="f" 
d="M359.733 310.941l537.207 771.901q20.3486 29.2393 55.8682 31.9414q32.2402 2.45312 56.5068 -20.0957q24.2676 -22.5488 24.1836 -54.8818l-2.5 -965q-0.0488281 -18.6123 -9.72266 -35.7598q-9.6748 -17.1475 -27.168 -28.0967q-17.4922 -10.9492 -38.1094 -10.9492
h-672q-26.7373 0 -50.918 21.6338q-24.1807 21.6348 -24.0811 53.5986l0.105469 34.0176l2.89453 931.482q0.0947266 30.7412 22.332 52.8018q22.2373 22.0596 52.9004 21.9648q30.6631 -0.0957031 52.7627 -22.2939t22.0039 -52.9385zM430.477 150h450.718l1.68359 650.045
z" />
    <glyph glyph-name="g" unicode="g" 
d="M234.155 1093.37q22.1543 22.1543 52.9004 22.1318l671.5 -0.5q31.957 -0.0244141 53.4854 -24.2871t21.459 -50.9072l-2.5 -965q-0.0791016 -30.6631 -22.2666 -52.7744q-22.1865 -22.1113 -52.9277 -22.0312q-30.7412 0.0791016 -52.8125 22.3047
q-22.0723 22.2256 -21.9932 52.8887l2.30566 889.862l-596.361 0.444336q-30.7354 0.0224609 -52.8398 22.2051q-22.1035 22.1816 -22.1035 52.8506q-0.000976562 30.6582 22.1543 52.8125z" />
    <glyph glyph-name="h" unicode="h" 
d="M624.769 672.647l371.168 417.673q21.4785 24.1689 54.5986 24.8184q33.1191 0.649414 54.8389 -21.9404q21.7188 -22.5898 21.625 -52.9316l-3 -965.5q-0.100586 -32.333 -24.4961 -54.7432q-24.3945 -22.4102 -55.6387 -19.8545q-31.2432 2.55664 -51.2598 25.3877
l-368.597 420.422l-373.946 -420.8q-19.9756 -22.4775 -51.0732 -25.0225q-31.0986 -2.54395 -55.4932 19.8662q-24.3955 22.4102 -24.4961 54.7432l-3 965.5q-0.0947266 30.7412 22.0049 52.9395q22.0986 22.1982 55.5586 22.3027q33.46 0.103516 56.9541 -29.3506
q17.7334 -6.86328 29.8779 -20.7148zM524.352 559.649l-257.771 294.016l1.80859 -582.048zM724.426 558.978l250.19 -285.368l1.76758 568.895z" />
    <glyph glyph-name="i" unicode="i" 
d="M608 1040.5q0 51.5 37 87.5t89 36t89 -36t37 -87.5t-37 -87.5t-89 -36.5t-89 36.5q-37 36 -37 87.5zM244.284 1102.15q25.1582 17.4717 56.0059 11.9043q30.8486 -5.56836 48.3564 -30.8359l669 -965.5q17.4727 -25.1582 11.9053 -56.0068
q-5.56836 -30.8477 -30.8369 -48.3564q-25.3135 -17.5 -56.1055 -11.8857q-30.793 5.61328 -48.2568 30.8174l-669 965.5q-17.5 25.3145 -11.8867 56.1064q5.61426 30.792 30.8184 48.2568z" />
    <glyph glyph-name="j" unicode="j" 
d="M608 1040.5q0 51.5 37 87.5t89 36t89 -36t37 -87.5t-37 -87.5t-89 -36.5t-89 36.5q-37 36 -37 87.5zM241.284 1102.15q25.1582 17.4717 56.0059 11.9043q30.8486 -5.56836 48.3564 -30.8359l669 -965.5q18.415 -26.5771 11.2275 -58.9141t-35.127 -48.6104
q-17.498 -10.1914 -37.7471 -10.1914h-669q-30.6641 0 -52.832 22.1289q-22.168 22.1299 -22.168 52.8711t22.168 52.8701q22.168 22.1299 52.832 22.1299h525.787l-587.435 847.784q-17.5 25.3135 -11.8857 56.1064q5.61328 30.792 30.8174 48.2568z" />
    <glyph glyph-name="k" unicode="k" 
d="M212 1040.56q0 30.6582 22.1543 52.8125q22.1553 22.1553 52.9014 22.1318l671.5 -0.5q32.334 -0.0234375 54.8018 -24.3662q22.4678 -24.3418 19.9072 -56.5732q-1.60156 -20.1523 -13.1133 -36.7695l-668.5 -965q-17.4609 -25.2061 -48.2529 -30.8232
q-30.792 -5.61621 -56.1074 11.8809q-25.2695 17.5059 -30.8408 48.3535q-5.57129 30.8467 11.8984 56.0068l587.03 847.398l-528.435 0.393555q-30.7363 0.0224609 -52.8398 22.2051q-22.1045 22.1816 -22.1045 52.8496z" />
    <glyph glyph-name="l" unicode="l" 
d="M339.667 1093.53q22.2373 -22.0605 22.332 -52.8018l2.76855 -890.733h591.232q30.6631 0 52.832 -22.1289q22.168 -22.1299 22.168 -52.8711t-22.168 -52.8701q-22.168 -22.1299 -52.832 -22.1299h-666q-28.8291 0 -51.8662 21.8359q-23.0361 21.835 -23.1328 52.9316
l-3 965.5q-0.0957031 30.7402 22.0039 52.9385t52.7627 22.2939q30.6621 0.0957031 52.8994 -21.9648z" />
    <glyph glyph-name="m" unicode="m" 
d="M1121.92 1022.14q5.04688 -13.4814 5.07617 -26.9756l2 -920q0.0673828 -30.9424 -22.1914 -53.4248q-22.2588 -22.4834 -55.3662 -21.3477q-33.1064 1.13477 -54.2275 25.6162l-367.796 426.298l-377.212 -426.962q-19.9336 -22.5625 -51.0439 -25.1738
q-31.1113 -2.61035 -55.5527 19.75q-24.4414 22.3594 -24.6084 54.6924l-5 965.5q-0.15918 30.7412 24.9072 56.0234q25.0664 25.2832 64.9111 17.8955q9.27832 1.46973 15.1807 1.46973h828q52.0586 0 69.2188 -49.3555q7.5957 -21.8477 3.7041 -44.0059zM266.871 872.521
l3.10938 -600.507l260.549 294.911zM729.65 565.755l248.91 -288.503l-1.23633 568.842zM630.759 680.375l251.902 285.125h-497.898z" />
    <glyph glyph-name="n" unicode="n" 
d="M336.832 1093.37q22.168 -22.1299 22.168 -52.8711v-728.497l538.154 765.145q18.6016 26.4473 51.4346 30.8457q32.832 4.39746 58.8633 -17.1514q26.0303 -21.5498 26.0479 -56.8027l0.5 -959q0.0166016 -30.6631 -22.1016 -52.8428t-52.8594 -22.1963
q-30.7412 -0.015625 -52.8818 22.1416q-22.1406 22.1562 -22.1562 52.8193l-0.376953 722.212l-538.277 -765.319q-20.2939 -28.8545 -53.9941 -31.5068q-33.7012 -2.65234 -58.0264 19.834t-24.3252 54.8193v965.5q0 30.7412 22.168 52.8711
q22.1689 22.1289 52.832 22.1289t52.8311 -22.1289z" />
    <glyph glyph-name="o" unicode="o" 
d="M212.5 1013.28q0.0205078 5.50781 -0.257812 13.0146t-0.180664 26.3828q0.0986328 18.876 22.3438 40.9287q22.2441 22.0527 52.9854 21.8926l671.5 -3.5q31.0986 -0.162109 52.8906 -23.2451q21.793 -23.083 21.7178 -51.9482l-2.5 -962
q-0.0810547 -31.0996 -23.1064 -52.9521q-23.0264 -21.8535 -51.8926 -21.8535h-672q-31.9688 0 -53.5342 24.248q-21.5654 24.249 -21.4658 51.0322zM362.322 965.106l-3.04199 -815.106h521.914l2.11133 812.391z" />
    <glyph glyph-name="p" unicode="p" 
d="M364.266 804.294l-2.2666 -729.527q-0.0957031 -30.7402 -22.332 -52.8008q-22.2373 -22.0605 -52.9004 -21.9658q-30.6631 0.0957031 -52.7627 22.2939t-22.0039 52.9395l3 965.5q0.0966797 31.1006 23.1338 52.9443q23.0381 21.8438 51.9219 21.8223l668.5 -0.5
q31.957 -0.0234375 53.4844 -24.2861q21.5283 -24.2637 21.459 -50.9082l-2.5 -965q-0.0830078 -32.333 -24.4668 -54.7559t-48.7686 -20.4404q-43.3994 3.52832 -63.5918 32.9375zM435.608 965.391l446.016 -649.57l1.68164 649.236z" />
    <glyph glyph-name="q" unicode="q" 
d="M195 1115.5l14.3203 -0.116211q6.3623 0.115234 6.68066 0.115234h839q23.7207 0 46.6504 -16.1162t27.3379 -48.9473q4.40918 -32.832 -16.2012 -57.7441l-398.375 -481.524l298.203 -390.66q18.6123 -24.3271 14.4697 -55.3994q-4.14258 -31.0713 -28.5781 -49.7236
q-24.4824 -18.6465 -55.5 -14.4561q-31.0186 4.19141 -49.624 28.5654l-277.121 363.039l-363.476 -439.341q-20.2432 -24.4688 -52.1904 -26.9824q-31.9463 -2.51465 -56.2715 19.9717t-24.3252 54.8193v1039.5q0 30.7412 22.168 52.8711q22.1689 22.1289 52.832 22.1289z
M270 846.151v-636.841l252.838 305.611zM620.987 633.557l274.623 331.943h-528.008z" />
    <glyph glyph-name="r" unicode="r" 
d="M212.5 1022.04q0.0253906 47.2881 23.5693 70.4541q23.5439 23.167 54.3232 23.0049l668.5 -3.5q31.0791 -0.162109 52.8359 -23.2441q21.7568 -23.0811 21.7715 -51.7158l0.5 -962q0.0166016 -31.9492 -24.2178 -53.4941q-24.2344 -21.5439 -50.7822 -21.5439h-672
q-31.9492 0 -53.4814 24.2451t-21.5186 50.7939zM418.724 964.825l465.161 -667.83l-0.345703 665.396zM803.47 150l-441.096 633.281l-0.333984 -633.281h441.43z" />
    <glyph glyph-name="s" unicode="s" 
d="M516.677 551.012l-378.265 417.641q-27.6787 30.5596 -16.4111 71.377q0 30.7812 22.1396 53.126q22.1406 22.3447 52.8604 22.3447h855q32.333 0 54.8193 -24.3252t20.2295 -52.9971q-2.25586 -28.6709 -18.9873 -47.498l-389.869 -438.716l386.396 -426.616
q17.1729 -18.9609 19.4453 -47.8291q2.27148 -28.8682 -20.2148 -53.1934q-22.4854 -24.3252 -54.8193 -24.3252h-855q-25.1865 0 -48.1172 17.3584q-22.9307 17.3594 -26.1768 50.3252q-3.24609 32.9668 18.2324 57.1357zM617.966 439.179l-256.98 -289.179h518.896z
M343.646 965.5l273.259 -301.703l268.11 301.703h-541.369z" />
    <glyph glyph-name="t" unicode="t" 
d="M213.821 1024.06q-1.79102 8.27539 -1.82031 16.1582q-0.114258 30.6631 21.9326 52.9141q22.0459 22.25 52.7871 22.3643l29.0215 0.108398l642.479 2.3916q31.9648 0.119141 53.6152 -24.0479q21.6494 -24.168 21.6641 -50.9121l0.5 -968
q0.0166016 -32.334 -24.2979 -54.832q-24.3135 -22.499 -56.5479 -19.9785q-16.127 1.26074 -32.043 11.1885q-15.916 9.92871 -23.0293 19.833l-671.5 935q-18.3906 25.6074 -12.7617 57.8125h0.000976562zM411.465 965.963l472.415 -657.793l-0.34082 659.551z" />
    <glyph glyph-name="u" unicode="u" 
d="M339.996 1093.21q22.0996 -22.1982 22.0039 -52.9395l-2.7666 -890.267h524.728l-0.460938 883.961q-0.015625 30.6631 22.1016 52.8428q22.1182 22.1807 52.8594 22.1963t52.8818 -22.1406q22.1406 -22.1572 22.1572 -52.8203l0.5 -959
q0.0136719 -26.5479 -21.5186 -50.7939q-21.5322 -24.2451 -53.4814 -24.2451h-675q-26.7383 0 -50.9189 21.6348q-24.1807 21.6338 -24.0811 53.5986l3 965.5q0.0957031 30.7402 22.333 52.8008q22.2363 22.0605 52.8994 21.9658q30.6641 -0.0957031 52.7637 -22.2939z" />
    <glyph glyph-name="v" unicode="v" 
d="M286.767 1115.5q30.6641 0.0957031 52.9004 -21.9648q22.2373 -22.0605 22.333 -52.8018l2.26172 -728.048l532.712 764.204q17.5352 25.1543 48.3428 30.6816q30.8086 5.52734 56.0732 -12.0439q25.2188 -17.5801 30.6992 -48.4434q5.48145 -30.8643 -12.0615 -55.9727
l-668.5 -959q-20.2012 -28.9805 -55.4102 -31.8613q-32.2256 -2.63672 -56.6211 19.7734q-24.3945 22.4111 -24.4951 54.7441l-3 965.5q-0.0957031 30.7412 22.0039 52.9395t52.7627 22.293h-0.000976562z" />
    <glyph glyph-name="w" unicode="w" 
d="M144.521 1177.36q23.6904 19.416 54.8828 16.3164q31.1934 -3.09961 50.6533 -26.8965l371.072 -453.76l372.92 453.893q19.4658 23.6924 50.6143 26.7705t54.9473 -16.4326q23.752 -19.5146 26.7803 -50.7148q3.02734 -31.2002 -16.4424 -54.8457l-391.979 -477.089
l386.087 -472.12q20.4688 -25.0303 15.873 -57.8359t-31.1543 -51.2471q-19.291 -13.3955 -42.7773 -13.3955h-852q-32.333 0 -54.8193 24.3252q-22.4854 24.3252 -19.9492 56.5586q1.85059 23.5078 16.8193 41.7275l387.969 472.21l-390.077 477
q-19.4561 23.8438 -16.3066 54.9844t26.8857 50.5527zM620.86 476.401l-268.172 -326.401h535.094z" />
    <glyph glyph-name="x" unicode="x" 
d="M622.68 435.112l-369.193 -480.79q-18.6758 -24.3203 -49.7061 -28.4219q-31.0293 -4.10254 -55.458 14.6143q-24.3818 18.7227 -28.4346 49.8066q-4.05371 31.083 14.6279 55.3574l393.714 512.721l-394.765 515.289q-18.6895 24.4492 -14.5527 55.4746t28.4775 49.6729
q24.2949 18.6543 55.374 14.5664q31.0791 -4.08887 49.7744 -28.4912l370.281 -483.331l371.197 483.397q20.4014 26.5684 53.8018 29.1064q32.2402 2.4502 56.5049 -20.1006q24.2646 -22.5518 24.1787 -54.8848l-3 -1119.3q-0.0898438 -33.3066 -24.8584 -55.5732
q-24.0449 -21.6172 -57.0303 -18.5605q-32.9844 3.05664 -52.6484 28.7236zM717.269 558.293l258.821 -337.841l1.81543 677.26z" />
    <glyph glyph-name="y" unicode="y" 
d="M247.284 1102.15q25.1582 17.4717 56.0059 11.9043q30.8486 -5.56836 48.3564 -30.8359l532.229 -768.112l-0.375977 727.858q-0.015625 30.6631 22.1016 52.8428q22.1182 22.1797 52.8594 22.1953q30.7412 0.0166016 52.8818 -22.1406
q22.1416 -22.1572 22.1572 -52.8203l0.5 -968q0.0185547 -35.6221 -27.5801 -58.1445q-25.0498 -20.4434 -57.8506 -15.8154q-32.8018 4.62891 -51.2168 31.2061l-669 965.5q-17.5 25.3135 -11.8867 56.1055q5.61426 30.793 30.8184 48.2568z" />
    <glyph glyph-name="z" unicode="z" 
d="M233.934 1094.38q22.0469 23.501 52.7881 23.6152h671.5q32.333 0.120117 54.9102 -24.1211q22.5254 -24.1875 22.5254 -49.8916q0 -21.3447 -15.5322 -43.7354l-589.817 -850.251h522.693q30.6631 0 52.832 -22.1299q22.168 -22.1289 22.168 -52.8701t-22.168 -52.8711
q-22.168 -22.1289 -52.832 -22.1289h-666q-20.2705 0 -42.9922 13.25q-22.7207 13.25 -29.8906 45.5908q-7.1709 32.3408 11.2588 58.9072l589.447 849.717h-527.543q-30.7412 -0.115234 -52.9531 20.9893q-26.4746 25.1533 -26.4746 51.7412q0 26.3887 26.0801 54.1885z
" />
    <glyph glyph-name="braceleft" unicode="{" 
d="M1012 -190v-144h-64q-249 0 -333.5 74t-84.5 295v239q0 151 -53.5 209t-193.5 58h-62v143h62q141 0 194 57t53 207v240q0 221 84.5 294.5t333.5 73.5h64v-143h-70q-140 0 -182.5 -43.5t-42.5 -185.5v-248q0 -157 -45.5 -228t-155.5 -96q111 -27 156 -98t45 -227v-248
q0 -143 42.5 -186t182.5 -43h70z" />
    <glyph glyph-name="bar" unicode="|" 
d="M702 1565v-2048h-172v2048h172z" />
    <glyph glyph-name="braceright" unicode="}" 
d="M221 -190h68q141 0 184 44t43 185v248q0 156 45 227t156 98q-110 25 -155.5 96t-45.5 228v248q0 141 -43 185t-184 44h-68v143h62q249 0 333 -73.5t84 -294.5v-240q0 -150 53.5 -207t194.5 -57h64v-143h-64q-141 0 -194.5 -58t-53.5 -209v-239q0 -221 -84 -295t-333 -74
h-62v144z" />
    <glyph glyph-name="asciitilde" unicode="~" 
d="M864 657q134.194 0 281 123v-174q-144.915 -114 -297 -114q-90 0 -203 51q-156.2 71 -264 71q-151.635 0 -293 -122v174q148.2 114 307 114q117.2 0 246.6 -61.5t222.4 -61.5z" />
    <glyph glyph-name="Agrave" unicode="&#xc0;" 
d="M732.336 797.807l267.164 -413.933v810.928zM627.923 959.579l385.621 573.016q20.8125 30.9268 59.9219 37.6465q9.14355 1.57031 17.8447 1.57031q28.5156 0 52.2773 -16.873q16.7617 -11.9033 26.3369 -30.5156t9.5752 -37.4229v-1365q0 -11.8604 -3.59375 -23.7871
q4.46191 -27.0117 -8.99316 -51.8564q-13.4541 -24.8447 -39.2422 -37.1826q-19.1738 -9.17383 -40.6709 -9.17383h-941q-38.7998 0 -65.7832 27.5693q-24.248 24.7734 -24.248 56.7852q0 3.61133 0.308594 7.31445q1.75586 21.0771 13.7656 38.9258l450.275 669.09
l-361.166 559.573q-13.0752 20.2578 -13.0752 42.8018q0 10.4531 2.81152 21.3975q8.87305 34.5488 40.2666 52.6211q21.4482 12.3486 45.3184 12.3486q11.0674 0 22.6553 -2.6543q36.582 -8.37988 55.7188 -38.0303zM624.731 637.911l-314.891 -467.911h616.895z" />
    <glyph glyph-name="Adieresis" unicode="&#xc4;" 
d="M894.822 1761.38q20.4316 0.142578 38.207 -7.77832q15.4902 -6.68457 31.7109 -22.3828q14.2139 -14.2412 21.1914 -32.3848q7.17773 -18.3682 7.27051 -39.0508q-0.0927734 -42.1182 -28.7715 -70.96q-28.6514 -28.8477 -70.2275 -29.0498
q-41.9414 0.202148 -69.6084 28.5742q-27.54 28.5869 -27.8438 71.4355q0.303711 42.5898 28.4629 72.0703q28.4629 29.6689 69.6084 29.5264zM894.822 1720.42q-24.1582 0.205078 -41.6104 -17.6211q-17.2295 -17.9551 -17.1699 -43.0186
q-0.0595703 -25.3232 16.8613 -42.5449q17.0527 -17.0996 41.2998 -17.1436q24.5898 0.0439453 42.2295 17.4609q17.749 17.6348 17.4795 42.2275q0.269531 25.0635 -17.3242 42.8604q-17.0869 17.9844 -41.7656 17.7793zM356.909 1761.38q20.4316 0.142578 38.207 -7.77832
q15.4902 -6.68457 31.71 -22.3828q14.2148 -14.2412 21.1924 -32.3848q7.17773 -18.3682 7.26953 -39.0508q-0.0917969 -42.1182 -28.7705 -70.96q-28.6514 -28.8477 -70.2285 -29.0498q-41.9414 0.202148 -69.6084 28.5742q-27.54 28.5869 -27.8428 71.4355
q0.302734 42.5898 28.4619 72.0703q28.4639 29.6689 69.6094 29.5264zM356.909 1720.42q-24.1592 0.205078 -41.6104 -17.6211q-17.2295 -17.9551 -17.1699 -43.0186q-0.0595703 -25.3232 16.8604 -42.5449q17.0537 -17.0996 41.3008 -17.1436
q24.5898 0.0439453 42.2285 17.4609q17.75 17.6348 17.4795 42.2275q0.270508 25.0635 -17.3242 42.8604q-17.0869 17.9844 -41.7646 17.7793zM318.907 1442.61q14.7744 -11.1543 23.5049 -26.6143l729 -1291q8.83594 -15.6484 10.3105 -33.3291
q0.308594 -3.7041 0.308594 -7.31543q0 -32.0117 -24.248 -56.7852q-26.9834 -27.5684 -65.7832 -27.5684h-753q-32 0 -61 24.5t-29 60.5v1169.44v149.058q0 34.7236 26.6172 59.8623q26.6172 25.1377 63.3828 25.1377q24.9033 0 46.6328 -12.4854
q21.7295 -12.4844 33.2744 -33.4023v0.00292969zM329 1078.49v-908.486h513.003z" />
    <glyph glyph-name="Egrave" unicode="&#xc8;" 
d="M1074 125q11 -19 11 -46q0 -26 -26 -53q-25 -26 -64 -26h-759q-33 0 -58 24q-26 25 -26 61v1319q0 30 26 54t65 24h754q90 -1 90 -85q0 -85 -91 -85h-598zM331 1077v-907h514z" />
    <glyph glyph-name="Edieresis" unicode="&#xcb;" 
d="M894.822 1761.38q20.4316 0.142578 38.207 -7.77832q15.4902 -6.68457 31.7109 -22.3828q14.2139 -14.2412 21.1914 -32.3848q7.17773 -18.3682 7.27051 -39.0508q-0.0927734 -42.1182 -28.7715 -70.96q-28.6514 -28.8477 -70.2275 -29.0498
q-41.9414 0.202148 -69.6084 28.5742q-27.54 28.5869 -27.8438 71.4355q0.303711 42.5898 28.4629 72.0703q28.4629 29.6689 69.6084 29.5264zM894.822 1720.42q-24.1582 0.205078 -41.6104 -17.6211q-17.2295 -17.9551 -17.1699 -43.0186
q-0.0595703 -25.3232 16.8613 -42.5449q17.0527 -17.0996 41.2998 -17.1436q24.5898 0.0439453 42.2295 17.4609q17.749 17.6348 17.4795 42.2275q0.269531 25.0635 -17.3242 42.8604q-17.0869 17.9844 -41.7656 17.7793zM356.909 1761.38q20.4316 0.142578 38.207 -7.77832
q15.4902 -6.68457 31.71 -22.3828q14.2148 -14.2412 21.1924 -32.3848q7.17773 -18.3682 7.26953 -39.0508q-0.0917969 -42.1182 -28.7705 -70.96q-28.6514 -28.8477 -70.2285 -29.0498q-41.9414 0.202148 -69.6084 28.5742q-27.54 28.5869 -27.8428 71.4355
q0.302734 42.5898 28.4619 72.0703q28.4639 29.6689 69.6094 29.5264zM356.909 1720.42q-24.1592 0.205078 -41.6104 -17.6211q-17.2295 -17.9551 -17.1699 -43.0186q-0.0595703 -25.3232 16.8604 -42.5449q17.0537 -17.0996 41.3008 -17.1436
q24.5898 0.0439453 42.2285 17.4609q17.75 17.6348 17.4795 42.2275q0.270508 25.0635 -17.3242 42.8604q-17.0869 17.9844 -41.7646 17.7793zM844 1316h-605q-37 0 -66.5 29.5t-29.5 59.5q0 31 29 55t55 25q87 3 279 3q193 0 491 -3q84 -1 89 -85v-1315q0 -37 -28 -61
t-60 -24h-765q-38 0 -65 27t-27 52t13 47zM906 1070l-521 -900h521v900z" />
    <glyph glyph-name="Ntilde" unicode="&#xd1;" 
d="M235.936 0q-36.7603 0 -63.3611 25.1655q-26.5745 25.1406 -26.5745 59.8265l2.5977e-005 0.0685966l1 1318.5q0.0278321 36.6446 29.2372 62.1093q26.222 22.8603 60.0752 22.8603q3.85677 0 7.81259 -0.296709q22.4953 -1.68778 42.247 -14.2949
q19.7518 -12.6071 29.6494 -29.7559l591.599 -1025l-1.12012 986.724l-5.8747e-005 0.103129q0 34.6571 26.5487 59.7851q26.5882 25.1653 63.3547 25.2026l0.109196 5.548e-005q36.697 0 63.3026 -25.0742q26.6453 -25.1114 26.6848 -59.8351l1.5 -1321
q0.0237354 -20.7855 -10.9492 -40.2154q-10.9729 -19.4298 -29.9082 -31.0854q-22.2818 -13.7157 -47.4012 -13.7157q-11.5257 0 -23.6488 2.88761q-38.5444 9.18086 -57.115 41.3555l-592.23 1026.09l-0.74707 -985.47q-0.0263625 -34.7187 -26.6595 -59.8291
q-26.6331 -25.1104 -63.405 -25.1104z" />
    <glyph glyph-name="Ograve" unicode="&#xd2;" 
d="M1072.8 1486.42q9.12402 1.35449 17.7207 1.35449q29.6104 0 52.9639 -16.0654q37.0117 -25.46 37.0117 -68.7061v-1403q0 -36.6445 -29.1895 -62.1289q-26.2314 -22.9004 -60.126 -22.9004q-3.82422 0 -7.74512 0.291016q-20.8281 1.54883 -39.498 12.4258
q-18.6699 10.8779 -29.2588 26.5127l-388.206 573.223l-316.796 -486.923q-19.248 -29.585 -55.8604 -37.8418q-11.4365 -2.5791 -22.3564 -2.5791q-24.041 0 -45.5811 12.5q-31.3252 18.1797 -40.0684 52.7578q-2.73145 10.8008 -2.73145 21.1143
q0 22.7051 13.2363 43.0488l362.405 557.026l-454.542 671.174q-14.1182 20.8477 -14.1182 44.1816q0 11.2178 3.2627 23.0117q10.0518 36.3223 44.2773 53.585q19.8682 10.0215 42.3955 10.0215h913q10.0225 0 19.8037 -2.08301zM623.418 847.442l306.474 471.058h-625.49z
M731.169 688.338l269.331 -397.693v811.663z" />
    <glyph glyph-name="Odieresis" unicode="&#xd6;" 
d="M894.822 1761.38q20.4316 0.142578 38.207 -7.77832q15.4902 -6.68457 31.7109 -22.3828q14.2139 -14.2412 21.1914 -32.3848q7.17773 -18.3682 7.27051 -39.0508q-0.0927734 -42.1182 -28.7715 -70.96q-28.6514 -28.8477 -70.2275 -29.0498
q-41.9414 0.202148 -69.6084 28.5742q-27.54 28.5869 -27.8438 71.4355q0.303711 42.5898 28.4629 72.0703q28.4629 29.6689 69.6084 29.5264zM894.822 1720.42q-24.1582 0.205078 -41.6104 -17.6211q-17.2295 -17.9551 -17.1699 -43.0186
q-0.0595703 -25.3232 16.8613 -42.5449q17.0527 -17.0996 41.2998 -17.1436q24.5898 0.0439453 42.2295 17.4609q17.749 17.6348 17.4795 42.2275q0.269531 25.0635 -17.3242 42.8604q-17.0869 17.9844 -41.7656 17.7793zM356.909 1761.38q20.4316 0.142578 38.207 -7.77832
q15.4902 -6.68457 31.71 -22.3828q14.2148 -14.2412 21.1924 -32.3848q7.17773 -18.3682 7.26953 -39.0508q-0.0917969 -42.1182 -28.7705 -70.96q-28.6514 -28.8477 -70.2285 -29.0498q-41.9414 0.202148 -69.6084 28.5742q-27.54 28.5869 -27.8428 71.4355
q0.302734 42.5898 28.4619 72.0703q28.4639 29.6689 69.6094 29.5264zM356.909 1720.42q-24.1592 0.205078 -41.6104 -17.6211q-17.2295 -17.9551 -17.1699 -43.0186q-0.0595703 -25.3232 16.8604 -42.5449q17.0537 -17.0996 41.3008 -17.1436
q24.5898 0.0439453 42.2285 17.4609q17.75 17.6348 17.4795 42.2275q0.270508 25.0635 -17.3242 42.8604q-17.0869 17.9844 -41.7646 17.7793zM149.335 1396.08q-0.335938 4.33301 -0.334961 7.48242q0.0263672 34.7227 26.6621 59.8438q26.6348 25.1211 63.4014 25.0967
l757.499 -0.5q38.3535 -0.0253906 64.1963 -27.5225q25.8438 -27.498 25.7402 -57.752l-4.5 -1318q-0.120117 -35.2412 -27.7676 -59.9834t-62.2314 -24.7422h-753q-37.3291 0 -63.6455 26.0332q-26.3154 26.0322 -26.3535 58.874l-1.50098 1294
q-0.0107422 8.66309 1.83496 17.1699zM327.57 1318.44l1.33203 -1148.44h573.387l3.91992 1148.06z" />
    <glyph glyph-name="Ugrave" unicode="&#xd9;" 
d="M90.9795 16.3164q-36.9336 25.4307 -36.9795 68.5977l-1.5 1402.1q0 36.5801 29.123 62.0586q49.9297 43.6787 107.39 10.293q18.6729 -10.8486 29.3271 -26.5977l388.696 -574.54l312.804 480.306q19.2627 29.5771 55.8789 37.8193q36.6162 8.24121 67.9326 -9.95117
q76.6592 -44.5303 29.5078 -116.933l-358.45 -550.396l452.132 -668.306q20.8906 -30.8799 10.8213 -67.1982t-44.3037 -53.5654q-19.8555 -10.0029 -42.3584 -10.0029h-894q-13.4053 0 -26.1416 3.66504q-46.3525 -10.4326 -79.8789 12.6514v0zM502.266 797.354
l-269.454 398.286l0.867188 -810.696zM609.938 638.199l-304.921 -468.199h621.674z" />
    <glyph glyph-name="Udieresis" unicode="&#xdc;" 
d="M894.822 1761.38q20.4316 0.142578 38.207 -7.77832q15.4902 -6.68457 31.7109 -22.3828q14.2139 -14.2412 21.1914 -32.3848q7.17773 -18.3682 7.27051 -39.0508q-0.0927734 -42.1182 -28.7715 -70.96q-28.6514 -28.8477 -70.2275 -29.0498
q-41.9414 0.202148 -69.6084 28.5742q-27.54 28.5869 -27.8438 71.4355q0.303711 42.5898 28.4629 72.0703q28.4629 29.6689 69.6084 29.5264zM894.822 1720.42q-24.1582 0.205078 -41.6104 -17.6211q-17.2295 -17.9551 -17.1699 -43.0186
q-0.0595703 -25.3232 16.8613 -42.5449q17.0527 -17.0996 41.2998 -17.1436q24.5898 0.0439453 42.2295 17.4609q17.749 17.6348 17.4795 42.2275q0.269531 25.0635 -17.3242 42.8604q-17.0869 17.9844 -41.7656 17.7793zM356.909 1761.38q20.4316 0.142578 38.207 -7.77832
q15.4902 -6.68457 31.71 -22.3828q14.2148 -14.2412 21.1924 -32.3848q7.17773 -18.3682 7.26953 -39.0508q-0.0917969 -42.1182 -28.7705 -70.96q-28.6514 -28.8477 -70.2285 -29.0498q-41.9414 0.202148 -69.6084 28.5742q-27.54 28.5869 -27.8428 71.4355
q0.302734 42.5898 28.4619 72.0703q28.4639 29.6689 69.6094 29.5264zM356.909 1720.42q-24.1592 0.205078 -41.6104 -17.6211q-17.2295 -17.9551 -17.1699 -43.0186q-0.0595703 -25.3232 16.8604 -42.5449q17.0537 -17.0996 41.3008 -17.1436
q24.5898 0.0439453 42.2285 17.4609q17.75 17.6348 17.4795 42.2275q0.270508 25.0635 -17.3242 42.8604q-17.0869 17.9844 -41.7646 17.7793zM236 1488.5q36.7656 0 63.3828 -25.1377t26.6172 -59.8623v-1233.5h579.098l1.40234 1230.09q0.0400391 34.7236 26.6855 59.834
q26.6445 25.1113 63.4111 25.0742t63.3555 -25.2031q26.5879 -25.165 26.5479 -59.8887l-1.5 -1315q-0.0371094 -32.8428 -26.3535 -58.875q-26.3164 -26.0332 -63.6465 -26.0332h-759q-32 0 -61 24.5t-29 60.5v1318.5q0 34.7246 26.6172 59.8623t63.3828 25.1377
v0.00195312z" />
    <glyph glyph-name="agrave" unicode="&#xe0;" 
d="M725.194 601.806l249.9 -319.63l1.80078 626.621zM533.047 604.033l-305.132 390.271q-18.9287 24.2646 -15.0977 55.3291t27.9873 49.9512q24.1104 18.8926 55.2275 15.1104t50.0518 -28l284.428 -363.789l363.99 443.946q20.501 25.0039 53.5684 26.9688
q33.0684 1.96582 56.2949 -20.3457q23.2266 -22.3105 23.1348 -54.3916l-3 -1044.3q-0.118164 -41.1641 -38.083 -66.3115q-18.8301 -12.4727 -41.417 -12.4727h-852q-32.333 0 -54.8193 24.3252t-20.2939 52.1748q2.19141 27.8496 17.1152 46.0518zM627.73 482.933
l-276.252 -336.933h539.682z" />
    <glyph glyph-name="adieresis" unicode="&#xe4;" 
d="M725.194 601.806l249.9 -319.63l1.80078 626.621zM533.047 604.033l-305.132 390.271q-18.9287 24.2646 -15.0977 55.3291t27.9873 49.9512q24.1104 18.8926 55.2275 15.1104t50.0518 -28l284.428 -363.789l363.99 443.946q20.501 25.0039 53.5684 26.9688
q33.0684 1.96582 56.2949 -20.3457q23.2266 -22.3105 23.1348 -54.3916l-3 -1044.3q-0.118164 -41.1641 -38.083 -66.3115q-18.8301 -12.4727 -41.417 -12.4727h-852q-32.333 0 -54.8193 24.3252t-20.2939 52.1748q2.19141 27.8496 17.1152 46.0518zM627.73 482.933
l-276.252 -336.933h539.682zM863.198 1555.18q22.0869 0 41.9648 -8.26367q19.877 -8.26367 34.8281 -23.7793q15.291 -15.1777 23.2764 -34.4053q7.98438 -19.2256 7.98438 -41.4863q0 -44.5234 -31.5996 -75.3867q-31.6016 -30.8633 -77.1338 -30.8633
q-45.8721 0 -76.4541 30.3574q-30.5811 30.3564 -30.5811 75.8926q0 45.1963 31.2617 76.5654q31.2607 31.3682 76.4531 31.3691zM863.198 1511.68q-26.8438 0 -45.7021 -18.7207q-18.8584 -18.7188 -18.8584 -45.7031t18.5195 -45.1982q18.5176 -18.2139 45.3613 -18.2139
q27.1836 0 46.3818 18.5508q19.1982 18.5518 19.1982 44.8623q0 26.6455 -19.0273 45.5342q-19.0293 18.8887 -45.873 18.8887zM381.223 1555.18q22.0859 0 41.9639 -8.26367t34.8291 -23.7793q15.291 -15.1777 23.2754 -34.4053q7.98535 -19.2256 7.98535 -41.4863
q0 -44.5234 -31.6006 -75.3867t-77.1338 -30.8633q-45.8711 0 -76.4531 30.3574q-30.582 30.3564 -30.582 75.8926q0 45.1963 31.2617 76.5654q31.2607 31.3682 76.4541 31.3691zM381.223 1511.68q-26.8447 0 -45.7021 -18.7207q-18.8584 -18.7188 -18.8584 -45.7031
t18.5186 -45.1982t45.3613 -18.2139q27.1846 0 46.3818 18.5508q19.1982 18.5518 19.1982 44.8623q0 26.6455 -19.0273 45.5342q-19.0293 18.8887 -45.8721 18.8887z" />
    <glyph glyph-name="egrave" unicode="&#xe8;" 
d="M428.236 964.763l589.325 -846.925q11.6123 -16.6865 13.207 -36.9531q2.53711 -32.2334 -19.9492 -56.5596q-22.4863 -24.3252 -54.8193 -24.3252h-669q-26.5098 0 -50.7549 21.5273q-24.2451 21.5264 -24.2451 53.4727v925.479v40.0205q0 26.8926 21.707 51.0293
t53.6836 23.9697l671.5 -3.5q30.7402 -0.160156 52.7539 -22.4434t21.8535 -52.9463q-0.15918 -30.6631 -22.4043 -52.7158q-22.2441 -22.0527 -52.9854 -21.8926zM362 797.332v-647.332h450.441z" />
    <glyph glyph-name="edieresis" unicode="&#xeb;" 
d="M428.236 964.763l589.325 -846.925q11.6123 -16.6865 13.207 -36.9531q2.53711 -32.2334 -19.9492 -56.5596q-22.4863 -24.3252 -54.8193 -24.3252h-669q-26.5098 0 -50.7549 21.5273q-24.2451 21.5264 -24.2451 53.4727v925.479v40.0205q0 26.8926 21.707 51.0293
t53.6836 23.9697l671.5 -3.5q30.7402 -0.160156 52.7539 -22.4434t21.8535 -52.9463q-0.15918 -30.6631 -22.4043 -52.7158q-22.2441 -22.0527 -52.9854 -21.8926zM362 797.332v-647.332h450.441zM863.198 1555.18q22.0869 0 41.9648 -8.26367
q19.877 -8.26367 34.8281 -23.7793q15.291 -15.1777 23.2764 -34.4053q7.98438 -19.2256 7.98438 -41.4863q0 -44.5234 -31.5996 -75.3867q-31.6016 -30.8633 -77.1338 -30.8633q-45.8721 0 -76.4541 30.3574q-30.5811 30.3564 -30.5811 75.8926q0 45.1963 31.2617 76.5654
q31.2607 31.3682 76.4531 31.3691zM863.198 1511.68q-26.8438 0 -45.7021 -18.7207q-18.8584 -18.7188 -18.8584 -45.7031t18.5195 -45.1982q18.5176 -18.2139 45.3613 -18.2139q27.1836 0 46.3818 18.5508q19.1982 18.5518 19.1982 44.8623q0 26.6455 -19.0273 45.5342
q-19.0293 18.8887 -45.873 18.8887zM381.223 1555.18q22.0859 0 41.9639 -8.26367t34.8291 -23.7793q15.291 -15.1777 23.2754 -34.4053q7.98535 -19.2256 7.98535 -41.4863q0 -44.5234 -31.6006 -75.3867t-77.1338 -30.8633q-45.8711 0 -76.4531 30.3574
q-30.582 30.3564 -30.582 75.8926q0 45.1963 31.2617 76.5654q31.2607 31.3682 76.4541 31.3691zM381.223 1511.68q-26.8447 0 -45.7021 -18.7207q-18.8584 -18.7188 -18.8584 -45.7031t18.5186 -45.1982t45.3613 -18.2139q27.1846 0 46.3818 18.5508
q19.1982 18.5518 19.1982 44.8623q0 26.6455 -19.0273 45.5342q-19.0293 18.8887 -45.8721 18.8887z" />
    <glyph glyph-name="ntilde" unicode="&#xf1;" 
d="M231.004 22.2939q-22.0995 22.1982 -22.004 52.9392l3 965.5q0.100466 32.3333 24.4955 54.7437q24.395 22.4104 58.0809 19.654q33.6859 -2.75639 53.891 -31.6573l537.661 -769.054l-2.62794 722.308q-0.11156 30.6631 21.937 52.9118q22.0486 22.2487 52.7896 22.3606
q30.741 0.111844 52.9509 -21.9758q22.2099 -22.0877 22.3215 -52.7508l3.5 -962q0.129422 -35.5726 -26.0854 -57.1503q-26.2149 -21.5776 -59.0352 -17.0865q-32.8203 4.4911 -51.3466 30.9906l-539.269 771.354l-2.26395 -728.614q-0.0955185 -30.741 -22.3325 -52.8015
q-22.237 -22.0604 -52.9002 -21.9651q-30.6632 0.0951765 -52.7626 22.2934z" />
    <glyph glyph-name="ograve" unicode="&#xf2;" 
d="M630.484 391.052l-287.729 -362.666q-19.1064 -24.082 -50.25 -27.6426t-55.1191 15.502q-24.0215 19.0586 -27.6309 50.1494q-3.61035 31.0908 15.4902 55.2197l307.543 387.64l-399.598 483.466q-15.0996 18.2686 -17.2979 46.1992q-2.19824 27.9316 20.2881 52.2568
t54.8193 24.3252h859q50.5723 0 69.0557 -47.2998q8.6084 -22.0273 4.02832 -44.6836q2.91602 -10.4434 2.91602 -20.7168v-1002.8q0 -31.7783 -23.0293 -54.0762q-23.0303 -22.2979 -56.1055 -20.4629t-53.6748 26.7578zM725.794 511.185l250.206 -302.72v618.09z
M628.098 629.387l266.662 336.113h-544.469z" />
    <glyph glyph-name="odieresis" unicode="&#xf6;" 
d="M863.198 1555.18q22.0869 0 41.9648 -8.26367q19.877 -8.26367 34.8281 -23.7793q15.291 -15.1777 23.2764 -34.4053q7.98438 -19.2256 7.98438 -41.4863q0 -44.5234 -31.5996 -75.3867q-31.6016 -30.8633 -77.1338 -30.8633q-45.8721 0 -76.4541 30.3574
q-30.5811 30.3564 -30.5811 75.8926q0 45.1963 31.2617 76.5654q31.2607 31.3682 76.4531 31.3691zM863.198 1511.68q-26.8438 0 -45.7021 -18.7207q-18.8584 -18.7188 -18.8584 -45.7031t18.5195 -45.1982q18.5176 -18.2139 45.3613 -18.2139q27.1836 0 46.3818 18.5508
q19.1982 18.5518 19.1982 44.8623q0 26.6455 -19.0273 45.5342q-19.0293 18.8887 -45.873 18.8887zM381.223 1555.18q22.0859 0 41.9639 -8.26367t34.8291 -23.7793q15.291 -15.1777 23.2754 -34.4053q7.98535 -19.2256 7.98535 -41.4863q0 -44.5234 -31.6006 -75.3867
t-77.1338 -30.8633q-45.8711 0 -76.4531 30.3574q-30.582 30.3564 -30.582 75.8926q0 45.1963 31.2617 76.5654q31.2607 31.3682 76.4541 31.3691zM381.223 1511.68q-26.8447 0 -45.7021 -18.7207q-18.8584 -18.7188 -18.8584 -45.7031t18.5186 -45.1982t45.3613 -18.2139
q27.1846 0 46.3818 18.5508q19.1982 18.5518 19.1982 44.8623q0 26.6455 -19.0273 45.5342q-19.0293 18.8887 -45.8721 18.8887zM212.5 1013.28q0.0205078 5.50781 -0.257812 13.0146t-0.180664 26.3828q0.0986328 18.876 22.3438 40.9287q22.2441 22.0527 52.9854 21.8926
l671.5 -3.5q31.0986 -0.162109 52.8906 -23.2451q21.793 -23.083 21.7178 -51.9482l-2.5 -962q-0.0810547 -31.0996 -23.1064 -52.9521q-23.0264 -21.8535 -51.8926 -21.8535h-672q-31.9688 0 -53.5342 24.248q-21.5654 24.249 -21.4658 51.0322zM362.322 965.106
l-3.04199 -815.106h521.914l2.11133 812.391z" />
    <glyph glyph-name="ugrave" unicode="&#xf9;" 
d="M215.883 -2.89551q-41.4961 -11.6787 -68.9082 13.6895q-27.4111 25.3682 -27.4736 58.0635l-2 1050.3q-0.0615234 32.333 24.2207 54.8652q24.2822 22.5332 56.2666 20.0771t52.2803 -26.9678l366.264 -442.353l283.096 358.687q19.0449 24.1309 50.1797 27.7695
q31.1348 3.63965 55.1582 -15.3633q24.0693 -18.9971 27.7578 -50.0781q3.68848 -31.082 -15.3516 -55.2598l-303.006 -383.914l401.402 -484.788q20.6201 -24.9053 16.2246 -57.7383t-27.2852 -48.9355q-22.8896 -16.1016 -46.5283 -16.1582l-838 -2
q-1.57129 -0.00390625 -4.29688 0.104492v0zM619.326 486.204l-267.47 -338.889l546.986 1.30469zM521.492 604.362l-253.595 306.276l1.19141 -626.074z" />
    <glyph glyph-name="udieresis" unicode="&#xfc;" 
d="M863.198 1555.18q22.0869 0 41.9648 -8.26367q19.877 -8.26367 34.8281 -23.7793q15.291 -15.1777 23.2764 -34.4053q7.98438 -19.2256 7.98438 -41.4863q0 -44.5234 -31.5996 -75.3867q-31.6016 -30.8633 -77.1338 -30.8633q-45.8721 0 -76.4541 30.3574
q-30.5811 30.3564 -30.5811 75.8926q0 45.1963 31.2617 76.5654q31.2607 31.3682 76.4531 31.3691zM863.198 1511.68q-26.8438 0 -45.7021 -18.7207q-18.8584 -18.7188 -18.8584 -45.7031t18.5195 -45.1982q18.5176 -18.2139 45.3613 -18.2139q27.1836 0 46.3818 18.5508
q19.1982 18.5518 19.1982 44.8623q0 26.6455 -19.0273 45.5342q-19.0293 18.8887 -45.873 18.8887zM381.223 1555.18q22.0859 0 41.9639 -8.26367t34.8291 -23.7793q15.291 -15.1777 23.2754 -34.4053q7.98535 -19.2256 7.98535 -41.4863q0 -44.5234 -31.6006 -75.3867
t-77.1338 -30.8633q-45.8711 0 -76.4531 30.3574q-30.582 30.3564 -30.582 75.8926q0 45.1963 31.2617 76.5654q31.2607 31.3682 76.4541 31.3691zM381.223 1511.68q-26.8447 0 -45.7021 -18.7207q-18.8584 -18.7188 -18.8584 -45.7031t18.5186 -45.1982t45.3613 -18.2139
q27.1846 0 46.3818 18.5508q19.1982 18.5518 19.1982 44.8623q0 26.6455 -19.0273 45.5342q-19.0293 18.8887 -45.8721 18.8887zM339.996 1093.21q22.0996 -22.1982 22.0039 -52.9395l-2.7666 -890.267h524.728l-0.460938 883.961q-0.015625 30.6631 22.1016 52.8428
q22.1182 22.1807 52.8594 22.1963t52.8818 -22.1406q22.1406 -22.1572 22.1572 -52.8203l0.5 -959q0.0136719 -26.5479 -21.5186 -50.7939q-21.5322 -24.2451 -53.4814 -24.2451h-675q-26.7383 0 -50.9189 21.6348q-24.1807 21.6338 -24.0811 53.5986l3 965.5
q0.0957031 30.7402 22.333 52.8008q22.2363 22.0605 52.8994 21.9658q30.6641 -0.0957031 52.7637 -22.2939z" />
    <glyph glyph-name="dagger" unicode="&#x2020;" 
d="M528 1493h177v-420h366v-153h-366v-1117h-177v1117h-366v153h366v420z" />
    <glyph glyph-name="degree" unicode="&#xb0;" 
d="M934 1200.5q0 -132.5 -93 -224t-227.5 -91.5t-224.5 90t-90 224.5t92 227.5t226.065 93q134.065 0 225.5 -93.5q91.4348 -93.5 91.435 -226zM616 1391q-79 0 -134.5 -55.5t-55.5 -135.5t54.5 -134t134 -54t136 55t56.5 133.5t-56 134.5t-135 56z" />
    <glyph glyph-name="cent" unicode="&#xa2;" 
d="M801 1145q114 -6 260 -68v-172q-134 80 -260 88v-870q128.301 10.1826 260 90v-172q-146 -62 -260 -68v-286h-103v286q-225 22 -355 178.5t-130 407t131.5 409t353.5 177.5v287h103v-287zM698 127v864q-132 -12 -212 -130t-80 -302t80 -301.5t212 -130.5z" />
    <glyph glyph-name="sterling" unicode="&#xa3;" 
d="M817 1520q129 0 275 -58v-184q-124 88 -257 88t-196.5 -89.5t-63.5 -281.5v-217h371v-143h-371v-465h537v-170h-973v170h236v465h-199v143h199v238q0 254 109.5 379t332.5 125z" />
    <glyph glyph-name="section" unicode="&#xa7;" 
d="M364 1440.5q100 79.5 256 79.5t316 -58v-164q-166 78 -273 78t-160.5 -40t-53.5 -111q0 -90 205 -205q26 -15 40 -23q212 -119 277 -196t65 -178q0 -178.14 -184 -283q119 -101.443 119 -234.221q0 -132.779 -102 -216.779t-259 -84t-331 58v164q174 -78 284 -78
t166.5 42t56.5 118q0 102 -221 225l-24 14q-214 120 -278 196.5t-64 178.5q0 183.923 184 283q-119 87.2667 -119 221.133q0 133.867 100 213.367zM750 410q122 88.5484 122 173.274q0 84.7258 -71.5 152.726t-315.5 200q-123 -89.2742 -123 -173.637
q0 -84.3629 70.5 -151.863t317.5 -200.5z" />
    <glyph glyph-name="bullet" unicode="&#x2022;" 
d="M319 762q0 124 86 209.5t211 85.5q124 0 210.5 -86t86.5 -209q0 -124 -87 -210.5t-212 -86.5q-124 0 -209.5 85.5t-85.5 211.5z" />
    <glyph glyph-name="paragraph" unicode="&#xb6;" 
d="M582 1493h448v-1690h-141v1567h-191v-1567h-141v846q-215 17 -333 127.5t-118 297.5t130.5 303t345.5 116z" />
    <glyph glyph-name="germandbls" unicode="&#xdf;" 
d="M459 184q149.548 -61 262.774 -61t177.226 48.5t64 124.5t-32.5 123.5t-152.5 121.5l-67 39q-183 111.391 -183 268q0 128 81 213.5t237 120.5q-2 107 -62.5 164t-177.5 57t-174 -65.5t-57 -204.5v-1133h-187v1137q0 213 105 316t315 103q417.954 0 422 -437
q-155 -14 -239 -76t-84 -162q0 -49 27.5 -87.5t94.5 -80.5l58 -37q151 -93 206.5 -175t55.5 -198q0 -154 -112 -243t-308 -89q-135.25 0 -270 49v164z" />
    <glyph glyph-name="registered" unicode="&#xae;" 
d="M600 1100q291 0 291 -199q0 -71 -44 -117.5t-124 -60.5q36.8776 -9.70462 115 -131l114 -186h-143l-107 174q-49 80 -79.5 101t-75.5 21h-55v-296h-130v694h238zM594 1016h-102v-232h102q90 0 127 27t37 89.5t-37 89t-127 26.5zM616.5 1358q254.5 0 435.5 -182.011
q181 -182.011 181 -434.5q0 -252.489 -182 -434.489t-434.5 -182t-434.5 182t-182 434.489q0 252.489 181 434.5q181 182.011 435.5 182.011zM616.5 1255q-213.5 0 -364 -150.5t-150.5 -362t152 -363.5t362.5 -152t362 151.5t151.5 364t-150 362.5t-363.5 150z" />
    <glyph glyph-name="copyright" unicode="&#xa9;" 
d="M637 1116q125.261 0 227 -45v-108q-113.929 55 -228.964 55q-115.036 0 -182.536 -74.5t-67.5 -204.5t70 -201t190.462 -71t218.538 51v-104q-101.739 -45 -227 -45q-180 0 -283.5 100t-103.5 272.5t104 273.5t283 101zM616.5 1255q-213.5 0 -364 -150.5t-150.5 -362
t152 -363.5t362.5 -152t362 151.5t151.5 364t-150 362.5t-363.5 150zM616.5 1358q254.5 0 435.5 -182.011q181 -182.011 181 -434.5q0 -252.489 -182 -434.489t-434.5 -182t-434.5 182t-182 434.489q0 252.489 181 434.5q181 182.011 435.5 182.011z" />
    <glyph glyph-name="acute" unicode="&#xb4;" 
d="M756 1638h198l-325 -376h-154z" />
    <glyph glyph-name="dieresis" unicode="&#xa8;" 
d="M319 1552h203v-202h-203v202zM711 1552h202v-202h-202v202z" />
    <glyph glyph-name="notequal" unicode="&#x2260;" 
d="M88 930h647l246 315l125 -102l-164 -213h203v-170h-334l-184 -236h518v-172h-647l-248 -315l-125 104l164 211h-201v172h330l184 236h-514v170z" />
    <glyph glyph-name="AE" unicode="&#xc6;" 
d="M1161 1493v-170h-338v-442h307v-170h-307v-541h357v-170h-543v383h-352l-101 -383h-184l410 1493h751zM530 1323l-202 -772h309v772h-107z" />
    <glyph glyph-name="Oslash" unicode="&#xd8;" 
d="M371 303q30 -78 95.5 -123t149.5 -45q154 0 221.5 140.5t67.5 469.5q0 201 -20 291zM842 1190q-51.2346 166 -217.117 166q-165.883 0 -231.383 -146t-65.5 -524q0 -147 10 -215zM117 745q0 775 487.788 775q240.788 0 356.212 -162l139 201l100 -74l-168 -238
q84 -165.951 84 -528.976q0 -363.024 -123.5 -555.024t-370 -192t-368.5 162l-143 -203l-103 70l178 252q-69 157.406 -69 493z" />
    <glyph glyph-name="infinity" unicode="&#x221e;" 
d="M694 627q57 -136 102.5 -186t111.5 -50t111.5 67t45.5 174.5t-42 171.5t-110 64t-120.5 -58.5t-98.5 -182.5zM537 635q-56 134 -102 183.5t-112 49.5t-111.5 -66.5t-45.5 -174t41.5 -172t109 -64.5t120.5 59t100 185zM616 764q47 117 120.5 180.5t164.5 63.5
q119 0 205 -109.5t86 -273t-81.5 -269.5t-207.5 -106q-83 0 -147 50t-142 181q-65 -124 -131 -177.5t-151 -53.5q-125 0 -208 107t-83 276t78.5 272t210.5 103q94 0 162 -57.5t124 -186.5z" />
    <glyph glyph-name="plusminus" unicode="&#xb1;" 
d="M88 170h1057v-170h-1057v170zM700 1171v-329h445v-170h-445v-332h-168v332h-444v170h444v329h168z" />
    <glyph glyph-name="lessequal" unicode="&#x2264;" 
d="M1143 438v-182l-1057 332v168l1057 331v-184l-801 -231zM1143 170v-170h-1057v170h1057z" />
    <glyph glyph-name="greaterequal" unicode="&#x2265;" 
d="M88 438l803 234l-803 231v184l1057 -331v-168l-1057 -332v182zM88 170h1057v-170h-1057v170z" />
    <glyph glyph-name="yen" unicode="&#xa5;" 
d="M37 1493h215l364 -659l363 659h217l-330 -561h252v-111h-315l-86 -151v-35h401v-111h-401v-524h-203v524h-399v111h399v35l-90 151h-309v111h243z" />
    <glyph glyph-name="partialdiff" unicode="&#x2202;" 
d="M872 946q0 260 -145 260q-55 0 -127 -58t-108 -58t-60 22t-24 53q0 62 72 111t173 49q180 0 287 -155t107 -418q0 -335 -144.5 -556t-357.5 -221q-152 0 -253.5 108t-101.5 288.5t110.5 309t272.5 128.5q101 0 166 -45.5t103 -142.5q30 174 30 325zM793 494
q0 116 -43.5 178.5t-122.5 62.5q-109 0 -179.5 -129t-70.5 -336q0 -116 43 -177.5t123 -61.5q109 0 179.5 130t70.5 333z" />
    <glyph glyph-name="summation" unicode="&#x2211;" 
d="M332 -299h753v-137h-942v92l549 919l-549 848v95h922v-140h-733l522 -803z" />
    <glyph glyph-name="product" unicode="&#x220f;" 
d="M152 -436v1954h929v-1954h-155v1822h-619v-1822h-155z" />
    <glyph glyph-name="integral" unicode="&#x222b;" 
d="M393 -262q106 0 120 688q2 108 3 165q12 515 107 737t297 222q80 0 130 -42t50 -101.5t-32 -91t-80.5 -31.5q-93.5571 0 -116.5 73q-6 15 -10.5 51t-20.5 36q-107 0 -121 -619q-4 -193 -8 -303q-17 -479 -111.5 -686t-290.5 -207q-79 0 -129.5 41.5t-50.5 102t34 92
t81 31.5q79.4643 0 110 -57q9 -17 14.5 -59t24.5 -42z" />
    <glyph glyph-name="ordfeminine" unicode="&#xaa;" vert-adv-y="0" 
d="M416 965q0 -148 175.5 -148q88.5 0 154 71.5t65.5 186.5v29h-127q-144 0 -206 -34t-62 -105zM332 1464q136 56 266 56q184 0 270 -86t86 -269v-448h-143v112q-99 -131 -262 -131q-129 0 -204 68t-75 190.5t93.5 192.5t265.5 70h182v4q0 182 -236 182q-104.939 0 -243 -68
v127zM293 592h668v-123h-668v123z" />
    <glyph glyph-name="ordmasculine" unicode="&#xba;" 
d="M776.5 1325q-57.5 78 -160 78t-160 -78t-57.5 -217t57.5 -216t159 -77t160 78.5t58.5 216t-57.5 215.5zM345.5 1408q101.5 112 271 112t271 -112t101.5 -299.5t-101 -299t-271.5 -111.5t-271.5 111.5t-101 299t101.5 299.5zM276 592h676v-123h-676v123z" />
    <glyph glyph-name="ae" unicode="&#xe6;" 
d="M543 442v72h-49q-169 0 -229 -45t-60 -146q0 -198 172 -198q92 0 129 66.5t37 250.5zM1036 657v52q0 151 -38.5 217.5t-125.5 66.5t-125 -68t-38 -225v-43h327zM627 1020q68.7049 127 248.352 127q179.648 0 252.148 -118.5t72.5 -424.5v-90h-491q-2 -30 -2 -84
q0 -161 50.5 -233t162.5 -72q158 0 258 102v-172q-112.683 -84 -258 -84q-225.359 0 -291 160q-78 -160 -269 -160q-156 0 -237.5 86t-81.5 253.5t100 257t291 89.5h117v88q0 120 -49.5 184t-156.321 64q-106.821 0 -237.179 -82v168q149.6 68 269 68q178.578 0 252 -127z
" />
    <glyph glyph-name="oslash" unicode="&#xf8;" 
d="M616 127q285 0 285 432q0 105 -24 221l-463 -559q72 -94 202 -94zM817 897q-68.5417 94 -204.271 94q-135.729 0 -210.229 -107t-74.5 -309q0 -93 28 -235zM973 121.5q-123 -150.5 -341.975 -150.5q-218.975 0 -332.025 119l-160 -186l-92 76l170 200
q-80 145.641 -80 379q0 286 123 437t339.036 151q216.036 0 334.964 -111l147 176l93 -77l-164 -195q86 -135.143 86 -401.571q0 -266.429 -123 -416.929z" />
    <glyph glyph-name="questiondown" unicode="&#xbf;" vert-adv-y="0" 
d="M989 86q-254.747 -99.319 -430.626 -99.319q-160.121 0 -254.874 82.319q-110.5 96 -110.5 257q0 76 33.5 141.5t127.5 157.5l88 86q67 64 86 106q21 46.4211 21 152v123h190v-154q0 -98 -30.5 -166.5t-114.5 -150.5l-90 -89q-62 -59 -85.5 -103t-23.5 -93
q0 -89 65.5 -144t174.5 -55q156.559 0 354 137v-188zM745 1239h-202v254h202v-254z" />
    <glyph glyph-name="exclamdown" unicode="&#xa1;" 
d="M516 1239v254h203v-254h-203zM516 0v655l21 357h161l21 -357v-655h-203z" />
    <glyph glyph-name="logicalnot" unicode="&#xac;" 
d="M88 862h1057v-491h-168v319h-889v172z" />
    <glyph glyph-name="radical" unicode="&#x221a;" 
d="M100 733l-41 125l291 98l219 -731l467 1471h148v-131h-47l-506 -1604h-127l-246 825z" />
    <glyph glyph-name="florin" unicode="&#x192;" 
d="M1001 1556q97 0 199 -36v-164q-73.2857 57 -168.643 57q-193.188 0 -228.357 -254l-45 -311h303v-143h-328l-100 -635q-43 -266 -142.5 -381t-285.5 -115q-115.091 0 -205 43v164q101.161 -64 197 -64q191.172 0 243 301l117 687h-252v143h275l49 330q26 177 125 277.5
t247 100.5z" />
    <glyph glyph-name="approxequal" unicode="&#x2248;" 
d="M864 840q136.524 0 281 123v-175q-144.915 -114 -297 -114q-90 0 -203 51q-158.4 72 -264 72q-152.703 0 -293 -123v174q149.5 115 307 115q122 0 260 -69q116 -54 209 -54zM864 471q134.516 0 281 125v-176q-146.186 -115 -297 -115q-90 0 -203 51l-33 15
q-136.028 59 -231 59q-150.692 0 -293 -125v174q149.081 117 307 117q96 0 226 -55h1l33 -15q116 -55 209 -55z" />
    <glyph glyph-name="guillemotleft" unicode="&#xab;" 
d="M588 1059v-191l-301 -268l301 -268v-191l-469 418v82zM1042 1059v-191l-301 -268l301 -268v-191l-469 418v82z" />
    <glyph glyph-name="guillemotright" unicode="&#xbb;" 
d="M647 1059l469 -418v-82l-469 -418v191l301 268l-301 268v191zM193 1059l469 -418v-82l-469 -418v191l301 268l-301 268v191z" />
    <glyph glyph-name="ellipsis" unicode="&#x2026;" 
d="M80 305h252v-305h-252v305zM899 305h252v-305h-252v305zM489 305h252v-305h-252v305z" />
    <glyph glyph-name="OE" unicode="&#x152;" 
d="M1217 170v-170h-605q-295 0 -417.5 166.5t-122.5 581t122 580t418 165.5h594v-170h-358v-442h328v-170h-328v-541h369zM590 1323q-177 0 -246.5 -115t-69.5 -462t69.5 -461.5t246.5 -114.5h61v1153h-61z" />
    <glyph glyph-name="oe" unicode="&#x153;" 
d="M1047 657l2 58q0 145 -40 212.5t-126.5 67.5t-125 -68.5t-38.5 -226.5v-43h328zM230 206.5q40 -83.5 142.5 -83.5t143.5 84t41 349t-40 352t-143.5 87t-143.5 -83.5t-40 -352.5t40 -352.5zM637 1020q75.7903 127 252.395 127q176.605 0 248.605 -118.5t72 -424.5v-90
h-491v-84q0 -163 49.5 -235t161.5 -72q162.157 0 258 104v-172q-115.256 -84 -258 -84q-196.273 0 -293 133q-101.706 -133 -277.353 -133t-260.647 138t-85 450t85 450t265.585 138t272.415 -127z" />
    <glyph glyph-name="endash" unicode="&#x2013;" 
d="M0 633h1233v-141h-1233v141z" />
    <glyph glyph-name="emdash" unicode="&#x2014;" 
d="M0 633h1233v-141h-1233v141z" />
    <glyph glyph-name="quotedblleft" unicode="&#x201c;" 
d="M924 967h-252v207l196 382h154l-98 -382v-207zM465 967h-254v207l199 382h153l-98 -382v-207z" />
    <glyph glyph-name="quotedblright" unicode="&#x201d;" 
d="M768 1556h252v-206l-197 -383h-153l98 383v206zM309 1556h252v-206l-196 -383h-154l98 383v206z" />
    <glyph glyph-name="quoteleft" unicode="&#x2018;" 
d="M715 967h-252v207l196 382h154l-98 -382v-207z" />
    <glyph glyph-name="quoteright" unicode="&#x2019;" 
d="M561 1556h252v-206l-197 -383h-153l98 383v206z" />
    <glyph glyph-name="divide" unicode="&#xf7;" 
d="M494 395h245v-245h-245v245zM494 1135h245v-246h-245v246zM88 727h1057v-170h-1057v170z" />
    <glyph glyph-name="lozenge" unicode="&#x25ca;" 
d="M616 1409l-385 -817l385 -825l385 825zM616 1653l500 -1061l-500 -1069l-499 1069z" />
    <glyph glyph-name="fraction" unicode="&#x2215;" 
d="M889 1493h190l-786 -1683h-191z" />
    <glyph glyph-name="currency" unicode="&#xa4;" 
d="M806 489q62 63 62 153.5t-62 152t-152.5 61.5t-153 -61.5t-62.5 -152.5t62.5 -153.5t153 -62.5t152.5 63zM465 922q90.5161 61 184.608 61q94.0919 0 194.392 -59l166 166l90 -93l-166 -166q59 -96.3667 59 -191.909t-61 -184.091l168 -166l-94 -94l-166 167
q-90.5161 -61 -185.901 -61q-95.3849 0 -193.099 57l-164 -163l-92 90l166 166q-60 98.7097 -60 193.355q0 94.6452 62 184.645l-168 166l94 95z" />
    <glyph glyph-name="guilsinglleft" unicode="&#x2039;" 
d="M815 1059v-191l-301 -268l301 -268v-191l-469 418v82z" />
    <glyph glyph-name="guilsinglright" unicode="&#x203a;" 
d="M420 1059l469 -418v-82l-469 -418v191l301 268l-301 268v191z" />
    <glyph glyph-name="fi" unicode="&#xfb01;" 
d="M895 1554h184v-233h-184v233zM776 1556v-153h-180q-99 0 -137.5 -40.5t-38.5 -143.5v-101h659v-1118h-184v977h-475v-977h-184v977h-201v143h201v78q0 184 84.5 271t263.5 87h192z" />
    <glyph glyph-name="fl" unicode="&#xfb02;" 
d="M1079 1556v-1556h-184v1403h-299q-99 0 -137.5 -40.5t-38.5 -143.5v-101h293v-141h-293v-977h-184v977h-201v143h201v78q0 184 84.5 271t263.5 87h495z" />
    <glyph glyph-name="daggerdbl" unicode="&#x2021;" 
d="M1071 223h-366v-420h-177v420h-366v154h366v543h-366v153h366v420h177v-420h366v-153h-366v-543h366v-154z" />
    <glyph glyph-name="periodcentered" unicode="&#xb7;" 
d="M489 864h252v-305h-252v305z" />
    <glyph glyph-name="quotesinglbase" unicode="&#x201a;" 
d="M502 303h252v-207l-197 -383h-154l99 383v207z" />
    <glyph glyph-name="quotedblbase" unicode="&#x201e;" 
d="M768 303h252v-207l-197 -383h-153l98 383v207zM309 303h252v-207l-196 -383h-154l98 383v207z" />
    <glyph glyph-name="perthousand" unicode="&#x2030;" 
d="M72 567l-37 97l1044 415l39 -96zM213.5 406.5q-47.5 -48.5 -47.5 -118.5t47.5 -118.5t116 -48.5t117.5 49.5t49 117.5t-49.5 117.5t-117.5 49.5t-115.5 -48.5zM127 83q-82 83 -82 205t82.5 204.5t202.5 82.5t203 -83t83 -203.5t-83.5 -204.5t-203.5 -84t-202 83z
M121 1145q0 -69 48.5 -117.5t117.5 -48.5t117.5 48.5t48.5 116.5t-49.5 117.5t-117.5 49.5t-116.5 -48.5t-48.5 -117.5zM83 939.5q-83 83.5 -83 204.5t83 204.5t203.5 83.5t203.5 -83.5t83 -204t-83 -204.5t-203.5 -84t-203.5 83.5zM828.5 406.5q-48.5 -48.5 -48.5 -118.5
t48.5 -118.5t118 -48.5t117.5 48.5t48 117.5t-49 118.5t-117.5 49.5t-117 -48.5zM742 83.5q-83 83.5 -83 204.5t83 204t203.5 83t204 -83t83.5 -203.5t-83.5 -204.5t-204 -84t-203.5 83.5z" />
    <glyph glyph-name="circumflex" unicode="&#x2c6;" 
d="M543 1638h147l246 -376h-139l-181 245l-180 -245h-139z" />
    <glyph glyph-name="tilde" unicode="&#x2dc;" 
d="M487 1464q-72.1728 0 -76 -155h-124q1 134 52 208t132.303 74t149.697 -61l57 -55q40.95 -39 73.475 -39q67.6114 0 69.525 155h125q-1 -134 -52 -208t-132.303 -74t-149.697 61l-57 55q-40.95 39 -68 39z" />
    <glyph glyph-name="macron" unicode="&#xaf;" 
d="M317 1526h598v-148h-598v148z" />
    <glyph glyph-name="breve" unicode="&#x2d8;" vert-adv-y="0" 
d="M930 1608q-22 -287 -314 -287q-290.923 0 -313 287h119q21.7105 -150 191.539 -150q169.829 0 197.461 150h119z" />
    <glyph glyph-name="dotaccent" unicode="&#x2d9;" 
d="M514 1552h205v-204h-205v204z" />
    <glyph glyph-name="ring" unicode="&#x2da;" 
d="M891 1524q0 -115 -79.5 -195t-195 -80t-195 80t-79.5 195t79.5 194.5t195 79.5t195 -79.5t79.5 -194.5zM724 1416q44 44 44 107.5t-44 107.5t-108 44t-107.5 -43.5t-43.5 -108t43.5 -108t107.5 -43.5t108 44z" />
    <glyph glyph-name="cedilla" unicode="&#xb8;" 
d="M670 -178q0 56 -88 178h118q109 -120.679 109 -215q0 -180 -238 -180q-88 0 -176 24v131q64 -32 156 -32q119 0 119 94z" />
    <glyph glyph-name="hungarumlaut" unicode="&#x2dd;" 
d="M535 1638h170l-224 -376h-137zM868 1638h179l-248 -376h-135z" />
    <glyph glyph-name="ogonek" unicode="&#x2db;" 
d="M477.5 -351.5q-57.5 43.5 -57.5 136.627q0 93.1273 108 214.873h119q-88 -119.289 -88 -180q0 -92 109 -92q63 0 125 30v-133q-76 -20 -136 -20q-122 0 -179.5 43.5z" />
    <glyph glyph-name="caron" unicode="&#x2c7;" 
d="M543 1262l-246 376h139l180 -245l181 245h139l-246 -376h-147z" />
    <glyph glyph-name="Lslash" unicode="&#x141;" 
d="M215 1493h203v-616l315 219l78 -111l-393 -274v-541h721v-170h-924v571l-145 -106l-80 110l225 158v760z" />
    <glyph glyph-name="lslash" unicode="&#x142;" 
d="M639 406q0 -124 45.5 -187t134.5 -63h215v-156h-233q-165 0 -255.5 106t-90.5 300v292l-299 -209l-80 111l379 264v559h-295v144h479v-578l315 219l80 -110l-395 -275v-417z" />
    <glyph glyph-name="brokenbar" unicode="&#xa6;" 
d="M702 1432v-758h-172v758h172zM702 408v-758h-172v758h172z" />
    <glyph glyph-name="Eth" unicode="&#xd0;" 
d="M436 1493q342 0 504 -182t162 -565t-162.5 -564.5t-503.5 -181.5h-303v709h-125v149h125v635h303zM436 166q255 0 356 125.5t101 455t-100.5 455t-356.5 125.5h-96v-469h264v-149h-264v-543h96z" />
    <glyph glyph-name="eth" unicode="&#xf0;" 
d="M696 1092q-60.3721 82.3256 -143 178l-279 -92l-30 98l237 80l-182 200h219l127 -145l289 94l33 -98l-250 -80q197 -212 288 -402t91 -390q0 -268 -125.5 -416t-354 -148t-354 148t-125.5 414.5t125.5 414.5t349.5 148q54 0 84 -4zM793 918q-70 26 -162 26
q-146 0 -222.5 -105t-76.5 -302.5t74 -303.5t210.5 -106t210.5 106t74 302q0 110 -29 211.5t-79 171.5z" />
    <glyph glyph-name="Thorn" unicode="&#xde;" 
d="M637 532q315 0 315 262.5t-315 262.5h-234v-525h234zM201 1493h202v-270h254q260 0 384 -105t124 -323.5t-124 -323t-384 -104.5h-254v-367h-202v1493z" />
    <glyph glyph-name="thorn" unicode="&#xfe;" 
d="M992 126.5q-116 -155.5 -321.44 -155.5q-205.44 0 -295.56 170v-567h-185v1993h185v-590q94.2169 170 298.108 170q203.892 0 319.392 -157t115.5 -432.5t-116 -431zM647 127q268 0 268 432t-268 432q-134 0 -203 -109.5t-69 -322t69 -322.5t203 -110z" />
    <glyph glyph-name="minus" unicode="&#x2212;" 
d="M88 727h1057v-170h-1057v170z" />
    <glyph glyph-name="multiply" unicode="&#xd7;" 
d="M150 293l350 348l-350 350l116 117l350 -350l351 350l116 -117l-350 -350l348 -348l-116 -119l-349 350l-348 -350z" />
    <glyph glyph-name="sfthyphen" unicode="&#xad;" 
d="M356 643h521v-164h-521v164z" />
    <glyph glyph-name="periodcentered" unicode="&#x2219;" 
d="M489 864h252v-305h-252v305z" />
    <glyph glyph-name="Euro" unicode="&#x20ac;" 
d="M211 948q48 283 185 427.5t360 144.5q84 0 157.5 -20t147.5 -62v-207q-66 61 -145.5 95t-157.5 34q-146 0 -233 -104t-111 -308h481l-49 -108h-442q-2 -20 -2.5 -42.5t-0.5 -68.5q0 -15 0.5 -34t1.5 -42h361l-49 -110h-301q23 -203 110 -307.5t234 -104.5
q79 0 157.5 33.5t145.5 95.5v-207q-72 -42 -146 -62t-159 -20q-226 0 -363.5 144t-181.5 428h-174l49 110h117q-1 12 -2 32q-2 45 -2 60q0 18 2 65q1 19 2 30h-166l49 108h125z" />
    <glyph glyph-name="uni20DD" unicode="&#x20dd;" horiz-adv-x="0" vert-adv-y="0" 
d="M5 600q0 85 22 163t62 146q39 66 96 124q59 61 124 97q69 39 147 61t162 22q85 0 163 -22q75 -21 146 -62q68 -39 124 -95q59 -59 97 -125q39 -68 61 -146t22 -163q0 -83 -22 -162q-21 -76 -62 -147q-40 -70 -95 -124q-57 -56 -125 -96t-146 -62t-163 -22q-84 0 -162 22
q-76 21 -146 62q-69 40 -125 96t-96 124t-62 146.5t-22 162.5zM71 600q0 -71 20 -145q18 -67 55 -131q35 -61 85 -111q52 -52 111 -86q64 -37 131 -55q70 -19 145 -19q80 0 146 19q65 19 130 56q61 35 111 85q52 52 86 111q37 64 55 131q19 70 19 145q0 80 -19 146
q-21 72 -55 130q-36 61 -86 111q-52 52 -111 86q-63 36 -131 55q-69 19 -145 19q-78 0 -145 -19q-73 -21 -131 -55q-61 -36 -111 -86t-85 -111q-36 -61 -55.5 -130.5t-19.5 -145.5z" />
    <glyph glyph-name="taiji" unicode="&#x262f;" 
d="M609.51 670.22l0.730469 -17.5195q5.10938 -104.391 77.0146 -173.74q71.9053 -69.3496 174.835 -69.3496q106.58 0 179.215 74.8242q72.6357 74.8252 72.6357 185.056q0 202.939 -149.285 349.67q-149.285 146.729 -355.146 146.729q-210.97 0 -351.495 -140.524
q-140.524 -140.525 -152.935 -363.905q16.0596 124.1 80.2998 188.34q64.2402 64.2402 172.28 64.2402q102.93 0 174.47 -69.7148q71.54 -69.7148 77.3799 -174.105zM933.63 661.46q0 -29.9297 -21.1699 -51.0996t-50.3701 -21.1699q-29.9297 0 -51.0996 21.1699
t-21.1699 51.0996q0 29.9297 21.1699 51.0996q21.1699 21.1709 51.0996 21.1709q29.9297 0 50.7354 -21.1709q20.8047 -21.1699 20.8046 -51.0996zM429.2 661.46q0 29.9297 -20.8057 51.0996q-20.8047 21.1709 -50.7344 21.1709q-29.9297 0 -51.1006 -21.1709
q-21.1699 -21.1699 -21.1699 -51.0996q0 -29.9297 21.1699 -51.0996q21.1709 -21.1699 51.1006 -21.1699q29.2002 0 50.3701 21.5342q21.1699 21.5352 21.17 50.7353zM1149.71 661.46q0 -224.11 -158.045 -382.155q-158.045 -158.045 -382.155 -158.045
q-224.109 0 -382.154 158.045q-158.046 158.045 -158.046 382.155t158.046 382.155q158.045 158.045 382.154 158.045q224.11 0 382.155 -158.045q158.045 -158.045 158.045 -382.155zM-2242 2379z" />
    <glyph glyph-name="baqoa_kun" unicode="&#x2630;" 
d="M155 273.56q0 30.6582 24.8682 52.8125q24.8682 22.1553 59.3809 22.1318l750.381 -0.5q34.4189 -0.0224609 59.2832 -22.1689q24.8652 -22.1455 24.8398 -52.8867q-0.0263672 -30.7412 -24.9277 -52.8545q-24.9023 -22.1123 -59.3213 -22.0898l-750.381 0.5
q-34.5 0.0234375 -59.3115 22.2051q-24.8115 22.1826 -24.8116 52.8505zM155 659.56q0 30.6582 24.8682 52.8125q24.8682 22.1553 59.3809 22.1318l750.381 -0.5q34.4189 -0.0224609 59.2832 -22.1689q24.8652 -22.1455 24.8398 -52.8867
q-0.0263672 -30.7412 -24.9277 -52.8545q-24.9023 -22.1123 -59.3213 -22.0898l-750.381 0.5q-34.5 0.0234375 -59.3115 22.2051q-24.8115 22.1826 -24.8116 52.8505zM155 1090.56q0 30.6582 24.8682 52.8125q24.8682 22.1553 59.3809 22.1318l750.381 -0.5
q34.4189 -0.0224609 59.2832 -22.1689q24.8652 -22.1455 24.8398 -52.8867q-0.0263672 -30.7412 -24.9277 -52.8545q-24.9023 -22.1123 -59.3213 -22.0898l-750.381 0.5q-34.5 0.0234375 -59.3115 22.2051q-24.8115 22.1826 -24.8116 52.8505z" />
    <glyph glyph-name="baqoa_cian" unicode="&#x2631;" 
d="M189.814 201.504q-13.9697 0.0234375 -24.3921 23.0369q-11.6913 25.8155 -11.6913 51.8015q0 26.4267 12.0913 53.0297q10.0684 22.1553 24.043 22.1318l303.826 -0.5q4.83249 -0.00778833 9.19977 -2.67567l228.029 -0.151942q4.0848 2.33525 8.57761 2.32761
l300.56 -0.5q13.7861 -0.0224609 23.7461 -22.1689q11.9251 -26.5176 11.9251 -52.9328q0 -26.2905 -11.8128 -52.4797q-10.1221 -22.4409 -23.9082 -22.4184l-30.3698 0.0505221q-9.62346 -2.05739 -20.1344 -2.05052l-750.381 0.5q-12.569 0.00853873 -23.8521 2.95811z
M189.814 585.504q-13.9697 0.0234375 -24.392 23.0369q-11.6913 25.8155 -11.6913 51.8015q0 26.4267 12.0913 53.0297q10.0684 22.1553 24.043 22.1318l303.826 -0.5q2.41601 -0.00389379 4.71575 -0.672684l237.742 -0.158414q1.64501 0.333995 3.34868 0.331099
l300.56 -0.5q13.7861 -0.0224609 23.7461 -22.1689q9.95898 -22.1455 9.94922 -52.8867q-0.0107422 -30.7412 -9.98438 -52.8545q-9.97461 -22.1123 -23.7607 -22.0898l-46.4029 0.077194q-2.03354 -0.0785458 -4.10143 -0.077194l-750.381 0.5
q-7.075 0.00480638 -13.7425 0.94147zM705.753 1089.56q0 30.6582 9.96094 52.8125q9.95996 22.1553 23.7842 22.1318l300.56 -0.5q13.7871 -0.0224609 23.7451 -22.1689q9.96094 -22.1455 9.9502 -52.8867q-0.01074 -30.7412 -9.98535 -52.8545
q-9.97363 -22.1123 -23.7598 -22.0898l-300.56 0.5q-13.8193 0.0234375 -23.7578 22.2051q-9.93749 22.1826 -9.93749 52.8505zM155.753 1090.56q0 30.6582 10.0703 52.8125q10.0684 22.1553 24.042 22.1318l303.826 -0.5q13.9365 -0.0224609 24.0029 -22.1689
q10.0684 -22.1455 10.0586 -52.8867q-0.0107422 -30.7412 -10.0938 -52.8545q-10.083 -22.1123 -24.0186 -22.0898l-303.826 0.5q-13.9697 0.0234375 -24.0156 22.2051q-10.0458 22.1826 -10.0458 52.8505z" />
    <glyph glyph-name="baqoa_zren" unicode="&#x2632;" 
d="M189.814 201.504q-13.9697 0 -24.3921 23.0369q-11.6913 25.8155 -11.6913 51.8015q0 26.4267 12.0913 53.0297q10.0684 22.1553 24.043 22.1318l303.826 -0.5q4.83249 -0.00778833 9.19977 -2.67567l228.029 -0.151942q4.0848 2.33525 8.57761 2.32761l300.56 -0.5
q13.7861 -0.0224609 23.7461 -22.1689q11.9251 -26.5176 11.9251 -52.9328q0 -26.2905 -11.8128 -52.4797q-10.1221 -22.4409 -23.9082 -22.4184l-30.3698 0.0505221q-9.62346 -2.05739 -20.1344 -2.05052l-750.381 0.5q-12.569 0.00853873 -23.8521 2.95811z
M189.814 1015.5q-13.9697 0 -24.3921 23.0369q-11.6914 25.8157 -11.6914 51.8011q0 26.4272 12.0924 53.03q10.0684 22.1553 24.042 22.1318l45.34 -0.0746151q2.00506 0.0760033 4.04378 0.0746151l750.381 -0.5q7.05568 -0.00460436 13.7098 -0.938917l36.7182 -0.061083
q13.7871 -0.0224609 23.7533 -22.1835q9.96621 -22.161 9.94165 -51.8721l-0.00076996 -0.28269q0 -31.4372 -9.98424 -53.5718q-9.97363 -22.1123 -23.7598 -22.0898l-300.56 0.5q-2.38795 0.00404995 -4.66001 0.669724l-237.784 0.158442
q-1.65296 -0.330929 -3.364 -0.328166zM705.753 659.56q0 30.6582 9.96094 52.8125q9.96094 22.1553 23.7842 22.1318l300.56 -0.5q13.7861 -0.0224609 23.7461 -22.1689q9.95898 -22.1455 9.94922 -52.8867q-0.0107422 -30.7412 -9.98438 -52.8545
q-9.97461 -22.1123 -23.7607 -22.0898l-300.56 0.5q-13.8193 0.0234375 -23.7578 22.2051q-9.93758 22.1826 -9.93758 52.8505zM155.753 660.56q0 30.6582 10.0693 52.8125q10.0684 22.1553 24.043 22.1318l303.826 -0.5q13.9365 -0.0224609 24.0039 -22.1689
q10.0674 -22.1455 10.0576 -52.8867q-0.0107422 -30.7412 -10.0938 -52.8545q-10.083 -22.1123 -24.0186 -22.0898l-303.826 0.5q-13.9697 0.0234375 -24.0156 22.2051q-10.0458 22.1826 -10.0458 52.8505z" />
    <glyph glyph-name="baqoa_kan" unicode="&#x2633;" 
d="M155.753 1090.56q0 30.6582 10.0703 52.8125q10.0684 22.1553 24.042 22.1318l303.826 -0.5q13.9365 -0.0224609 24.0029 -22.1689q10.0684 -22.1455 10.0586 -52.8867q-0.0107422 -30.7412 -10.0938 -52.8545q-10.083 -22.1123 -24.0186 -22.0898l-303.826 0.5
q-13.9697 0.0234375 -24.0156 22.2051q-10.0458 22.1826 -10.0458 52.8505zM705.753 1089.56q0 30.6582 9.96094 52.8125q9.95996 22.1553 23.7842 22.1318l300.56 -0.5q13.7871 -0.0224609 23.7451 -22.1689q9.96094 -22.1455 9.9502 -52.8867
q-0.01074 -30.7412 -9.98535 -52.8545q-9.97363 -22.1123 -23.7598 -22.0898l-300.56 0.5q-13.8193 0.0234375 -23.7578 22.2051q-9.93749 22.1826 -9.93749 52.8505zM155.753 660.56q0 30.6582 10.0693 52.8125q10.0684 22.1553 24.043 22.1318l303.826 -0.5
q13.9365 -0.0224609 24.0039 -22.1689q10.0674 -22.1455 10.0576 -52.8867q-0.0107422 -30.7412 -10.0938 -52.8545q-10.083 -22.1123 -24.0186 -22.0898l-303.826 0.5q-13.9697 0.0234375 -24.0156 22.2051q-10.0458 22.1826 -10.0458 52.8505zM705.753 659.56
q0 30.6582 9.96094 52.8125q9.96094 22.1553 23.7842 22.1318l300.56 -0.5q13.7861 -0.0224609 23.7461 -22.1689q9.95898 -22.1455 9.94922 -52.8867q-0.0107422 -30.7412 -9.98438 -52.8545q-9.97461 -22.1123 -23.7607 -22.0898l-300.56 0.5
q-13.8193 0.0234375 -23.7578 22.2051q-9.93758 22.1826 -9.93758 52.8505zM189.814 201.504q-13.9697 0.0234375 -24.3921 23.0369q-11.6913 25.8155 -11.6913 51.8015q0 26.4267 12.0913 53.0297q10.0684 22.1553 24.043 22.1318l303.826 -0.5
q4.83249 -0.00778833 9.19977 -2.67567l228.029 -0.151942q4.0848 2.33525 8.57761 2.32761l300.56 -0.5q13.7861 -0.0224609 23.7461 -22.1689q11.9251 -26.5176 11.9251 -52.9328q0 -26.2905 -11.8128 -52.4797q-10.1221 -22.4409 -23.9082 -22.4184l-30.3698 0.0505221
q-9.62346 -2.05739 -20.1344 -2.05052l-750.381 0.5q-12.569 0.00853873 -23.8521 2.95811z" />
    <glyph glyph-name="baqoa_ri" unicode="&#x2634;" 
d="M155.753 276.56q0 30.6582 10.0693 52.8125q10.0684 22.1553 24.043 22.1318l303.826 -0.5q13.9365 -0.0224609 24.0039 -22.1689q10.0674 -22.1455 10.0576 -52.8867q-0.0107422 -30.7412 -10.0938 -52.8545q-10.083 -22.1123 -24.0186 -22.0898l-303.826 0.5
q-13.9697 0.0234375 -24.0156 22.2051q-10.0458 22.1826 -10.0458 52.8505zM705.753 275.56q0 30.6582 9.96094 52.8125q9.96094 22.1553 23.7842 22.1318l300.56 -0.5q13.7861 -0.0224609 23.7461 -22.1689q9.95898 -22.1455 9.94922 -52.8867
q-0.0107422 -30.7412 -9.98438 -52.8545q-9.97461 -22.1123 -23.7607 -22.0898l-300.56 0.5q-13.8193 0.0234375 -23.7578 22.2051q-9.93758 22.1826 -9.93758 52.8505zM189.814 1015.5q-13.9697 0.0234375 -24.3921 23.0369q-11.6914 25.8157 -11.6914 51.8011
q0 26.4272 12.0924 53.03q10.0684 22.1553 24.042 22.1318l45.34 -0.0746151q2.00506 0.0760033 4.04378 0.0746151l750.381 -0.5q7.05568 -0.00460436 13.7098 -0.938917l36.7182 -0.061083q13.7871 -0.0224609 23.7533 -22.1835q9.96621 -22.161 9.94165 -51.8721
l-0.00076996 -0.28269q0 -31.4372 -9.98424 -53.5718q-9.97363 -22.1123 -23.7598 -22.0898l-300.56 0.5q-2.38795 0.00404995 -4.66001 0.669724l-237.784 0.158442q-1.65296 -0.330929 -3.364 -0.328166zM189.814 585.504q-13.9697 0.0234375 -24.392 23.0369
q-11.6913 25.8155 -11.6913 51.8015q0 26.4267 12.0913 53.0297q10.0684 22.1553 24.043 22.1318l303.826 -0.5q2.41601 -0.00389379 4.71575 -0.672684l237.742 -0.158414q1.64501 0.333995 3.34868 0.331099l300.56 -0.5q13.7861 -0.0224609 23.7461 -22.1689
q9.95898 -22.1455 9.94922 -52.8867q-0.0107422 -30.7412 -9.98438 -52.8545q-9.97461 -22.1123 -23.7607 -22.0898l-46.4029 0.077194q-2.03354 -0.0785458 -4.10143 -0.077194l-750.381 0.5q-7.075 0.00480638 -13.7425 0.94147z" />
    <glyph glyph-name="baqoa_qen" unicode="&#x2635;" 
d="M155.753 1090.56q0 30.6582 10.0703 52.8125q10.0684 22.1553 24.042 22.1318l303.826 -0.5q13.9365 -0.0224609 24.0029 -22.1689q10.0684 -22.1455 10.0586 -52.8867q-0.0107422 -30.7412 -10.0938 -52.8545q-10.083 -22.1123 -24.0186 -22.0898l-303.826 0.5
q-13.9697 0.0234375 -24.0156 22.2051q-10.0458 22.1826 -10.0458 52.8505zM705.753 1089.56q0 30.6582 9.96094 52.8125q9.95996 22.1553 23.7842 22.1318l300.56 -0.5q13.7871 -0.0224609 23.7451 -22.1689q9.96094 -22.1455 9.9502 -52.8867
q-0.01074 -30.7412 -9.98535 -52.8545q-9.97363 -22.1123 -23.7598 -22.0898l-300.56 0.5q-13.8193 0.0234375 -23.7578 22.2051q-9.93749 22.1826 -9.93749 52.8505zM155.753 276.56q0 30.6582 10.0693 52.8125q10.0684 22.1553 24.043 22.1318l303.826 -0.5
q13.9365 -0.0224609 24.0039 -22.1689q10.0674 -22.1455 10.0576 -52.8867q-0.0107422 -30.7412 -10.0938 -52.8545q-10.083 -22.1123 -24.0186 -22.0898l-303.826 0.5q-13.9697 0.0234375 -24.0156 22.2051q-10.0458 22.1826 -10.0458 52.8505zM705.753 275.56
q0 30.6582 9.96094 52.8125q9.96094 22.1553 23.7842 22.1318l300.56 -0.5q13.7861 -0.0224609 23.7461 -22.1689q9.95898 -22.1455 9.94922 -52.8867q-0.0107422 -30.7412 -9.98438 -52.8545q-9.97461 -22.1123 -23.7607 -22.0898l-300.56 0.5
q-13.8193 0.0234375 -23.7578 22.2051q-9.93758 22.1826 -9.93758 52.8505zM189.814 585.504q-13.9697 0.0234375 -25.0265 24.4379q-11.0568 24.4145 -11.0568 50.6208q0 26.2063 11.0798 50.5855q11.0798 24.3792 25.0544 24.3557l303.826 -0.5
q2.41601 -0.00389379 4.71575 -0.672684l237.742 -0.158414q1.64501 0.333995 3.34868 0.331099l300.56 -0.5q13.7861 -0.0224609 23.7461 -22.1689q9.95898 -22.1455 9.94922 -52.8867q-0.0107422 -30.7412 -9.98438 -52.8545q-9.97461 -22.1123 -23.7607 -22.0898
l-46.4029 0.077194q-2.03354 -0.0785458 -4.10143 -0.077194l-750.381 0.5q-7.075 0.00480638 -13.7425 0.94147z" />
    <glyph glyph-name="baqoa_wui" unicode="&#x2636;" 
d="M155.753 660.56q0 30.6582 10.0693 52.8125q10.0684 22.1553 24.043 22.1318l303.826 -0.5q13.9365 -0.0224609 24.0039 -22.1689q10.0674 -22.1455 10.0576 -52.8867q-0.0107422 -30.7412 -10.0938 -52.8545q-10.083 -22.1123 -24.0186 -22.0898l-303.826 0.5
q-13.9697 0.0234375 -24.0156 22.2051q-10.0458 22.1826 -10.0458 52.8505zM705.753 659.56q0 30.6582 9.96094 52.8125q9.96094 22.1553 23.7842 22.1318l300.56 -0.5q13.7861 -0.0224609 23.7461 -22.1689q9.95898 -22.1455 9.94922 -52.8867
q-0.0107422 -30.7412 -9.98438 -52.8545q-9.97461 -22.1123 -23.7607 -22.0898l-300.56 0.5q-13.8193 0.0234375 -23.7578 22.2051q-9.93758 22.1826 -9.93758 52.8505zM155.753 276.56q0 30.6582 10.0693 52.8125q10.0684 22.1553 24.043 22.1318l303.826 -0.5
q13.9365 -0.0224609 24.0039 -22.1689q10.0674 -22.1455 10.0576 -52.8867q-0.0107422 -30.7412 -10.0938 -52.8545q-10.083 -22.1123 -24.0186 -22.0898l-303.826 0.5q-13.9697 0.0234375 -24.0156 22.2051q-10.0458 22.1826 -10.0458 52.8505zM705.753 275.56
q0 30.6582 9.96094 52.8125q9.96094 22.1553 23.7842 22.1318l300.56 -0.5q13.7861 -0.0224609 23.7461 -22.1689q9.95898 -22.1455 9.94922 -52.8867q-0.0107422 -30.7412 -9.98438 -52.8545q-9.97461 -22.1123 -23.7607 -22.0898l-300.56 0.5
q-13.8193 0.0234375 -23.7578 22.2051q-9.93758 22.1826 -9.93758 52.8505zM189.814 1015.5q-13.9697 0.0234375 -25.0266 24.438q-11.0569 24.4146 -11.0569 50.6209t11.0804 50.5854q11.0804 24.379 25.054 24.3555l45.34 -0.0746151q2.00506 0.0760033 4.04378 0.0746151
l750.381 -0.5q7.05568 -0.00460436 13.7098 -0.938917l36.7182 -0.061083q13.7871 -0.0224609 23.7533 -22.1835q9.96621 -22.161 9.94165 -51.8721l-0.00076996 -0.28269q0 -31.4372 -9.98424 -53.5718q-9.97363 -22.1123 -23.7598 -22.0898l-300.56 0.5
q-2.38795 0.00404995 -4.66001 0.669724l-237.784 0.158442q-1.65296 -0.330929 -3.364 -0.328166z" />
    <glyph glyph-name="baqoa_xiun" unicode="&#x2637;" 
d="M715.691 222.709q-9.93758 22.1826 -9.93758 52.8505q0 30.6582 9.96094 52.8125q9.95039 22.1318 23.7549 22.1318l300.589 -0.500025q13.7861 -0.0224609 23.7461 -22.1689q9.94923 -22.1238 9.94923 -52.8265l-9.56e-006 -0.0601868
q-0.0107422 -30.7412 -9.98438 -52.8545q-9.96447 -22.0898 -23.7327 -22.0898l-300.588 0.500023q-13.8193 0.0234375 -23.7575 22.2051zM165.799 223.709q-10.0458 22.1826 -10.0458 52.8505q0 30.6582 10.0693 52.8125q10.0577 22.1318 24.0134 22.1318
l303.856 -0.500025q13.9365 -0.0224609 24.0039 -22.1689q10.0576 -22.124 10.0576 -52.8269l-9.53e-006 -0.059783q-0.0107422 -30.7412 -10.0938 -52.8545q-10.0728 -22.0898 -23.9903 -22.0898l-303.854 0.500023q-13.9697 0.0234375 -24.0156 22.2051zM715.691 606.71
q-9.93758 22.1826 -9.93758 52.8505q0 30.6582 9.96094 52.8125q9.95039 22.1318 23.7549 22.1318l300.589 -0.500025q13.7861 -0.0224609 23.7461 -22.1689q9.94923 -22.1238 9.94923 -52.8265l-9.56e-006 -0.0601868q-0.0107422 -30.7412 -9.98438 -52.8545
q-9.96447 -22.0898 -23.7327 -22.0898l-300.588 0.500023q-13.8193 0.0234375 -23.7575 22.2051zM165.799 607.71q-10.0458 22.1826 -10.0458 52.8505q0 30.6582 10.0693 52.8125q10.0577 22.1318 24.0134 22.1318l303.856 -0.500025q13.9365 -0.0224609 24.0039 -22.1689
q10.0576 -22.124 10.0576 -52.8269l-9.53e-006 -0.059783q-0.0107422 -30.7412 -10.0938 -52.8545q-10.0728 -22.0898 -23.9903 -22.0898l-303.854 0.500023q-13.9697 0.0234375 -24.0156 22.2051zM715.69 1036.71q-9.93749 22.1826 -9.93749 52.8505
q0 30.6582 9.96094 52.8125q9.94941 22.1318 23.7549 22.1318l300.589 -0.500025q13.7871 -0.0224609 23.7451 -22.1689q9.95021 -22.1216 9.95021 -52.8205l-1.157e-005 -0.0662097q-0.01074 -30.7412 -9.98535 -52.8545q-9.96349 -22.0898 -23.7318 -22.0898
l-300.588 0.500023q-13.8193 0.0234375 -23.7575 22.2051zM165.799 1037.71q-10.0458 22.1826 -10.0458 52.8505q0 30.6582 10.0703 52.8125q10.0577 22.1318 24.0124 22.1318l303.856 -0.500025q13.9365 -0.0224609 24.0029 -22.1689q10.0586 -22.124 10.0586 -52.8269
l-9.529e-006 -0.0597771q-0.0107422 -30.7412 -10.0938 -52.8545q-10.0728 -22.0898 -23.9903 -22.0898l-303.854 0.500023q-13.9697 0.0234375 -24.0156 22.2051z" />
    <glyph glyph-name="uni2800" unicode="&#x2800;" 
d="M956 535q25 0 54 -11q27 -10 45 -30q21 -23 30 -45q10 -25 10 -53q0 -54 -41 -97q-38 -40 -99 -40q-58 0 -98 39q-39 38 -39 98q0 58 40.5 98.5t97.5 40.5zM956 479q-34 0 -58 -24q-25 -25 -25 -60t24 -58t58 -23q35 0 60 24t25 58t-24 58.5t-60 24.5zM336 535
q25 0 54 -11q27 -10 45 -30q21 -23 30 -45q10 -25 10 -53q0 -54 -41 -97q-38 -40 -99 -40q-58 0 -98 39q-39 38 -39 98q0 58 40.5 98.5t97.5 40.5zM336 479q-34 0 -58 -24q-25 -25 -25 -60t24 -58t58 -23q35 0 60 24t25 58t-24 58.5t-60 24.5zM956 1005q28 0 54 -11
q24 -10 45 -31t30 -44q10 -25 10 -53q0 -56 -41 -98q-38 -39 -99 -39q-58 0 -98 39q-39 38 -39 98q0 58 40.5 98.5t97.5 40.5zM956 949q-34 0 -58 -24q-25 -25 -25 -60t24 -58t58 -23q35 0 60 24t25 58t-24 58.5t-60 24.5zM336 1005q28 0 54 -11q24 -10 45 -31t30 -44
q10 -25 10 -53q0 -56 -41 -98q-38 -39 -99 -39q-58 0 -98 39q-39 38 -39 98q0 58 40.5 98.5t97.5 40.5zM336 949q-34 0 -58 -24q-25 -25 -25 -60t24 -58t58 -23q35 0 60 24t25 58t-24 58.5t-60 24.5zM956 1405q28 0 54 -11q24 -10 45 -31t30 -44q10 -25 10 -53
q0 -56 -41 -98q-38 -39 -99 -39q-58 0 -98 39q-39 38 -39 98q0 58 40.5 98.5t97.5 40.5zM956 1349q-34 0 -58 -24q-25 -25 -25 -60t24 -58t58 -23q35 0 60 24t25 58t-24 58.5t-60 24.5zM336 1405q28 0 54 -11q24 -10 45 -31t30 -44q10 -25 10 -53q0 -56 -41 -98
q-38 -39 -99 -39q-58 0 -98 39q-39 38 -39 98q0 58 40.5 98.5t97.5 40.5zM336 1349q-34 0 -58 -24q-25 -25 -25 -60t24 -58t58 -23q35 0 60 24t25 58q-1 34 -24.5 58.5t-59.5 24.5z" />
    <glyph glyph-name="uni2801" unicode="&#x2801;" 
d="M956 1349q-34 0 -58 -24q-25 -25 -25 -60t24 -58t58 -23q35 0 60 24t25 58t-24 58.5t-60 24.5zM956 1405q28 0 54 -11q24 -10 45 -31t30 -44q10 -25 10 -53q0 -56 -41 -98q-38 -39 -99 -39q-58 0 -98 39q-39 38 -39 98q0 58 40.5 98.5t97.5 40.5zM336 949q-34 0 -58 -24
q-25 -25 -25 -60t24 -58t58 -23q35 0 60 24t25 58t-24 58.5t-60 24.5zM336 1005q28 0 54 -11q24 -10 45 -31t30 -44q10 -25 10 -53q0 -56 -41 -98q-38 -39 -99 -39q-58 0 -98 39q-39 38 -39 98q0 58 40.5 98.5t97.5 40.5zM956 949q-34 0 -58 -24q-25 -25 -25 -60t24 -58
t58 -23q35 0 60 24t25 58t-24 58.5t-60 24.5zM956 1005q28 0 54 -11q24 -10 45 -31t30 -44q10 -25 10 -53q0 -56 -41 -98q-38 -39 -99 -39q-58 0 -98 39q-39 38 -39 98q0 58 40.5 98.5t97.5 40.5zM336 479q-34 0 -58 -24q-25 -25 -25 -60t24 -58t58 -23q35 0 60 24t25 58
t-24 58.5t-60 24.5zM336 535q25 0 54 -11q27 -10 45 -30q21 -23 30 -45q10 -25 10 -53q0 -54 -41 -97q-38 -40 -99 -40q-58 0 -98 39q-39 38 -39 98q0 58 40.5 98.5t97.5 40.5zM956 479q-34 0 -58 -24q-25 -25 -25 -60t24 -58t58 -23q35 0 60 24t25 58t-24 58.5t-60 24.5z
M956 535q25 0 54 -11q27 -10 45 -30q21 -23 30 -45q10 -25 10 -53q0 -54 -41 -97q-38 -40 -99 -40q-58 0 -98 39q-39 38 -39 98q0 58 40.5 98.5t97.5 40.5zM336 1405q28 0 54 -11q24 -10 45 -31t30 -44q10 -25 10 -53q0 -56 -41 -98q-38 -39 -99 -39q-58 0 -98 39
q-39 38 -39 98v3q-0.0238095 1.30952 -0.0238095 2.61083q0 53.3535 40.0238 92.8892q41 40.5 98 40.5z" />
    <glyph glyph-name="uni2802" unicode="&#x2802;" 
d="M336 1349q-34 0 -58 -24q-25 -25 -25 -60t24 -58t58 -23q35 0 60 24t25 58t-24 58.5t-60 24.5zM336 1405q28 0 54 -11q24 -10 45 -31t30 -44q10 -25 10 -53q0 -56 -41 -98q-38 -39 -99 -39q-58 0 -98 39q-39 38 -39 98q0 58 40.5 98.5t97.5 40.5zM956 1349q-34 0 -58 -24
q-25 -25 -25 -60t24 -58t58 -23q35 0 60 24t25 58t-24 58.5t-60 24.5zM956 1405q28 0 54 -11q24 -10 45 -31t30 -44q10 -25 10 -53q0 -56 -41 -98q-38 -39 -99 -39q-58 0 -98 39q-39 38 -39 98q0 58 40.5 98.5t97.5 40.5zM956 949q-34 0 -58 -24q-25 -25 -25 -60t24 -58
t58 -23q35 0 60 24t25 58t-24 58.5t-60 24.5zM956 1005q28 0 54 -11q24 -10 45 -31t30 -44q10 -25 10 -53q0 -56 -41 -98q-38 -39 -99 -39q-58 0 -98 39q-39 38 -39 98q0 58 40.5 98.5t97.5 40.5zM336 479q-34 0 -58 -24q-25 -25 -25 -60t24 -58t58 -23q35 0 60 24t25 58
t-24 58.5t-60 24.5zM336 535q25 0 54 -11q27 -10 45 -30q21 -23 30 -45q10 -25 10 -53q0 -54 -41 -97q-38 -40 -99 -40q-58 0 -98 39q-39 38 -39 98q0 58 40.5 98.5t97.5 40.5zM956 479q-34 0 -58 -24q-25 -25 -25 -60t24 -58t58 -23q35 0 60 24t25 58t-24 58.5t-60 24.5z
M956 535q25 0 54 -11q27 -10 45 -30q21 -23 30 -45q10 -25 10 -53q0 -54 -41 -97q-38 -40 -99 -40q-58 0 -98 39q-39 38 -39 98q0 58 40.5 98.5t97.5 40.5zM336 1005q28 0 54 -11q24 -10 45 -31t30 -44q10 -25 10 -53q0 -56 -41 -98q-38 -39 -99 -39q-58 0 -98 39
q-39 38 -39 98v3q-0.0238095 1.30952 -0.0238095 2.61083q0 53.3535 40.0238 92.8892q41 40.5 98 40.5z" />
    <glyph glyph-name="uni2803" unicode="&#x2803;" 
d="M956 1349q-34 0 -58 -24q-25 -25 -25 -60t24 -58t58 -23q35 0 60 24t25 58t-24 58.5t-60 24.5zM956 1405q28 0 54 -11q24 -10 45 -31t30 -44q10 -25 10 -53q0 -56 -41 -98q-38 -39 -99 -39q-58 0 -98 39q-39 38 -39 98q0 58 40.5 98.5t97.5 40.5zM956 949q-34 0 -58 -24
q-25 -25 -25 -60t24 -58t58 -23q35 0 60 24t25 58t-24 58.5t-60 24.5zM956 1005q28 0 54 -11q24 -10 45 -31t30 -44q10 -25 10 -53q0 -56 -41 -98q-38 -39 -99 -39q-58 0 -98 39q-39 38 -39 98q0 58 40.5 98.5t97.5 40.5zM336 479q-34 0 -58 -24q-25 -25 -25 -60t24 -58
t58 -23q35 0 60 24t25 58t-24 58.5t-60 24.5zM336 535q25 0 54 -11q27 -10 45 -30q21 -23 30 -45q10 -25 10 -53q0 -54 -41 -97q-38 -40 -99 -40q-58 0 -98 39q-39 38 -39 98q0 58 40.5 98.5t97.5 40.5zM956 479q-34 0 -58 -24q-25 -25 -25 -60t24 -58t58 -23q35 0 60 24
t25 58t-24 58.5t-60 24.5zM956 535q25 0 54 -11q27 -10 45 -30q21 -23 30 -45q10 -25 10 -53q0 -54 -41 -97q-38 -40 -99 -40q-58 0 -98 39q-39 38 -39 98q0 58 40.5 98.5t97.5 40.5zM336 1405q28 0 54 -11q24 -10 45 -31t30 -44q10 -25 10 -53q0 -56 -41 -98
q-38 -39 -99 -39q-58 0 -98 39q-39 38 -39 98q0 58 40.5 98.5t97.5 40.5zM336 1005q28 0 54 -11q24 -10 45 -31t30 -44q10 -25 10 -53q0 -56 -41 -98q-38 -39 -99 -39q-58 0 -98 39q-39 38 -39 98v3q-0.0238095 1.30952 -0.0238095 2.61083q0 53.3535 40.0238 92.8892
q41 40.5 98 40.5z" />
    <glyph glyph-name="uni2804" unicode="&#x2804;" 
d="M336 1349q-34 0 -58 -24q-25 -25 -25 -60t24 -58t58 -23q35 0 60 24t25 58t-24 58.5t-60 24.5zM336 1405q28 0 54 -11q24 -10 45 -31t30 -44q10 -25 10 -53q0 -56 -41 -98q-38 -39 -99 -39q-58 0 -98 39q-39 38 -39 98q0 58 40.5 98.5t97.5 40.5zM956 1349q-34 0 -58 -24
q-25 -25 -25 -60t24 -58t58 -23q35 0 60 24t25 58t-24 58.5t-60 24.5zM956 1405q28 0 54 -11q24 -10 45 -31t30 -44q10 -25 10 -53q0 -56 -41 -98q-38 -39 -99 -39q-58 0 -98 39q-39 38 -39 98q0 58 40.5 98.5t97.5 40.5zM336 949q-34 0 -58 -24q-25 -25 -25 -60t24 -58
t58 -23q35 0 60 24t25 58t-24 58.5t-60 24.5zM336 1005q28 0 54 -11q24 -10 45 -31t30 -44q10 -25 10 -53q0 -56 -41 -98q-38 -39 -99 -39q-58 0 -98 39q-39 38 -39 98q0 58 40.5 98.5t97.5 40.5zM956 949q-34 0 -58 -24q-25 -25 -25 -60t24 -58t58 -23q35 0 60 24t25 58
t-24 58.5t-60 24.5zM956 1005q28 0 54 -11q24 -10 45 -31t30 -44q10 -25 10 -53q0 -56 -41 -98q-38 -39 -99 -39q-58 0 -98 39q-39 38 -39 98q0 58 40.5 98.5t97.5 40.5zM956 479q-34 0 -58 -24q-25 -25 -25 -60t24 -58t58 -23q35 0 60 24t25 58t-24 58.5t-60 24.5zM956 535
q25 0 54 -11q27 -10 45 -30q21 -23 30 -45q10 -25 10 -53q0 -54 -41 -97q-38 -40 -99 -40q-58 0 -98 39q-39 38 -39 98q0 58 40.5 98.5t97.5 40.5zM336 535q25 0 54 -11q27 -10 45 -30q21 -23 30 -45q10 -25 10 -53q0 -54 -41 -97q-38 -40 -99 -40q-58 0 -98 39
q-39 38 -39 98v3q-0.0238095 1.30952 -0.0238095 2.61083q0 53.3535 40.0238 92.8892q41 40.5 98 40.5z" />
    <glyph glyph-name="uni2805" unicode="&#x2805;" 
d="M336 1405q28 0 54 -11q24 -10 45 -31t30 -44q10 -25 10 -53q0 -56 -41 -98q-38 -39 -99 -39q-58 0 -98 39q-39 38 -39 98q0 58 40.5 98.5t97.5 40.5zM956 535q25 0 54 -11q27 -10 45 -30q21 -23 30 -45q10 -25 10 -53q0 -54 -41 -97q-38 -40 -99 -40q-58 0 -98 39
q-39 38 -39 98q0 58 40.5 98.5t97.5 40.5zM956 479q-34 0 -58 -24q-25 -25 -25 -60t24 -58t58 -23q35 0 60 24t25 58t-24 58.5t-60 24.5zM956 1005q28 0 54 -11q24 -10 45 -31t30 -44q10 -25 10 -53q0 -56 -41 -98q-38 -39 -99 -39q-58 0 -98 39q-39 38 -39 98
q0 58 40.5 98.5t97.5 40.5zM956 949q-34 0 -58 -24q-25 -25 -25 -60t24 -58t58 -23q35 0 60 24t25 58t-24 58.5t-60 24.5zM336 1005q28 0 54 -11q24 -10 45 -31t30 -44q10 -25 10 -53q0 -56 -41 -98q-38 -39 -99 -39q-58 0 -98 39q-39 38 -39 98q0 58 40.5 98.5t97.5 40.5z
M336 949q-34 0 -58 -24q-25 -25 -25 -60t24 -58t58 -23q35 0 60 24t25 58t-24 58.5t-60 24.5zM956 1405q28 0 54 -11q24 -10 45 -31t30 -44q10 -25 10 -53q0 -56 -41 -98q-38 -39 -99 -39q-58 0 -98 39q-39 38 -39 98q0 58 40.5 98.5t97.5 40.5zM956 1349q-34 0 -58 -24
q-25 -25 -25 -60t24 -58t58 -23q35 0 60 24t25 58t-24 58.5t-60 24.5zM336 535q25 0 54 -11q27 -10 45 -30q21 -23 30 -45q10 -25 10 -53q0 -54 -41 -97q-38 -40 -99 -40q-58 0 -98 39q-39 38 -39 98v3q-0.0238095 1.30952 -0.0238095 2.61083q0 53.3535 40.0238 92.8892
q41 40.5 98 40.5z" />
    <glyph glyph-name="uni2806" unicode="&#x2806;" 
d="M336 1349q-34 0 -58 -24q-25 -25 -25 -60t24 -58t58 -23q35 0 60 24t25 58t-24 58.5t-60 24.5zM336 1405q28 0 54 -11q24 -10 45 -31t30 -44q10 -25 10 -53q0 -56 -41 -98q-38 -39 -99 -39q-58 0 -98 39q-39 38 -39 98q0 58 40.5 98.5t97.5 40.5zM956 1349q-34 0 -58 -24
q-25 -25 -25 -60t24 -58t58 -23q35 0 60 24t25 58t-24 58.5t-60 24.5zM956 1405q28 0 54 -11q24 -10 45 -31t30 -44q10 -25 10 -53q0 -56 -41 -98q-38 -39 -99 -39q-58 0 -98 39q-39 38 -39 98q0 58 40.5 98.5t97.5 40.5zM956 949q-34 0 -58 -24q-25 -25 -25 -60t24 -58
t58 -23q35 0 60 24t25 58t-24 58.5t-60 24.5zM956 1005q28 0 54 -11q24 -10 45 -31t30 -44q10 -25 10 -53q0 -56 -41 -98q-38 -39 -99 -39q-58 0 -98 39q-39 38 -39 98q0 58 40.5 98.5t97.5 40.5zM956 479q-34 0 -58 -24q-25 -25 -25 -60t24 -58t58 -23q35 0 60 24t25 58
t-24 58.5t-60 24.5zM956 535q25 0 54 -11q27 -10 45 -30q21 -23 30 -45q10 -25 10 -53q0 -54 -41 -97q-38 -40 -99 -40q-58 0 -98 39q-39 38 -39 98q0 58 40.5 98.5t97.5 40.5zM336 1005q28 0 54 -11q24 -10 45 -31t30 -44q10 -25 10 -53q0 -56 -41 -98q-38 -39 -99 -39
q-58 0 -98 39q-39 38 -39 98q0 58 40.5 98.5t97.5 40.5zM336 535q25 0 54 -11q27 -10 45 -30q21 -23 30 -45q10 -25 10 -53q0 -54 -41 -97q-38 -40 -99 -40q-58 0 -98 39q-39 38 -39 98v3q-0.0238095 1.30952 -0.0238095 2.61083q0 53.3535 40.0238 92.8892q41 40.5 98 40.5
z" />
    <glyph glyph-name="uni2807" unicode="&#x2807;" 
d="M956 1349q-34 0 -58 -24q-25 -25 -25 -60t24 -58t58 -23q35 0 60 24t25 58t-24 58.5t-60 24.5zM956 1405q28 0 54 -11q24 -10 45 -31t30 -44q10 -25 10 -53q0 -56 -41 -98q-38 -39 -99 -39q-58 0 -98 39q-39 38 -39 98q0 58 40.5 98.5t97.5 40.5zM956 949q-34 0 -58 -24
q-25 -25 -25 -60t24 -58t58 -23q35 0 60 24t25 58t-24 58.5t-60 24.5zM956 1005q28 0 54 -11q24 -10 45 -31t30 -44q10 -25 10 -53q0 -56 -41 -98q-38 -39 -99 -39q-58 0 -98 39q-39 38 -39 98q0 58 40.5 98.5t97.5 40.5zM956 479q-34 0 -58 -24q-25 -25 -25 -60t24 -58
t58 -23q35 0 60 24t25 58t-24 58.5t-60 24.5zM956 535q25 0 54 -11q27 -10 45 -30q21 -23 30 -45q10 -25 10 -53q0 -54 -41 -97q-38 -40 -99 -40q-58 0 -98 39q-39 38 -39 98q0 58 40.5 98.5t97.5 40.5zM336 1405q28 0 54 -11q24 -10 45 -31t30 -44q10 -25 10 -53
q0 -56 -41 -98q-38 -39 -99 -39q-58 0 -98 39q-39 38 -39 98q0 58 40.5 98.5t97.5 40.5zM336 1005q28 0 54 -11q24 -10 45 -31t30 -44q10 -25 10 -53q0 -56 -41 -98q-38 -39 -99 -39q-58 0 -98 39q-39 38 -39 98q0 58 40.5 98.5t97.5 40.5zM336 535q25 0 54 -11
q27 -10 45 -30q21 -23 30 -45q10 -25 10 -53q0 -54 -41 -97q-38 -40 -99 -40q-58 0 -98 39q-39 38 -39 98v3q-0.0238095 1.30952 -0.0238095 2.61083q0 53.3535 40.0238 92.8892q41 40.5 98 40.5z" />
    <glyph glyph-name="uni2808" unicode="&#x2808;" 
d="M336 1349q-34 0 -58 -24q-25 -25 -25 -60t24 -58t58 -23q35 0 60 24t25 58t-24 58.5t-60 24.5zM336 1405q28 0 54 -11q24 -10 45 -31t30 -44q10 -25 10 -53q0 -56 -41 -98q-38 -39 -99 -39q-58 0 -98 39q-39 38 -39 98q0 58 40.5 98.5t97.5 40.5zM336 949q-34 0 -58 -24
q-25 -25 -25 -60t24 -58t58 -23q35 0 60 24t25 58t-24 58.5t-60 24.5zM336 1005q28 0 54 -11q24 -10 45 -31t30 -44q10 -25 10 -53q0 -56 -41 -98q-38 -39 -99 -39q-58 0 -98 39q-39 38 -39 98q0 58 40.5 98.5t97.5 40.5zM956 949q-34 0 -58 -24q-25 -25 -25 -60t24 -58
t58 -23q35 0 60 24t25 58t-24 58.5t-60 24.5zM956 1005q28 0 54 -11q24 -10 45 -31t30 -44q10 -25 10 -53q0 -56 -41 -98q-38 -39 -99 -39q-58 0 -98 39q-39 38 -39 98q0 58 40.5 98.5t97.5 40.5zM336 479q-34 0 -58 -24q-25 -25 -25 -60t24 -58t58 -23q35 0 60 24t25 58
t-24 58.5t-60 24.5zM336 535q25 0 54 -11q27 -10 45 -30q21 -23 30 -45q10 -25 10 -53q0 -54 -41 -97q-38 -40 -99 -40q-58 0 -98 39q-39 38 -39 98q0 58 40.5 98.5t97.5 40.5zM956 479q-34 0 -58 -24q-25 -25 -25 -60t24 -58t58 -23q35 0 60 24t25 58t-24 58.5t-60 24.5z
M956 535q25 0 54 -11q27 -10 45 -30q21 -23 30 -45q10 -25 10 -53q0 -54 -41 -97q-38 -40 -99 -40q-58 0 -98 39q-39 38 -39 98q0 58 40.5 98.5t97.5 40.5zM956 1405q28 0 54 -11q24 -10 45 -31t30 -44q10 -25 10 -53q0 -56 -41 -98q-38 -39 -99 -39q-58 0 -98 39
q-39 38 -39 98v3q-0.0238095 1.30952 -0.0238095 2.61083q0 53.3535 40.0238 92.8892q41 40.5 98 40.5z" />
    <glyph glyph-name="uni2809" unicode="&#x2809;" 
d="M336 949q-34 0 -58 -24q-25 -25 -25 -60t24 -58t58 -23q35 0 60 24t25 58q-1 34 -24.5 58.5t-59.5 24.5zM336 1005q28 0 54 -11q24 -10 45 -31t30 -44q10 -25 10 -53q0 -57 -41 -98q-38 -38 -99 -39q-1.41463 -0.0243902 -2.81856 -0.0243902q-56.157 0 -95.1814 39.0244
q-39 39 -39 98q-0.0238095 1.38095 -0.0238095 2.75198q0 56.2123 40.0238 95.748q41 40.5 98 40.5zM956 949q-34 0 -58 -24q-25 -25 -25 -60t24 -58t58 -23q35 0 60 24t25 58q-1 34 -24.5 58.5t-59.5 24.5zM956 1005q28 0 54 -11q24 -10 45 -31t30 -44q10 -25 10 -53
q0 -57 -41 -98q-38 -38 -99 -39q-1.41463 -0.0243902 -2.81856 -0.0243902q-56.157 0 -95.1814 39.0244q-39 39 -39 98q-0.0238095 1.38095 -0.0238095 2.75198q0 56.2123 40.0238 95.748q41 40.5 98 40.5zM336 479q-34 0 -58 -24q-25 -25 -25 -60t24 -58t58 -23q35 0 60 24
t25 58q-1 34 -24.5 58.5t-59.5 24.5zM336 535q25 0 54 -11q27 -10 45 -30q21 -23 30 -45q10 -25 10 -53q0 -55 -41 -97q-38 -39 -99 -40q-1.41463 -0.0243902 -2.81856 -0.0243902q-56.157 0 -95.1814 39.0244q-39 39 -39 98q-0.0238095 1.38095 -0.0238095 2.75198
q0 56.2123 40.0238 95.748q41 40.5 98 40.5zM956 479q-34 0 -58 -24q-25 -25 -25 -60t24 -58t58 -23q35 0 60 24t25 58q-1 34 -24.5 58.5t-59.5 24.5zM956 535q25 0 54 -11q27 -10 45 -30q21 -23 30 -45q10 -25 10 -53q0 -55 -41 -97q-38 -39 -99 -40
q-1.41463 -0.0243902 -2.81856 -0.0243902q-56.157 0 -95.1814 39.0244q-39 39 -39 98q-0.0238095 1.38095 -0.0238095 2.75198q0 56.2123 40.0238 95.748q41 40.5 98 40.5zM336 1405q28 0 54 -11q24 -10 45 -31t30 -44q10 -25 10 -53q0 -57 -41 -98q-38 -38 -99 -39
q-1.41463 -0.0243902 -2.81856 -0.0243902q-56.157 0 -95.1814 39.0244q-39 39 -39 98q-0.0238095 1.38095 -0.0238095 2.75198q0 56.2123 40.0238 95.748q41 40.5 98 40.5zM956 1405q28 0 54 -11q24 -10 45 -31t30 -44q10 -25 10 -53q0 -57 -41 -98q-38 -38 -99 -39
q-1.41463 -0.0243902 -2.81856 -0.0243902q-56.157 0 -95.1814 39.0244q-39 39 -39 98q-0.0238095 1.38095 -0.0238095 2.75198q0 56.2123 40.0238 95.748q41 40.5 98 40.5z" />
    <glyph glyph-name="uni280A" unicode="&#x280a;" 
d="M956 1405q28 0 54 -11q24 -10 45 -31t30 -44q10 -25 10 -53q0 -57 -41 -98q-39 -39 -99 -39h-3h-3h-3q-1.19512 -0.0243902 -2.38489 -0.0243902q-47.5907 0 -86.6151 39.0244q-39 39 -39 98v3v3v2q-0.0238095 1.19048 -0.0238095 2.37557q0 48.5887 40.0238 88.1244
q41 40.5 98 40.5zM956 535q25 0 54 -11q27 -10 45 -30q21 -23 30 -45q10 -25 10 -53q0 -55 -41 -97q-39 -40 -99 -40h-3h-3h-3q-1.19512 -0.0243902 -2.38489 -0.0243902q-47.5907 0 -86.6151 39.0244q-39 39 -39 98v3v3v2q-0.0238095 1.19048 -0.0238095 2.37557
q0 48.5887 40.0238 88.1244q41 40.5 98 40.5zM956 479q-34 0 -58 -24q-25 -25 -25 -60t24 -58t58 -23q35 0 60 24t25 58q-1 34 -24.5 58.5t-59.5 24.5zM336 535q25 0 54 -11q27 -10 45 -30q21 -23 30 -45q10 -25 10 -53q0 -55 -41 -97q-39 -40 -99 -40h-3h-3h-3
q-1.19512 -0.0243902 -2.38489 -0.0243902q-47.5907 0 -86.6151 39.0244q-39 39 -39 98v3v3v2q-0.0238095 1.19048 -0.0238095 2.37557q0 48.5887 40.0238 88.1244q41 40.5 98 40.5zM336 479q-34 0 -58 -24q-25 -25 -25 -60t24 -58t58 -23q35 0 60 24t25 58
q-1 34 -24.5 58.5t-59.5 24.5zM956 1005q28 0 54 -11q24 -10 45 -31t30 -44q10 -25 10 -53q0 -57 -41 -98q-39 -39 -99 -39h-3h-3h-3q-1.19512 -0.0243902 -2.38489 -0.0243902q-47.5907 0 -86.6151 39.0244q-39 39 -39 98v3v3v2q-0.0238095 1.19048 -0.0238095 2.37557
q0 48.5887 40.0238 88.1244q41 40.5 98 40.5zM956 949q-34 0 -58 -24q-25 -25 -25 -60t24 -58t58 -23q35 0 60 24t25 58q-1 34 -24.5 58.5t-59.5 24.5zM336 1405q28 0 54 -11q24 -10 45 -31t30 -44q10 -25 10 -53q0 -57 -41 -98q-39 -39 -99 -39h-3h-3h-3
q-1.19512 -0.0243902 -2.38489 -0.0243902q-47.5907 0 -86.6151 39.0244q-39 39 -39 98v3v3v2q-0.0238095 1.19048 -0.0238095 2.37557q0 48.5887 40.0238 88.1244q41 40.5 98 40.5zM336 1349q-34 0 -58 -24q-25 -25 -25 -60t24 -58t58 -23q35 0 60 24t25 58
q-1 34 -24.5 58.5t-59.5 24.5zM336 1005q28 0 54 -11q24 -10 45 -31t30 -44q10 -25 10 -53q0 -57 -41 -98q-39 -39 -99 -39h-3h-3h-3q-1.19512 -0.0243902 -2.38489 -0.0243902q-47.5907 0 -86.6151 39.0244q-39 39 -39 98v3v3v2q-0.0238095 1.19048 -0.0238095 2.37557
q0 48.5887 40.0238 88.1244q41 40.5 98 40.5z" />
    <glyph glyph-name="uni280B" unicode="&#x280b;" 
d="M336 1005q28 0 54 -11q24 -10 45 -31t30 -44q10 -25 10 -53q0 -57 -41 -98q-39 -39 -99 -39h-3q-1.34146 -0.0243902 -2.674 -0.0243902q-53.3016 0 -92.326 39.0244q-39 39 -39 98v3q-0.0238095 1.30952 -0.0238095 2.61083q0 53.3535 40.0238 92.8892q41 40.5 98 40.5z
M336 1405q28 0 54 -11q24 -10 45 -31t30 -44q10 -25 10 -53q0 -57 -41 -98q-39 -39 -99 -39h-3q-1.34146 -0.0243902 -2.674 -0.0243902q-53.3016 0 -92.326 39.0244q-39 39 -39 98v3q-0.0238095 1.30952 -0.0238095 2.61083q0 53.3535 40.0238 92.8892q41 40.5 98 40.5z
M956 535q25 0 54 -11q27 -10 45 -30q21 -23 30 -45q10 -25 10 -53q0 -55 -41 -97q-39 -40 -99 -40h-3q-1.34146 -0.0243902 -2.674 -0.0243902q-53.3016 0 -92.326 39.0244q-39 39 -39 98v3q-0.0238095 1.30952 -0.0238095 2.61083q0 53.3535 40.0238 92.8892
q41 40.5 98 40.5zM956 479q-34 0 -58 -24q-25 -25 -25 -60t24 -58t58 -23q35 0 60 24t25 58q-1 34 -24.5 58.5t-59.5 24.5zM336 535q25 0 54 -11q27 -10 45 -30q21 -23 30 -45q10 -25 10 -53q0 -55 -41 -97q-39 -40 -99 -40h-3q-1.34146 -0.0243902 -2.674 -0.0243902
q-53.3016 0 -92.326 39.0244q-39 39 -39 98v3q-0.0238095 1.30952 -0.0238095 2.61083q0 53.3535 40.0238 92.8892q41 40.5 98 40.5zM336 479q-34 0 -58 -24q-25 -25 -25 -60t24 -58t58 -23q35 0 60 24t25 58q-1 34 -24.5 58.5t-59.5 24.5zM956 1005q28 0 54 -11
q24 -10 45 -31t30 -44q10 -25 10 -53q0 -57 -41 -98q-39 -39 -99 -39h-3q-1.34146 -0.0243902 -2.674 -0.0243902q-53.3016 0 -92.326 39.0244q-39 39 -39 98v3q-0.0238095 1.30952 -0.0238095 2.61083q0 53.3535 40.0238 92.8892q41 40.5 98 40.5zM956 949q-34 0 -58 -24
q-25 -25 -25 -60t24 -58t58 -23q35 0 60 24t25 58q-1 34 -24.5 58.5t-59.5 24.5zM956 1405q28 0 54 -11q24 -10 45 -31t30 -44q10 -25 10 -53q0 -57 -41 -98q-39 -39 -99 -39h-3q-1.34146 -0.0243902 -2.674 -0.0243902q-53.3016 0 -92.326 39.0244q-39 39 -39 98v3
q-0.0238095 1.30952 -0.0238095 2.61083q0 53.3535 40.0238 92.8892q41 40.5 98 40.5z" />
    <glyph glyph-name="uni280C" unicode="&#x280c;" 
d="M956.133 1404.8q28.4111 0 53.9814 -10.6514q25.5703 -10.6523 44.8027 -30.6514q19.6699 -19.5645 29.9414 -44.3477q10.2715 -24.7822 10.2715 -53.4766q0 -57.3906 -40.6494 -97.1729q-40.6504 -39.7822 -99.2227 -39.7822q-59.0078 0 -98.3477 39.1299
q-39.3389 39.1299 -39.3389 97.8252q0 58.2588 40.2139 98.6934q40.2129 40.4337 98.3478 40.4337zM956.133 534.805q28.4111 0 53.9814 -10.6514q25.5703 -10.6523 44.8027 -30.6514q19.6699 -19.5645 29.9414 -44.3477q10.2715 -24.7822 10.2715 -53.4766
q0 -57.3906 -40.6494 -97.1729q-40.6504 -39.7822 -99.2227 -39.7822q-59.0078 0 -98.3477 39.1299q-39.3389 39.1299 -39.3389 97.8252q0 58.2588 40.2139 98.6934q40.2129 40.4337 98.3478 40.4337zM956.133 478.719q-34.5312 0 -58.79 -24.1299
q-24.2588 -24.1289 -24.2588 -58.9111q0 -34.7832 23.8223 -58.2607q23.8213 -23.4775 58.3516 -23.4775q34.9688 0 59.6641 23.9121q24.6963 23.9131 24.6963 57.8262q0 34.3467 -24.4766 58.6943q-24.4785 24.3466 -59.0089 24.3466zM956.133 1004.8
q28.4111 0 53.9814 -10.6514q25.5703 -10.6523 44.8027 -30.6514q19.6699 -19.5645 29.9414 -44.3477q10.2715 -24.7822 10.2715 -53.4766q0 -57.3906 -40.6494 -97.1729q-40.6504 -39.7822 -99.2227 -39.7822q-59.0078 0 -98.3477 39.1299
q-39.3389 39.1299 -39.3389 97.8252q0 58.2588 40.2139 98.6934q40.2129 40.4337 98.3478 40.4337zM956.133 948.719q-34.5312 0 -58.79 -24.1299q-24.2588 -24.1289 -24.2588 -58.9111q0 -34.7832 23.8223 -58.2607q23.8213 -23.4775 58.3516 -23.4775
q34.9688 0 59.6641 23.9121q24.6963 23.9131 24.6963 57.8262q0 34.3467 -24.4766 58.6943q-24.4785 24.3466 -59.0089 24.3466zM336.133 1004.8q28.4111 0 53.9814 -10.6514q25.5703 -10.6523 44.8027 -30.6514q19.6699 -19.5645 29.9414 -44.3477
q10.2715 -24.7822 10.2715 -53.4766q0 -57.3906 -40.6494 -97.1729q-40.6504 -39.7822 -99.2227 -39.7822q-59.0078 0 -98.3477 39.1299q-39.3389 39.1299 -39.3389 97.8252q0 58.2588 40.2139 98.6934q40.2129 40.4337 98.3478 40.4337zM336.133 948.719
q-34.5312 0 -58.79 -24.1299q-24.2588 -24.1289 -24.2588 -58.9111q0 -34.7832 23.8223 -58.2607q23.8213 -23.4775 58.3516 -23.4775q34.9688 0 59.6641 23.9121q24.6963 23.9131 24.6963 57.8262q0 34.3467 -24.4766 58.6943q-24.4785 24.3466 -59.0089 24.3466z
M336.133 1404.8q28.4111 0 53.9814 -10.6514q25.5703 -10.6523 44.8027 -30.6514q19.6699 -19.5645 29.9414 -44.3477q10.2715 -24.7822 10.2715 -53.4766q0 -57.3906 -40.6494 -97.1729q-40.6504 -39.7822 -99.2227 -39.7822q-59.0078 0 -98.3477 39.1299
q-39.3389 39.1299 -39.3389 97.8252q0 58.2588 40.2139 98.6934q40.2129 40.4337 98.3478 40.4337zM336.133 1348.72q-34.5312 0 -58.79 -24.1299q-24.2588 -24.1289 -24.2588 -58.9111q0 -34.7832 23.8223 -58.2607q23.8213 -23.4775 58.3516 -23.4775
q34.9688 0 59.6641 23.9121q24.6963 23.9131 24.6963 57.8262q0 34.3467 -24.4766 58.6943q-24.4785 24.3466 -59.0089 24.3466zM336.133 534.805q28.4111 0 53.9814 -10.6514q25.5703 -10.6523 44.8027 -30.6514q19.6699 -19.5645 29.9414 -44.3477
q10.2715 -24.7822 10.2715 -53.4766q0 -57.3906 -40.6494 -97.1729q-40.6504 -39.7822 -99.2227 -39.7822q-59.0078 0 -98.3477 39.1299q-39.3389 39.1299 -39.3389 97.8252q0 58.2588 40.2139 98.6934q40.2129 40.4337 98.3478 40.4337z" />
    <glyph glyph-name="uni280D" unicode="&#x280d;" 
d="M956.133 1404.8q28.4111 0 53.9814 -10.6514q25.5703 -10.6523 44.8027 -30.6514q19.6699 -19.5645 29.9414 -44.3477q10.2715 -24.7822 10.2715 -53.4766q0 -57.3906 -40.6494 -97.1729q-40.6504 -39.7822 -99.2227 -39.7822q-59.0078 0 -98.3477 39.1299
q-39.3389 39.1299 -39.3389 97.8252q0 58.2588 40.2139 98.6934q40.2129 40.4337 98.3478 40.4337zM336.133 1404.8q28.4111 0 53.9814 -10.6514q25.5703 -10.6523 44.8027 -30.6514q19.6699 -19.5645 29.9414 -44.3477q10.2715 -24.7822 10.2715 -53.4766
q0 -57.3906 -40.6494 -97.1729q-40.6504 -39.7822 -99.2227 -39.7822q-59.0078 0 -98.3477 39.1299q-39.3389 39.1299 -39.3389 97.8252q0 58.2588 40.2139 98.6934q40.2129 40.4337 98.3478 40.4337zM956.133 534.805q28.4111 0 53.9814 -10.6514
q25.5703 -10.6523 44.8027 -30.6514q19.6699 -19.5645 29.9414 -44.3477q10.2715 -24.7822 10.2715 -53.4766q0 -57.3906 -40.6494 -97.1729q-40.6504 -39.7822 -99.2227 -39.7822q-59.0078 0 -98.3477 39.1299q-39.3389 39.1299 -39.3389 97.8252
q0 58.2588 40.2139 98.6934q40.2129 40.4337 98.3478 40.4337zM956.133 478.719q-34.5312 0 -58.79 -24.1299q-24.2588 -24.1289 -24.2588 -58.9111q0 -34.7832 23.8223 -58.2607q23.8213 -23.4775 58.3516 -23.4775q34.9688 0 59.6641 23.9121
q24.6963 23.9131 24.6963 57.8262q0 34.3467 -24.4766 58.6943q-24.4785 24.3466 -59.0089 24.3466zM956.133 1004.8q28.4111 0 53.9814 -10.6514q25.5703 -10.6523 44.8027 -30.6514q19.6699 -19.5645 29.9414 -44.3477q10.2715 -24.7822 10.2715 -53.4766
q0 -57.3906 -40.6494 -97.1729q-40.6504 -39.7822 -99.2227 -39.7822q-59.0078 0 -98.3477 39.1299q-39.3389 39.1299 -39.3389 97.8252q0 58.2588 40.2139 98.6934q40.2129 40.4337 98.3478 40.4337zM956.133 948.719q-34.5312 0 -58.79 -24.1299
q-24.2588 -24.1289 -24.2588 -58.9111q0 -34.7832 23.8223 -58.2607q23.8213 -23.4775 58.3516 -23.4775q34.9688 0 59.6641 23.9121q24.6963 23.9131 24.6963 57.8262q0 34.3467 -24.4766 58.6943q-24.4785 24.3466 -59.0089 24.3466zM336.133 1004.8
q28.4111 0 53.9814 -10.6514q25.5703 -10.6523 44.8027 -30.6514q19.6699 -19.5645 29.9414 -44.3477q10.2715 -24.7822 10.2715 -53.4766q0 -57.3906 -40.6494 -97.1729q-40.6504 -39.7822 -99.2227 -39.7822q-59.0078 0 -98.3477 39.1299
q-39.3389 39.1299 -39.3389 97.8252q0 58.2588 40.2139 98.6934q40.2129 40.4337 98.3478 40.4337zM336.133 948.719q-34.5312 0 -58.79 -24.1299q-24.2588 -24.1289 -24.2588 -58.9111q0 -34.7832 23.8223 -58.2607q23.8213 -23.4775 58.3516 -23.4775
q34.9688 0 59.6641 23.9121q24.6963 23.9131 24.6963 57.8262q0 34.3467 -24.4766 58.6943q-24.4785 24.3466 -59.0089 24.3466zM336.133 534.805q28.4111 0 53.9814 -10.6514q25.5703 -10.6523 44.8027 -30.6514q19.6699 -19.5645 29.9414 -44.3477
q10.2715 -24.7822 10.2715 -53.4766q0 -57.3906 -40.6494 -97.1729q-40.6504 -39.7822 -99.2227 -39.7822q-59.0078 0 -98.3477 39.1299q-39.3389 39.1299 -39.3389 97.8252q0 58.2588 40.2139 98.6934q40.2129 40.4337 98.3478 40.4337z" />
    <glyph glyph-name="uni280E" unicode="&#x280e;" 
d="M336.133 534.805q28.4111 0 53.9814 -10.6514q25.5703 -10.6523 44.8027 -30.6514q19.6699 -19.5645 29.9414 -44.3477q10.2715 -24.7822 10.2715 -53.4766q0 -57.3906 -40.6494 -97.1729q-40.6504 -39.7822 -99.2227 -39.7822q-59.0078 0 -98.3477 39.1299
q-39.3389 39.1299 -39.3389 97.8252q0 58.2588 40.2139 98.6934q40.2129 40.4337 98.3478 40.4337zM336.133 1004.8q28.4111 0 53.9814 -10.6514q25.5703 -10.6523 44.8027 -30.6514q19.6699 -19.5645 29.9414 -44.3477q10.2715 -24.7822 10.2715 -53.4766
q0 -57.3906 -40.6494 -97.1729q-40.6504 -39.7822 -99.2227 -39.7822q-59.0078 0 -98.3477 39.1299q-39.3389 39.1299 -39.3389 97.8252q0 58.2588 40.2139 98.6934q40.2129 40.4337 98.3478 40.4337zM956.133 534.805q28.4111 0 53.9814 -10.6514
q25.5703 -10.6523 44.8027 -30.6514q19.6699 -19.5645 29.9414 -44.3477q10.2715 -24.7822 10.2715 -53.4766q0 -57.3906 -40.6494 -97.1729q-40.6504 -39.7822 -99.2227 -39.7822q-59.0078 0 -98.3477 39.1299q-39.3389 39.1299 -39.3389 97.8252
q0 58.2588 40.2139 98.6934q40.2129 40.4337 98.3478 40.4337zM956.133 478.719q-34.5312 0 -58.79 -24.1299q-24.2588 -24.1289 -24.2588 -58.9111q0 -34.7832 23.8223 -58.2607q23.8213 -23.4775 58.3516 -23.4775q34.9688 0 59.6641 23.9121
q24.6963 23.9131 24.6963 57.8262q0 34.3467 -24.4766 58.6943q-24.4785 24.3466 -59.0089 24.3466zM956.133 1004.8q28.4111 0 53.9814 -10.6514q25.5703 -10.6523 44.8027 -30.6514q19.6699 -19.5645 29.9414 -44.3477q10.2715 -24.7822 10.2715 -53.4766
q0 -57.3906 -40.6494 -97.1729q-40.6504 -39.7822 -99.2227 -39.7822q-59.0078 0 -98.3477 39.1299q-39.3389 39.1299 -39.3389 97.8252q0 58.2588 40.2139 98.6934q40.2129 40.4337 98.3478 40.4337zM956.133 948.719q-34.5312 0 -58.79 -24.1299
q-24.2588 -24.1289 -24.2588 -58.9111q0 -34.7832 23.8223 -58.2607q23.8213 -23.4775 58.3516 -23.4775q34.9688 0 59.6641 23.9121q24.6963 23.9131 24.6963 57.8262q0 34.3467 -24.4766 58.6943q-24.4785 24.3466 -59.0089 24.3466zM336.133 1404.8
q28.4111 0 53.9814 -10.6514q25.5703 -10.6523 44.8027 -30.6514q19.6699 -19.5645 29.9414 -44.3477q10.2715 -24.7822 10.2715 -53.4766q0 -57.3906 -40.6494 -97.1729q-40.6504 -39.7822 -99.2227 -39.7822q-59.0078 0 -98.3477 39.1299
q-39.3389 39.1299 -39.3389 97.8252q0 58.2588 40.2139 98.6934q40.2129 40.4337 98.3478 40.4337zM336.133 1348.72q-34.5312 0 -58.79 -24.1299q-24.2588 -24.1289 -24.2588 -58.9111q0 -34.7832 23.8223 -58.2607q23.8213 -23.4775 58.3516 -23.4775
q34.9688 0 59.6641 23.9121q24.6963 23.9131 24.6963 57.8262q0 34.3467 -24.4766 58.6943q-24.4785 24.3466 -59.0089 24.3466zM956.133 1404.8q28.4111 0 53.9814 -10.6514q25.5703 -10.6523 44.8027 -30.6514q19.6699 -19.5645 29.9414 -44.3477
q10.2715 -24.7822 10.2715 -53.4766q0 -57.3906 -40.6494 -97.1729q-40.6504 -39.7822 -99.2227 -39.7822q-59.0078 0 -98.3477 39.1299q-39.3389 39.1299 -39.3389 97.8252q0 58.2588 40.2139 98.6934q40.2129 40.4337 98.3478 40.4337z" />
    <glyph glyph-name="uni280F" unicode="&#x280f;" 
d="M336.133 534.805q28.4111 0 53.9814 -10.6514q25.5703 -10.6523 44.8027 -30.6514q19.6699 -19.5645 29.9414 -44.3477q10.2715 -24.7822 10.2715 -53.4766q0 -57.3906 -40.6494 -97.1729q-40.6504 -39.7822 -99.2227 -39.7822q-59.0078 0 -98.3477 39.1299
q-39.3389 39.1299 -39.3389 97.8252q0 58.2588 40.2139 98.6934q40.2129 40.4337 98.3478 40.4337zM336.133 1004.8q28.4111 0 53.9814 -10.6514q25.5703 -10.6523 44.8027 -30.6514q19.6699 -19.5645 29.9414 -44.3477q10.2715 -24.7822 10.2715 -53.4766
q0 -57.3906 -40.6494 -97.1729q-40.6504 -39.7822 -99.2227 -39.7822q-59.0078 0 -98.3477 39.1299q-39.3389 39.1299 -39.3389 97.8252q0 58.2588 40.2139 98.6934q40.2129 40.4337 98.3478 40.4337zM336.133 1404.8q28.4111 0 53.9814 -10.6514
q25.5703 -10.6523 44.8027 -30.6514q19.6699 -19.5645 29.9414 -44.3477q10.2715 -24.7822 10.2715 -53.4766q0 -57.3906 -40.6494 -97.1729q-40.6504 -39.7822 -99.2227 -39.7822q-59.0078 0 -98.3477 39.1299q-39.3389 39.1299 -39.3389 97.8252
q0 58.2588 40.2139 98.6934q40.2129 40.4337 98.3478 40.4337zM956.133 534.805q28.4111 0 53.9814 -10.6514q25.5703 -10.6523 44.8027 -30.6514q19.6699 -19.5645 29.9414 -44.3477q10.2715 -24.7822 10.2715 -53.4766q0 -57.3906 -40.6494 -97.1729
q-40.6504 -39.7822 -99.2227 -39.7822q-59.0078 0 -98.3477 39.1299q-39.3389 39.1299 -39.3389 97.8252q0 58.2588 40.2139 98.6934q40.2129 40.4337 98.3478 40.4337zM956.133 478.719q-34.5312 0 -58.79 -24.1299q-24.2588 -24.1289 -24.2588 -58.9111
q0 -34.7832 23.8223 -58.2607q23.8213 -23.4775 58.3516 -23.4775q34.9688 0 59.6641 23.9121q24.6963 23.9131 24.6963 57.8262q0 34.3467 -24.4766 58.6943q-24.4785 24.3466 -59.0089 24.3466zM956.133 1004.8q28.4111 0 53.9814 -10.6514
q25.5703 -10.6523 44.8027 -30.6514q19.6699 -19.5645 29.9414 -44.3477q10.2715 -24.7822 10.2715 -53.4766q0 -57.3906 -40.6494 -97.1729q-40.6504 -39.7822 -99.2227 -39.7822q-59.0078 0 -98.3477 39.1299q-39.3389 39.1299 -39.3389 97.8252
q0 58.2588 40.2139 98.6934q40.2129 40.4337 98.3478 40.4337zM956.133 948.719q-34.5312 0 -58.79 -24.1299q-24.2588 -24.1289 -24.2588 -58.9111q0 -34.7832 23.8223 -58.2607q23.8213 -23.4775 58.3516 -23.4775q34.9688 0 59.6641 23.9121
q24.6963 23.9131 24.6963 57.8262q0 34.3467 -24.4766 58.6943q-24.4785 24.3466 -59.0089 24.3466zM956.133 1404.8q28.4111 0 53.9814 -10.6514q25.5703 -10.6523 44.8027 -30.6514q19.6699 -19.5645 29.9414 -44.3477q10.2715 -24.7822 10.2715 -53.4766
q0 -57.3906 -40.6494 -97.1729q-40.6504 -39.7822 -99.2227 -39.7822q-59.0078 0 -98.3477 39.1299q-39.3389 39.1299 -39.3389 97.8252q0 58.2588 40.2139 98.6934q40.2129 40.4337 98.3478 40.4337z" />
    <glyph glyph-name="uni2810" unicode="&#x2810;" 
d="M336.133 1348.72q-34.5312 0 -58.79 -24.1299q-24.2588 -24.1289 -24.2588 -58.9111q0 -34.7832 23.8223 -58.2607q23.8213 -23.4775 58.3516 -23.4775q34.9688 0 59.6641 23.9121q24.6963 23.9131 24.6963 57.8262q0 34.3467 -24.4766 58.6943
q-24.4785 24.3466 -59.0089 24.3466zM336.133 1404.8q28.4111 0 53.9814 -10.6514q25.5703 -10.6523 44.8027 -30.6514q19.6699 -19.5645 29.9414 -44.3477q10.2715 -24.7822 10.2715 -53.4766q0 -57.3906 -40.6494 -97.1729q-40.6504 -39.7822 -99.2227 -39.7822
q-59.0078 0 -98.3477 39.1299q-39.3389 39.1299 -39.3389 97.8252q0 58.2588 40.2139 98.6934q40.2129 40.4337 98.3478 40.4337zM956.133 1348.72q-34.5312 0 -58.79 -24.1299q-24.2588 -24.1289 -24.2588 -58.9111q0 -34.7832 23.8223 -58.2607
q23.8213 -23.4775 58.3516 -23.4775q34.9688 0 59.6641 23.9121q24.6963 23.9131 24.6963 57.8262q0 34.3467 -24.4766 58.6943q-24.4785 24.3466 -59.0089 24.3466zM956.133 1404.8q28.4111 0 53.9814 -10.6514q25.5703 -10.6523 44.8027 -30.6514
q19.6699 -19.5645 29.9414 -44.3477q10.2715 -24.7822 10.2715 -53.4766q0 -57.3906 -40.6494 -97.1729q-40.6504 -39.7822 -99.2227 -39.7822q-59.0078 0 -98.3477 39.1299q-39.3389 39.1299 -39.3389 97.8252q0 58.2588 40.2139 98.6934q40.2129 40.4337 98.3478 40.4337z
M336.133 948.719q-34.5312 0 -58.79 -24.1299q-24.2588 -24.1289 -24.2588 -58.9111q0 -34.7832 23.8223 -58.2607q23.8213 -23.4775 58.3516 -23.4775q34.9688 0 59.6641 23.9121q24.6963 23.9131 24.6963 57.8262q0 34.3467 -24.4766 58.6943
q-24.4785 24.3466 -59.0089 24.3466zM336.133 1004.8q28.4111 0 53.9814 -10.6514q25.5703 -10.6523 44.8027 -30.6514q19.6699 -19.5645 29.9414 -44.3477q10.2715 -24.7822 10.2715 -53.4766q0 -57.3906 -40.6494 -97.1729q-40.6504 -39.7822 -99.2227 -39.7822
q-59.0078 0 -98.3477 39.1299q-39.3389 39.1299 -39.3389 97.8252q0 58.2588 40.2139 98.6934q40.2129 40.4337 98.3478 40.4337zM336.133 478.719q-34.5312 0 -58.79 -24.1299q-24.2588 -24.1289 -24.2588 -58.9111q0 -34.7832 23.8223 -58.2607
q23.8213 -23.4775 58.3516 -23.4775q34.9688 0 59.6641 23.9121q24.6963 23.9131 24.6963 57.8262q0 34.3467 -24.4766 58.6943q-24.4785 24.3466 -59.0089 24.3466zM336.133 534.805q28.4111 0 53.9814 -10.6514q25.5703 -10.6523 44.8027 -30.6514
q19.6699 -19.5645 29.9414 -44.3477q10.2715 -24.7822 10.2715 -53.4766q0 -57.3906 -40.6494 -97.1729q-40.6504 -39.7822 -99.2227 -39.7822q-59.0078 0 -98.3477 39.1299q-39.3389 39.1299 -39.3389 97.8252q0 58.2588 40.2139 98.6934q40.2129 40.4337 98.3478 40.4337z
M956.133 478.719q-34.5312 0 -58.79 -24.1299q-24.2588 -24.1289 -24.2588 -58.9111q0 -34.7832 23.8223 -58.2607q23.8213 -23.4775 58.3516 -23.4775q34.9688 0 59.6641 23.9121q24.6963 23.9131 24.6963 57.8262q0 34.3467 -24.4766 58.6943
q-24.4785 24.3466 -59.0089 24.3466zM956.133 534.805q28.4111 0 53.9814 -10.6514q25.5703 -10.6523 44.8027 -30.6514q19.6699 -19.5645 29.9414 -44.3477q10.2715 -24.7822 10.2715 -53.4766q0 -57.3906 -40.6494 -97.1729q-40.6504 -39.7822 -99.2227 -39.7822
q-59.0078 0 -98.3477 39.1299q-39.3389 39.1299 -39.3389 97.8252q0 58.2588 40.2139 98.6934q40.2129 40.4337 98.3478 40.4337zM956.133 1004.8q28.4111 0 53.9814 -10.6514q25.5703 -10.6523 44.8027 -30.6514q19.6699 -19.5645 29.9414 -44.3477
q10.2715 -24.7822 10.2715 -53.4766q0 -57.3906 -40.6494 -97.1729q-40.6504 -39.7822 -99.2227 -39.7822q-59.0078 0 -98.3477 39.1299q-39.3389 39.1299 -39.3389 97.8252q0 58.2588 40.2139 98.6934q40.2129 40.4337 98.3478 40.4337z" />
    <glyph glyph-name="uni2811" unicode="&#x2811;" 
d="M336.133 1404.8q28.4111 0 53.9814 -10.6514q25.5703 -10.6523 44.8027 -30.6514q19.6699 -19.5645 29.9414 -44.3477q10.2715 -24.7822 10.2715 -53.4766q0 -57.3906 -40.6494 -97.1729q-40.6504 -39.7822 -99.2227 -39.7822q-59.0078 0 -98.3477 39.1299
q-39.3389 39.1299 -39.3389 97.8252q0 58.2588 40.2139 98.6934q40.2129 40.4337 98.3478 40.4337zM956.133 534.805q28.4111 0 53.9814 -10.6514q25.5703 -10.6523 44.8027 -30.6514q19.6699 -19.5645 29.9414 -44.3477q10.2715 -24.7822 10.2715 -53.4766
q0 -57.3906 -40.6494 -97.1729q-40.6504 -39.7822 -99.2227 -39.7822q-59.0078 0 -98.3477 39.1299q-39.3389 39.1299 -39.3389 97.8252q0 58.2588 40.2139 98.6934q40.2129 40.4337 98.3478 40.4337zM956.133 478.719q-34.5312 0 -58.79 -24.1299
q-24.2588 -24.1289 -24.2588 -58.9111q0 -34.7832 23.8223 -58.2607q23.8213 -23.4775 58.3516 -23.4775q34.9688 0 59.6641 23.9121q24.6963 23.9131 24.6963 57.8262q0 34.3467 -24.4766 58.6943q-24.4785 24.3466 -59.0089 24.3466zM336.133 534.805
q28.4111 0 53.9814 -10.6514q25.5703 -10.6523 44.8027 -30.6514q19.6699 -19.5645 29.9414 -44.3477q10.2715 -24.7822 10.2715 -53.4766q0 -57.3906 -40.6494 -97.1729q-40.6504 -39.7822 -99.2227 -39.7822q-59.0078 0 -98.3477 39.1299
q-39.3389 39.1299 -39.3389 97.8252q0 58.2588 40.2139 98.6934q40.2129 40.4337 98.3478 40.4337zM336.133 478.719q-34.5312 0 -58.79 -24.1299q-24.2588 -24.1289 -24.2588 -58.9111q0 -34.7832 23.8223 -58.2607q23.8213 -23.4775 58.3516 -23.4775
q34.9688 0 59.6641 23.9121q24.6963 23.9131 24.6963 57.8262q0 34.3467 -24.4766 58.6943q-24.4785 24.3466 -59.0089 24.3466zM336.133 1004.8q28.4111 0 53.9814 -10.6514q25.5703 -10.6523 44.8027 -30.6514q19.6699 -19.5645 29.9414 -44.3477
q10.2715 -24.7822 10.2715 -53.4766q0 -57.3906 -40.6494 -97.1729q-40.6504 -39.7822 -99.2227 -39.7822q-59.0078 0 -98.3477 39.1299q-39.3389 39.1299 -39.3389 97.8252q0 58.2588 40.2139 98.6934q40.2129 40.4337 98.3478 40.4337zM336.133 948.719
q-34.5312 0 -58.79 -24.1299q-24.2588 -24.1289 -24.2588 -58.9111q0 -34.7832 23.8223 -58.2607q23.8213 -23.4775 58.3516 -23.4775q34.9688 0 59.6641 23.9121q24.6963 23.9131 24.6963 57.8262q0 34.3467 -24.4766 58.6943q-24.4785 24.3466 -59.0089 24.3466z
M956.133 1404.8q28.4111 0 53.9814 -10.6514q25.5703 -10.6523 44.8027 -30.6514q19.6699 -19.5645 29.9414 -44.3477q10.2715 -24.7822 10.2715 -53.4766q0 -57.3906 -40.6494 -97.1729q-40.6504 -39.7822 -99.2227 -39.7822q-59.0078 0 -98.3477 39.1299
q-39.3389 39.1299 -39.3389 97.8252q0 58.2588 40.2139 98.6934q40.2129 40.4337 98.3478 40.4337zM956.133 1348.72q-34.5312 0 -58.79 -24.1299q-24.2588 -24.1289 -24.2588 -58.9111q0 -34.7832 23.8223 -58.2607q23.8213 -23.4775 58.3516 -23.4775
q34.9688 0 59.6641 23.9121q24.6963 23.9131 24.6963 57.8262q0 34.3467 -24.4766 58.6943q-24.4785 24.3466 -59.0089 24.3466zM956.133 1004.8q28.4111 0 53.9814 -10.6514q25.5703 -10.6523 44.8027 -30.6514q19.6699 -19.5645 29.9414 -44.3477
q10.2715 -24.7822 10.2715 -53.4766q0 -57.3906 -40.6494 -97.1729q-40.6504 -39.7822 -99.2227 -39.7822q-59.0078 0 -98.3477 39.1299q-39.3389 39.1299 -39.3389 97.8252q0 58.2588 40.2139 98.6934q40.2129 40.4337 98.3478 40.4337z" />
    <glyph glyph-name="uni2812" unicode="&#x2812;" 
d="M336.133 1348.72q-34.5312 0 -58.79 -24.1299q-24.2588 -24.1289 -24.2588 -58.9111q0 -34.7832 23.8223 -58.2607q23.8213 -23.4775 58.3516 -23.4775q34.9688 0 59.6641 23.9121q24.6963 23.9131 24.6963 57.8262q0 34.3467 -24.4766 58.6943
q-24.4785 24.3466 -59.0089 24.3466zM336.133 1404.8q28.4111 0 53.9814 -10.6514q25.5703 -10.6523 44.8027 -30.6514q19.6699 -19.5645 29.9414 -44.3477q10.2715 -24.7822 10.2715 -53.4766q0 -57.3906 -40.6494 -97.1729q-40.6504 -39.7822 -99.2227 -39.7822
q-59.0078 0 -98.3477 39.1299q-39.3389 39.1299 -39.3389 97.8252q0 58.2588 40.2139 98.6934q40.2129 40.4337 98.3478 40.4337zM956.133 1348.72q-34.5312 0 -58.79 -24.1299q-24.2588 -24.1289 -24.2588 -58.9111q0 -34.7832 23.8223 -58.2607
q23.8213 -23.4775 58.3516 -23.4775q34.9688 0 59.6641 23.9121q24.6963 23.9131 24.6963 57.8262q0 34.3467 -24.4766 58.6943q-24.4785 24.3466 -59.0089 24.3466zM956.133 1404.8q28.4111 0 53.9814 -10.6514q25.5703 -10.6523 44.8027 -30.6514
q19.6699 -19.5645 29.9414 -44.3477q10.2715 -24.7822 10.2715 -53.4766q0 -57.3906 -40.6494 -97.1729q-40.6504 -39.7822 -99.2227 -39.7822q-59.0078 0 -98.3477 39.1299q-39.3389 39.1299 -39.3389 97.8252q0 58.2588 40.2139 98.6934q40.2129 40.4337 98.3478 40.4337z
M336.133 478.719q-34.5312 0 -58.79 -24.1299q-24.2588 -24.1289 -24.2588 -58.9111q0 -34.7832 23.8223 -58.2607q23.8213 -23.4775 58.3516 -23.4775q34.9688 0 59.6641 23.9121q24.6963 23.9131 24.6963 57.8262q0 34.3467 -24.4766 58.6943
q-24.4785 24.3466 -59.0089 24.3466zM336.133 534.805q28.4111 0 53.9814 -10.6514q25.5703 -10.6523 44.8027 -30.6514q19.6699 -19.5645 29.9414 -44.3477q10.2715 -24.7822 10.2715 -53.4766q0 -57.3906 -40.6494 -97.1729q-40.6504 -39.7822 -99.2227 -39.7822
q-59.0078 0 -98.3477 39.1299q-39.3389 39.1299 -39.3389 97.8252q0 58.2588 40.2139 98.6934q40.2129 40.4337 98.3478 40.4337zM956.133 478.719q-34.5312 0 -58.79 -24.1299q-24.2588 -24.1289 -24.2588 -58.9111q0 -34.7832 23.8223 -58.2607
q23.8213 -23.4775 58.3516 -23.4775q34.9688 0 59.6641 23.9121q24.6963 23.9131 24.6963 57.8262q0 34.3467 -24.4766 58.6943q-24.4785 24.3466 -59.0089 24.3466zM956.133 534.805q28.4111 0 53.9814 -10.6514q25.5703 -10.6523 44.8027 -30.6514
q19.6699 -19.5645 29.9414 -44.3477q10.2715 -24.7822 10.2715 -53.4766q0 -57.3906 -40.6494 -97.1729q-40.6504 -39.7822 -99.2227 -39.7822q-59.0078 0 -98.3477 39.1299q-39.3389 39.1299 -39.3389 97.8252q0 58.2588 40.2139 98.6934q40.2129 40.4337 98.3478 40.4337z
M336.133 1004.8q28.4111 0 53.9814 -10.6514q25.5703 -10.6523 44.8027 -30.6514q19.6699 -19.5645 29.9414 -44.3477q10.2715 -24.7822 10.2715 -53.4766q0 -57.3906 -40.6494 -97.1729q-40.6504 -39.7822 -99.2227 -39.7822q-59.0078 0 -98.3477 39.1299
q-39.3389 39.1299 -39.3389 97.8252q0 58.2588 40.2139 98.6934q40.2129 40.4337 98.3478 40.4337zM956.133 1004.8q28.4111 0 53.9814 -10.6514q25.5703 -10.6523 44.8027 -30.6514q19.6699 -19.5645 29.9414 -44.3477q10.2715 -24.7822 10.2715 -53.4766
q0 -57.3906 -40.6494 -97.1729q-40.6504 -39.7822 -99.2227 -39.7822q-59.0078 0 -98.3477 39.1299q-39.3389 39.1299 -39.3389 97.8252q0 58.2588 40.2139 98.6934q40.2129 40.4337 98.3478 40.4337z" />
    <glyph glyph-name="uni2813" unicode="&#x2813;" 
d="M336.133 1004.8q28.4111 0 53.9814 -10.6514q25.5703 -10.6523 44.8027 -30.6514q19.6699 -19.5645 29.9414 -44.3477q10.2715 -24.7822 10.2715 -53.4766q0 -57.3906 -40.6494 -97.1729q-40.6504 -39.7822 -99.2227 -39.7822q-59.0078 0 -98.3477 39.1299
q-39.3389 39.1299 -39.3389 97.8252q0 58.2588 40.2139 98.6934q40.2129 40.4337 98.3478 40.4337zM336.133 1404.8q28.4111 0 53.9814 -10.6514q25.5703 -10.6523 44.8027 -30.6514q19.6699 -19.5645 29.9414 -44.3477q10.2715 -24.7822 10.2715 -53.4766
q0 -57.3906 -40.6494 -97.1729q-40.6504 -39.7822 -99.2227 -39.7822q-59.0078 0 -98.3477 39.1299q-39.3389 39.1299 -39.3389 97.8252q0 58.2588 40.2139 98.6934q40.2129 40.4337 98.3478 40.4337zM956.133 534.805q28.4111 0 53.9814 -10.6514
q25.5703 -10.6523 44.8027 -30.6514q19.6699 -19.5645 29.9414 -44.3477q10.2715 -24.7822 10.2715 -53.4766q0 -57.3906 -40.6494 -97.1729q-40.6504 -39.7822 -99.2227 -39.7822q-59.0078 0 -98.3477 39.1299q-39.3389 39.1299 -39.3389 97.8252
q0 58.2588 40.2139 98.6934q40.2129 40.4337 98.3478 40.4337zM956.133 478.719q-34.5312 0 -58.79 -24.1299q-24.2588 -24.1289 -24.2588 -58.9111q0 -34.7832 23.8223 -58.2607q23.8213 -23.4775 58.3516 -23.4775q34.9688 0 59.6641 23.9121
q24.6963 23.9131 24.6963 57.8262q0 34.3467 -24.4766 58.6943q-24.4785 24.3466 -59.0089 24.3466zM336.133 534.805q28.4111 0 53.9814 -10.6514q25.5703 -10.6523 44.8027 -30.6514q19.6699 -19.5645 29.9414 -44.3477q10.2715 -24.7822 10.2715 -53.4766
q0 -57.3906 -40.6494 -97.1729q-40.6504 -39.7822 -99.2227 -39.7822q-59.0078 0 -98.3477 39.1299q-39.3389 39.1299 -39.3389 97.8252q0 58.2588 40.2139 98.6934q40.2129 40.4337 98.3478 40.4337zM336.133 478.719q-34.5312 0 -58.79 -24.1299
q-24.2588 -24.1289 -24.2588 -58.9111q0 -34.7832 23.8223 -58.2607q23.8213 -23.4775 58.3516 -23.4775q34.9688 0 59.6641 23.9121q24.6963 23.9131 24.6963 57.8262q0 34.3467 -24.4766 58.6943q-24.4785 24.3466 -59.0089 24.3466zM956.133 1404.8
q28.4111 0 53.9814 -10.6514q25.5703 -10.6523 44.8027 -30.6514q19.6699 -19.5645 29.9414 -44.3477q10.2715 -24.7822 10.2715 -53.4766q0 -57.3906 -40.6494 -97.1729q-40.6504 -39.7822 -99.2227 -39.7822q-59.0078 0 -98.3477 39.1299
q-39.3389 39.1299 -39.3389 97.8252q0 58.2588 40.2139 98.6934q40.2129 40.4337 98.3478 40.4337zM956.133 1348.72q-34.5312 0 -58.79 -24.1299q-24.2588 -24.1289 -24.2588 -58.9111q0 -34.7832 23.8223 -58.2607q23.8213 -23.4775 58.3516 -23.4775
q34.9688 0 59.6641 23.9121q24.6963 23.9131 24.6963 57.8262q0 34.3467 -24.4766 58.6943q-24.4785 24.3466 -59.0089 24.3466zM956.133 1004.8q28.4111 0 53.9814 -10.6514q25.5703 -10.6523 44.8027 -30.6514q19.6699 -19.5645 29.9414 -44.3477
q10.2715 -24.7822 10.2715 -53.4766q0 -57.3906 -40.6494 -97.1729q-40.6504 -39.7822 -99.2227 -39.7822q-59.0078 0 -98.3477 39.1299q-39.3389 39.1299 -39.3389 97.8252q0 58.2588 40.2139 98.6934q40.2129 40.4337 98.3478 40.4337z" />
    <glyph glyph-name="uni2814" unicode="&#x2814;" 
d="M956.133 1004.8q28.4111 0 53.9814 -10.6514q25.5703 -10.6523 44.8027 -30.6514q19.6699 -19.5645 29.9414 -44.3477q10.2715 -24.7822 10.2715 -53.4766q0 -57.3906 -40.6494 -97.1729q-40.6504 -39.7822 -99.2227 -39.7822q-59.0078 0 -98.3477 39.1299
q-39.3389 39.1299 -39.3389 97.8252q0 58.2588 40.2139 98.6934q40.2129 40.4337 98.3478 40.4337zM956.133 534.805q28.4111 0 53.9814 -10.6514q25.5703 -10.6523 44.8027 -30.6514q19.6699 -19.5645 29.9414 -44.3477q10.2715 -24.7822 10.2715 -53.4766
q0 -57.3906 -40.6494 -97.1729q-40.6504 -39.7822 -99.2227 -39.7822q-59.0078 0 -98.3477 39.1299q-39.3389 39.1299 -39.3389 97.8252q0 58.2588 40.2139 98.6934q40.2129 40.4337 98.3478 40.4337zM956.133 478.719q-34.5312 0 -58.79 -24.1299
q-24.2588 -24.1289 -24.2588 -58.9111q0 -34.7832 23.8223 -58.2607q23.8213 -23.4775 58.3516 -23.4775q34.9688 0 59.6641 23.9121q24.6963 23.9131 24.6963 57.8262q0 34.3467 -24.4766 58.6943q-24.4785 24.3466 -59.0089 24.3466zM336.133 1004.8
q28.4111 0 53.9814 -10.6514q25.5703 -10.6523 44.8027 -30.6514q19.6699 -19.5645 29.9414 -44.3477q10.2715 -24.7822 10.2715 -53.4766q0 -57.3906 -40.6494 -97.1729q-40.6504 -39.7822 -99.2227 -39.7822q-59.0078 0 -98.3477 39.1299
q-39.3389 39.1299 -39.3389 97.8252q0 58.2588 40.2139 98.6934q40.2129 40.4337 98.3478 40.4337zM336.133 948.719q-34.5312 0 -58.79 -24.1299q-24.2588 -24.1289 -24.2588 -58.9111q0 -34.7832 23.8223 -58.2607q23.8213 -23.4775 58.3516 -23.4775
q34.9688 0 59.6641 23.9121q24.6963 23.9131 24.6963 57.8262q0 34.3467 -24.4766 58.6943q-24.4785 24.3466 -59.0089 24.3466zM956.133 1404.8q28.4111 0 53.9814 -10.6514q25.5703 -10.6523 44.8027 -30.6514q19.6699 -19.5645 29.9414 -44.3477
q10.2715 -24.7822 10.2715 -53.4766q0 -57.3906 -40.6494 -97.1729q-40.6504 -39.7822 -99.2227 -39.7822q-59.0078 0 -98.3477 39.1299q-39.3389 39.1299 -39.3389 97.8252q0 58.2588 40.2139 98.6934q40.2129 40.4337 98.3478 40.4337zM956.133 1348.72
q-34.5312 0 -58.79 -24.1299q-24.2588 -24.1289 -24.2588 -58.9111q0 -34.7832 23.8223 -58.2607q23.8213 -23.4775 58.3516 -23.4775q34.9688 0 59.6641 23.9121q24.6963 23.9131 24.6963 57.8262q0 34.3467 -24.4766 58.6943q-24.4785 24.3466 -59.0089 24.3466z
M336.133 1404.8q28.4111 0 53.9814 -10.6514q25.5703 -10.6523 44.8027 -30.6514q19.6699 -19.5645 29.9414 -44.3477q10.2715 -24.7822 10.2715 -53.4766q0 -57.3906 -40.6494 -97.1729q-40.6504 -39.7822 -99.2227 -39.7822q-59.0078 0 -98.3477 39.1299
q-39.3389 39.1299 -39.3389 97.8252q0 58.2588 40.2139 98.6934q40.2129 40.4337 98.3478 40.4337zM336.133 1348.72q-34.5312 0 -58.79 -24.1299q-24.2588 -24.1289 -24.2588 -58.9111q0 -34.7832 23.8223 -58.2607q23.8213 -23.4775 58.3516 -23.4775
q34.9688 0 59.6641 23.9121q24.6963 23.9131 24.6963 57.8262q0 34.3467 -24.4766 58.6943q-24.4785 24.3466 -59.0089 24.3466zM336.133 534.805q28.4111 0 53.9814 -10.6514q25.5703 -10.6523 44.8027 -30.6514q19.6699 -19.5645 29.9414 -44.3477
q10.2715 -24.7822 10.2715 -53.4766q0 -57.3906 -40.6494 -97.1729q-40.6504 -39.7822 -99.2227 -39.7822q-59.0078 0 -98.3477 39.1299q-39.3389 39.1299 -39.3389 97.8252q0 58.2588 40.2139 98.6934q40.2129 40.4337 98.3478 40.4337z" />
    <glyph glyph-name="uni2815" unicode="&#x2815;" 
d="M956.133 1004.8q28.4111 0 53.9814 -10.6514q25.5703 -10.6523 44.8027 -30.6514q19.6699 -19.5645 29.9414 -44.3477q10.2715 -24.7822 10.2715 -53.4766q0 -57.3906 -40.6494 -97.1729q-40.6504 -39.7822 -99.2227 -39.7822q-59.0078 0 -98.3477 39.1299
q-39.3389 39.1299 -39.3389 97.8252q0 58.2588 40.2139 98.6934q40.2129 40.4337 98.3478 40.4337zM956.133 1348.72q-34.5312 0 -58.79 -24.1299q-24.2588 -24.1289 -24.2588 -58.9111q0 -34.7832 23.8223 -58.2607q23.8213 -23.4775 58.3516 -23.4775
q34.9688 0 59.6641 23.9121q24.6963 23.9131 24.6963 57.8262q0 34.3467 -24.4766 58.6943q-24.4785 24.3466 -59.0089 24.3466zM956.133 1404.8q28.4111 0 53.9814 -10.6514q25.5703 -10.6523 44.8027 -30.6514q19.6699 -19.5645 29.9414 -44.3477
q10.2715 -24.7822 10.2715 -53.4766q0 -57.3906 -40.6494 -97.1729q-40.6504 -39.7822 -99.2227 -39.7822q-59.0078 0 -98.3477 39.1299q-39.3389 39.1299 -39.3389 97.8252q0 58.2588 40.2139 98.6934q40.2129 40.4337 98.3478 40.4337zM336.133 948.719
q-34.5312 0 -58.79 -24.1299q-24.2588 -24.1289 -24.2588 -58.9111q0 -34.7832 23.8223 -58.2607q23.8213 -23.4775 58.3516 -23.4775q34.9688 0 59.6641 23.9121q24.6963 23.9131 24.6963 57.8262q0 34.3467 -24.4766 58.6943q-24.4785 24.3466 -59.0089 24.3466z
M336.133 1004.8q28.4111 0 53.9814 -10.6514q25.5703 -10.6523 44.8027 -30.6514q19.6699 -19.5645 29.9414 -44.3477q10.2715 -24.7822 10.2715 -53.4766q0 -57.3906 -40.6494 -97.1729q-40.6504 -39.7822 -99.2227 -39.7822q-59.0078 0 -98.3477 39.1299
q-39.3389 39.1299 -39.3389 97.8252q0 58.2588 40.2139 98.6934q40.2129 40.4337 98.3478 40.4337zM956.133 478.719q-34.5312 0 -58.79 -24.1299q-24.2588 -24.1289 -24.2588 -58.9111q0 -34.7832 23.8223 -58.2607q23.8213 -23.4775 58.3516 -23.4775
q34.9688 0 59.6641 23.9121q24.6963 23.9131 24.6963 57.8262q0 34.3467 -24.4766 58.6943q-24.4785 24.3466 -59.0089 24.3466zM956.133 534.805q28.4111 0 53.9814 -10.6514q25.5703 -10.6523 44.8027 -30.6514q19.6699 -19.5645 29.9414 -44.3477
q10.2715 -24.7822 10.2715 -53.4766q0 -57.3906 -40.6494 -97.1729q-40.6504 -39.7822 -99.2227 -39.7822q-59.0078 0 -98.3477 39.1299q-39.3389 39.1299 -39.3389 97.8252q0 58.2588 40.2139 98.6934q40.2129 40.4337 98.3478 40.4337zM336.133 1404.8
q28.4111 0 53.9814 -10.6514q25.5703 -10.6523 44.8027 -30.6514q19.6699 -19.5645 29.9414 -44.3477q10.2715 -24.7822 10.2715 -53.4766q0 -57.3906 -40.6494 -97.1729q-40.6504 -39.7822 -99.2227 -39.7822q-59.0078 0 -98.3477 39.1299
q-39.3389 39.1299 -39.3389 97.8252q0 58.2588 40.2139 98.6934q40.2129 40.4337 98.3478 40.4337zM336.133 534.805q28.4111 0 53.9814 -10.6514q25.5703 -10.6523 44.8027 -30.6514q19.6699 -19.5645 29.9414 -44.3477q10.2715 -24.7822 10.2715 -53.4766
q0 -57.3906 -40.6494 -97.1729q-40.6504 -39.7822 -99.2227 -39.7822q-59.0078 0 -98.3477 39.1299q-39.3389 39.1299 -39.3389 97.8252q0 58.2588 40.2139 98.6934q40.2129 40.4337 98.3478 40.4337z" />
    <glyph glyph-name="uni2816" unicode="&#x2816;" 
d="M336.133 1348.72q-34.5312 0 -58.79 -24.1299q-24.2588 -24.1289 -24.2588 -58.9111q0 -34.7832 23.8223 -58.2607q23.8213 -23.4775 58.3516 -23.4775q34.9688 0 59.6641 23.9121q24.6963 23.9131 24.6963 57.8262q0 34.3467 -24.4766 58.6943
q-24.4785 24.3466 -59.0089 24.3466zM336.133 1404.8q28.4111 0 53.9814 -10.6514q25.5703 -10.6523 44.8027 -30.6514q19.6699 -19.5645 29.9414 -44.3477q10.2715 -24.7822 10.2715 -53.4766q0 -57.3906 -40.6494 -97.1729q-40.6504 -39.7822 -99.2227 -39.7822
q-59.0078 0 -98.3477 39.1299q-39.3389 39.1299 -39.3389 97.8252q0 58.2588 40.2139 98.6934q40.2129 40.4337 98.3478 40.4337zM336.133 1004.8q28.4111 0 53.9814 -10.6514q25.5703 -10.6523 44.8027 -30.6514q19.6699 -19.5645 29.9414 -44.3477
q10.2715 -24.7822 10.2715 -53.4766q0 -57.3906 -40.6494 -97.1729q-40.6504 -39.7822 -99.2227 -39.7822q-59.0078 0 -98.3477 39.1299q-39.3389 39.1299 -39.3389 97.8252q0 58.2588 40.2139 98.6934q40.2129 40.4337 98.3478 40.4337zM956.133 1004.8
q28.4111 0 53.9814 -10.6514q25.5703 -10.6523 44.8027 -30.6514q19.6699 -19.5645 29.9414 -44.3477q10.2715 -24.7822 10.2715 -53.4766q0 -57.3906 -40.6494 -97.1729q-40.6504 -39.7822 -99.2227 -39.7822q-59.0078 0 -98.3477 39.1299
q-39.3389 39.1299 -39.3389 97.8252q0 58.2588 40.2139 98.6934q40.2129 40.4337 98.3478 40.4337zM956.133 1348.72q-34.5312 0 -58.79 -24.1299q-24.2588 -24.1289 -24.2588 -58.9111q0 -34.7832 23.8223 -58.2607q23.8213 -23.4775 58.3516 -23.4775
q34.9688 0 59.6641 23.9121q24.6963 23.9131 24.6963 57.8262q0 34.3467 -24.4766 58.6943q-24.4785 24.3466 -59.0089 24.3466zM956.133 1404.8q28.4111 0 53.9814 -10.6514q25.5703 -10.6523 44.8027 -30.6514q19.6699 -19.5645 29.9414 -44.3477
q10.2715 -24.7822 10.2715 -53.4766q0 -57.3906 -40.6494 -97.1729q-40.6504 -39.7822 -99.2227 -39.7822q-59.0078 0 -98.3477 39.1299q-39.3389 39.1299 -39.3389 97.8252q0 58.2588 40.2139 98.6934q40.2129 40.4337 98.3478 40.4337zM956.133 478.719
q-34.5312 0 -58.79 -24.1299q-24.2588 -24.1289 -24.2588 -58.9111q0 -34.7832 23.8223 -58.2607q23.8213 -23.4775 58.3516 -23.4775q34.9688 0 59.6641 23.9121q24.6963 23.9131 24.6963 57.8262q0 34.3467 -24.4766 58.6943q-24.4785 24.3466 -59.0089 24.3466z
M956.133 534.805q28.4111 0 53.9814 -10.6514q25.5703 -10.6523 44.8027 -30.6514q19.6699 -19.5645 29.9414 -44.3477q10.2715 -24.7822 10.2715 -53.4766q0 -57.3906 -40.6494 -97.1729q-40.6504 -39.7822 -99.2227 -39.7822q-59.0078 0 -98.3477 39.1299
q-39.3389 39.1299 -39.3389 97.8252q0 58.2588 40.2139 98.6934q40.2129 40.4337 98.3478 40.4337zM336.133 534.805q28.4111 0 53.9814 -10.6514q25.5703 -10.6523 44.8027 -30.6514q19.6699 -19.5645 29.9414 -44.3477q10.2715 -24.7822 10.2715 -53.4766
q0 -57.3906 -40.6494 -97.1729q-40.6504 -39.7822 -99.2227 -39.7822q-59.0078 0 -98.3477 39.1299q-39.3389 39.1299 -39.3389 97.8252q0 58.2588 40.2139 98.6934q40.2129 40.4337 98.3478 40.4337z" />
    <glyph glyph-name="uni2817" unicode="&#x2817;" 
d="M336.133 534.805q28.4111 0 53.9814 -10.6514q25.5703 -10.6523 44.8027 -30.6514q19.6699 -19.5645 29.9414 -44.3477q10.2715 -24.7822 10.2715 -53.4766q0 -57.3906 -40.6494 -97.1729q-40.6504 -39.7822 -99.2227 -39.7822q-59.0078 0 -98.3477 39.1299
q-39.3389 39.1299 -39.3389 97.8252q0 58.2588 40.2139 98.6934q40.2129 40.4337 98.3478 40.4337zM336.133 1004.8q28.4111 0 53.9814 -10.6514q25.5703 -10.6523 44.8027 -30.6514q19.6699 -19.5645 29.9414 -44.3477q10.2715 -24.7822 10.2715 -53.4766
q0 -57.3906 -40.6494 -97.1729q-40.6504 -39.7822 -99.2227 -39.7822q-59.0078 0 -98.3477 39.1299q-39.3389 39.1299 -39.3389 97.8252q0 58.2588 40.2139 98.6934q40.2129 40.4337 98.3478 40.4337zM336.133 1404.8q28.4111 0 53.9814 -10.6514
q25.5703 -10.6523 44.8027 -30.6514q19.6699 -19.5645 29.9414 -44.3477q10.2715 -24.7822 10.2715 -53.4766q0 -57.3906 -40.6494 -97.1729q-40.6504 -39.7822 -99.2227 -39.7822q-59.0078 0 -98.3477 39.1299q-39.3389 39.1299 -39.3389 97.8252
q0 58.2588 40.2139 98.6934q40.2129 40.4337 98.3478 40.4337zM956.133 534.805q28.4111 0 53.9814 -10.6514q25.5703 -10.6523 44.8027 -30.6514q19.6699 -19.5645 29.9414 -44.3477q10.2715 -24.7822 10.2715 -53.4766q0 -57.3906 -40.6494 -97.1729
q-40.6504 -39.7822 -99.2227 -39.7822q-59.0078 0 -98.3477 39.1299q-39.3389 39.1299 -39.3389 97.8252q0 58.2588 40.2139 98.6934q40.2129 40.4337 98.3478 40.4337zM956.133 478.719q-34.5312 0 -58.79 -24.1299q-24.2588 -24.1289 -24.2588 -58.9111
q0 -34.7832 23.8223 -58.2607q23.8213 -23.4775 58.3516 -23.4775q34.9688 0 59.6641 23.9121q24.6963 23.9131 24.6963 57.8262q0 34.3467 -24.4766 58.6943q-24.4785 24.3466 -59.0089 24.3466zM956.133 1404.8q28.4111 0 53.9814 -10.6514
q25.5703 -10.6523 44.8027 -30.6514q19.6699 -19.5645 29.9414 -44.3477q10.2715 -24.7822 10.2715 -53.4766q0 -57.3906 -40.6494 -97.1729q-40.6504 -39.7822 -99.2227 -39.7822q-59.0078 0 -98.3477 39.1299q-39.3389 39.1299 -39.3389 97.8252
q0 58.2588 40.2139 98.6934q40.2129 40.4337 98.3478 40.4337zM956.133 1348.72q-34.5312 0 -58.79 -24.1299q-24.2588 -24.1289 -24.2588 -58.9111q0 -34.7832 23.8223 -58.2607q23.8213 -23.4775 58.3516 -23.4775q34.9688 0 59.6641 23.9121
q24.6963 23.9131 24.6963 57.8262q0 34.3467 -24.4766 58.6943q-24.4785 24.3466 -59.0089 24.3466zM956.133 1004.8q28.4111 0 53.9814 -10.6514q25.5703 -10.6523 44.8027 -30.6514q19.6699 -19.5645 29.9414 -44.3477q10.2715 -24.7822 10.2715 -53.4766
q0 -57.3906 -40.6494 -97.1729q-40.6504 -39.7822 -99.2227 -39.7822q-59.0078 0 -98.3477 39.1299q-39.3389 39.1299 -39.3389 97.8252q0 58.2588 40.2139 98.6934q40.2129 40.4337 98.3478 40.4337z" />
    <glyph glyph-name="uni2818" unicode="&#x2818;" 
d="M336.133 1348.72q-34.5312 0 -58.79 -24.1299q-24.2588 -24.1289 -24.2588 -58.9111q0 -34.7832 23.8223 -58.2607q23.8213 -23.4775 58.3516 -23.4775q34.9688 0 59.6641 23.9121q24.6963 23.9131 24.6963 57.8262q0 34.3467 -24.4766 58.6943
q-24.4785 24.3466 -59.0089 24.3466zM336.133 1404.8q28.4111 0 53.9814 -10.6514q25.5703 -10.6523 44.8027 -30.6514q19.6699 -19.5645 29.9414 -44.3477q10.2715 -24.7822 10.2715 -53.4766q0 -57.3906 -40.6494 -97.1729q-40.6504 -39.7822 -99.2227 -39.7822
q-59.0078 0 -98.3477 39.1299q-39.3389 39.1299 -39.3389 97.8252q0 58.2588 40.2139 98.6934q40.2129 40.4337 98.3478 40.4337zM336.133 948.719q-34.5312 0 -58.79 -24.1299q-24.2588 -24.1289 -24.2588 -58.9111q0 -34.7832 23.8223 -58.2607
q23.8213 -23.4775 58.3516 -23.4775q34.9688 0 59.6641 23.9121q24.6963 23.9131 24.6963 57.8262q0 34.3467 -24.4766 58.6943q-24.4785 24.3466 -59.0089 24.3466zM336.133 1004.8q28.4111 0 53.9814 -10.6514q25.5703 -10.6523 44.8027 -30.6514
q19.6699 -19.5645 29.9414 -44.3477q10.2715 -24.7822 10.2715 -53.4766q0 -57.3906 -40.6494 -97.1729q-40.6504 -39.7822 -99.2227 -39.7822q-59.0078 0 -98.3477 39.1299q-39.3389 39.1299 -39.3389 97.8252q0 58.2588 40.2139 98.6934q40.2129 40.4337 98.3478 40.4337z
M336.133 478.719q-34.5312 0 -58.79 -24.1299q-24.2588 -24.1289 -24.2588 -58.9111q0 -34.7832 23.8223 -58.2607q23.8213 -23.4775 58.3516 -23.4775q34.9688 0 59.6641 23.9121q24.6963 23.9131 24.6963 57.8262q0 34.3467 -24.4766 58.6943
q-24.4785 24.3466 -59.0089 24.3466zM336.133 534.805q28.4111 0 53.9814 -10.6514q25.5703 -10.6523 44.8027 -30.6514q19.6699 -19.5645 29.9414 -44.3477q10.2715 -24.7822 10.2715 -53.4766q0 -57.3906 -40.6494 -97.1729q-40.6504 -39.7822 -99.2227 -39.7822
q-59.0078 0 -98.3477 39.1299q-39.3389 39.1299 -39.3389 97.8252q0 58.2588 40.2139 98.6934q40.2129 40.4337 98.3478 40.4337zM956.133 478.719q-34.5312 0 -58.79 -24.1299q-24.2588 -24.1289 -24.2588 -58.9111q0 -34.7832 23.8223 -58.2607
q23.8213 -23.4775 58.3516 -23.4775q34.9688 0 59.6641 23.9121q24.6963 23.9131 24.6963 57.8262q0 34.3467 -24.4766 58.6943q-24.4785 24.3466 -59.0089 24.3466zM956.133 534.805q28.4111 0 53.9814 -10.6514q25.5703 -10.6523 44.8027 -30.6514
q19.6699 -19.5645 29.9414 -44.3477q10.2715 -24.7822 10.2715 -53.4766q0 -57.3906 -40.6494 -97.1729q-40.6504 -39.7822 -99.2227 -39.7822q-59.0078 0 -98.3477 39.1299q-39.3389 39.1299 -39.3389 97.8252q0 58.2588 40.2139 98.6934q40.2129 40.4337 98.3478 40.4337z
M956.133 1404.8q28.4111 0 53.9814 -10.6514q25.5703 -10.6523 44.8027 -30.6514q19.6699 -19.5645 29.9414 -44.3477q10.2715 -24.7822 10.2715 -53.4766q0 -57.3906 -40.6494 -97.1729q-40.6504 -39.7822 -99.2227 -39.7822q-59.0078 0 -98.3477 39.1299
q-39.3389 39.1299 -39.3389 97.8252q0 58.2588 40.2139 98.6934q40.2129 40.4337 98.3478 40.4337zM956.133 1004.8q28.4111 0 53.9814 -10.6514q25.5703 -10.6523 44.8027 -30.6514q19.6699 -19.5645 29.9414 -44.3477q10.2715 -24.7822 10.2715 -53.4766
q0 -57.3906 -40.6494 -97.1729q-40.6504 -39.7822 -99.2227 -39.7822q-59.0078 0 -98.3477 39.1299q-39.3389 39.1299 -39.3389 97.8252q0 58.2588 40.2139 98.6934q40.2129 40.4337 98.3478 40.4337z" />
    <glyph glyph-name="uni2819" unicode="&#x2819;" 
d="M956.133 1404.8q28.4111 0 53.9814 -10.6514q25.5703 -10.6523 44.8027 -30.6514q19.6699 -19.5645 29.9414 -44.3477q10.2715 -24.7822 10.2715 -53.4766q0 -57.3906 -40.6494 -97.1729q-40.6504 -39.7822 -99.2227 -39.7822q-59.0078 0 -98.3477 39.1299
q-39.3389 39.1299 -39.3389 97.8252q0 58.2588 40.2139 98.6934q40.2129 40.4337 98.3478 40.4337zM336.133 1404.8q28.4111 0 53.9814 -10.6514q25.5703 -10.6523 44.8027 -30.6514q19.6699 -19.5645 29.9414 -44.3477q10.2715 -24.7822 10.2715 -53.4766
q0 -57.3906 -40.6494 -97.1729q-40.6504 -39.7822 -99.2227 -39.7822q-59.0078 0 -98.3477 39.1299q-39.3389 39.1299 -39.3389 97.8252q0 58.2588 40.2139 98.6934q40.2129 40.4337 98.3478 40.4337zM956.133 534.805q28.4111 0 53.9814 -10.6514
q25.5703 -10.6523 44.8027 -30.6514q19.6699 -19.5645 29.9414 -44.3477q10.2715 -24.7822 10.2715 -53.4766q0 -57.3906 -40.6494 -97.1729q-40.6504 -39.7822 -99.2227 -39.7822q-59.0078 0 -98.3477 39.1299q-39.3389 39.1299 -39.3389 97.8252
q0 58.2588 40.2139 98.6934q40.2129 40.4337 98.3478 40.4337zM956.133 478.719q-34.5312 0 -58.79 -24.1299q-24.2588 -24.1289 -24.2588 -58.9111q0 -34.7832 23.8223 -58.2607q23.8213 -23.4775 58.3516 -23.4775q34.9688 0 59.6641 23.9121
q24.6963 23.9131 24.6963 57.8262q0 34.3467 -24.4766 58.6943q-24.4785 24.3466 -59.0089 24.3466zM336.133 534.805q28.4111 0 53.9814 -10.6514q25.5703 -10.6523 44.8027 -30.6514q19.6699 -19.5645 29.9414 -44.3477q10.2715 -24.7822 10.2715 -53.4766
q0 -57.3906 -40.6494 -97.1729q-40.6504 -39.7822 -99.2227 -39.7822q-59.0078 0 -98.3477 39.1299q-39.3389 39.1299 -39.3389 97.8252q0 58.2588 40.2139 98.6934q40.2129 40.4337 98.3478 40.4337zM336.133 478.719q-34.5312 0 -58.79 -24.1299
q-24.2588 -24.1289 -24.2588 -58.9111q0 -34.7832 23.8223 -58.2607q23.8213 -23.4775 58.3516 -23.4775q34.9688 0 59.6641 23.9121q24.6963 23.9131 24.6963 57.8262q0 34.3467 -24.4766 58.6943q-24.4785 24.3466 -59.0089 24.3466zM336.133 1004.8
q28.4111 0 53.9814 -10.6514q25.5703 -10.6523 44.8027 -30.6514q19.6699 -19.5645 29.9414 -44.3477q10.2715 -24.7822 10.2715 -53.4766q0 -57.3906 -40.6494 -97.1729q-40.6504 -39.7822 -99.2227 -39.7822q-59.0078 0 -98.3477 39.1299
q-39.3389 39.1299 -39.3389 97.8252q0 58.2588 40.2139 98.6934q40.2129 40.4337 98.3478 40.4337zM336.133 948.719q-34.5312 0 -58.79 -24.1299q-24.2588 -24.1289 -24.2588 -58.9111q0 -34.7832 23.8223 -58.2607q23.8213 -23.4775 58.3516 -23.4775
q34.9688 0 59.6641 23.9121q24.6963 23.9131 24.6963 57.8262q0 34.3467 -24.4766 58.6943q-24.4785 24.3466 -59.0089 24.3466zM956.133 1004.8q28.4111 0 53.9814 -10.6514q25.5703 -10.6523 44.8027 -30.6514q19.6699 -19.5645 29.9414 -44.3477
q10.2715 -24.7822 10.2715 -53.4766q0 -57.3906 -40.6494 -97.1729q-40.6504 -39.7822 -99.2227 -39.7822q-59.0078 0 -98.3477 39.1299q-39.3389 39.1299 -39.3389 97.8252q0 58.2588 40.2139 98.6934q40.2129 40.4337 98.3478 40.4337z" />
    <glyph glyph-name="uni281A" unicode="&#x281a;" 
d="M956.133 1004.8q28.4111 0 53.9814 -10.6514q25.5703 -10.6523 44.8027 -30.6514q19.6699 -19.5645 29.9414 -44.3477q10.2715 -24.7822 10.2715 -53.4766q0 -57.3906 -40.6494 -97.1729q-40.6504 -39.7822 -99.2227 -39.7822q-59.0078 0 -98.3477 39.1299
q-39.3389 39.1299 -39.3389 97.8252q0 58.2588 40.2139 98.6934q40.2129 40.4337 98.3478 40.4337zM956.133 1404.8q28.4111 0 53.9814 -10.6514q25.5703 -10.6523 44.8027 -30.6514q19.6699 -19.5645 29.9414 -44.3477q10.2715 -24.7822 10.2715 -53.4766
q0 -57.3906 -40.6494 -97.1729q-40.6504 -39.7822 -99.2227 -39.7822q-59.0078 0 -98.3477 39.1299q-39.3389 39.1299 -39.3389 97.8252q0 58.2588 40.2139 98.6934q40.2129 40.4337 98.3478 40.4337zM956.133 534.805q28.4111 0 53.9814 -10.6514
q25.5703 -10.6523 44.8027 -30.6514q19.6699 -19.5645 29.9414 -44.3477q10.2715 -24.7822 10.2715 -53.4766q0 -57.3906 -40.6494 -97.1729q-40.6504 -39.7822 -99.2227 -39.7822q-59.0078 0 -98.3477 39.1299q-39.3389 39.1299 -39.3389 97.8252
q0 58.2588 40.2139 98.6934q40.2129 40.4337 98.3478 40.4337zM956.133 478.719q-34.5312 0 -58.79 -24.1299q-24.2588 -24.1289 -24.2588 -58.9111q0 -34.7832 23.8223 -58.2607q23.8213 -23.4775 58.3516 -23.4775q34.9688 0 59.6641 23.9121
q24.6963 23.9131 24.6963 57.8262q0 34.3467 -24.4766 58.6943q-24.4785 24.3466 -59.0089 24.3466zM336.133 534.805q28.4111 0 53.9814 -10.6514q25.5703 -10.6523 44.8027 -30.6514q19.6699 -19.5645 29.9414 -44.3477q10.2715 -24.7822 10.2715 -53.4766
q0 -57.3906 -40.6494 -97.1729q-40.6504 -39.7822 -99.2227 -39.7822q-59.0078 0 -98.3477 39.1299q-39.3389 39.1299 -39.3389 97.8252q0 58.2588 40.2139 98.6934q40.2129 40.4337 98.3478 40.4337zM336.133 478.719q-34.5312 0 -58.79 -24.1299
q-24.2588 -24.1289 -24.2588 -58.9111q0 -34.7832 23.8223 -58.2607q23.8213 -23.4775 58.3516 -23.4775q34.9688 0 59.6641 23.9121q24.6963 23.9131 24.6963 57.8262q0 34.3467 -24.4766 58.6943q-24.4785 24.3466 -59.0089 24.3466zM336.133 1404.8
q28.4111 0 53.9814 -10.6514q25.5703 -10.6523 44.8027 -30.6514q19.6699 -19.5645 29.9414 -44.3477q10.2715 -24.7822 10.2715 -53.4766q0 -57.3906 -40.6494 -97.1729q-40.6504 -39.7822 -99.2227 -39.7822q-59.0078 0 -98.3477 39.1299
q-39.3389 39.1299 -39.3389 97.8252q0 58.2588 40.2139 98.6934q40.2129 40.4337 98.3478 40.4337zM336.133 1348.72q-34.5312 0 -58.79 -24.1299q-24.2588 -24.1289 -24.2588 -58.9111q0 -34.7832 23.8223 -58.2607q23.8213 -23.4775 58.3516 -23.4775
q34.9688 0 59.6641 23.9121q24.6963 23.9131 24.6963 57.8262q0 34.3467 -24.4766 58.6943q-24.4785 24.3466 -59.0089 24.3466zM336.133 1004.8q28.4111 0 53.9814 -10.6514q25.5703 -10.6523 44.8027 -30.6514q19.6699 -19.5645 29.9414 -44.3477
q10.2715 -24.7822 10.2715 -53.4766q0 -57.3906 -40.6494 -97.1729q-40.6504 -39.7822 -99.2227 -39.7822q-59.0078 0 -98.3477 39.1299q-39.3389 39.1299 -39.3389 97.8252q0 58.2588 40.2139 98.6934q40.2129 40.4337 98.3478 40.4337z" />
    <glyph glyph-name="uni281B" unicode="&#x281b;" 
d="M336.133 478.719q-34.5312 0 -58.79 -24.1299q-24.2588 -24.1289 -24.2588 -58.9111q0 -34.7832 23.8223 -58.2607q23.8213 -23.4775 58.3516 -23.4775q34.9688 0 59.6641 23.9121q24.6963 23.9131 24.6963 57.8262q0 34.3467 -24.4766 58.6943
q-24.4785 24.3466 -59.0089 24.3466zM336.133 534.805q28.4111 0 53.9814 -10.6514q25.5703 -10.6523 44.8027 -30.6514q19.6699 -19.5645 29.9414 -44.3477q10.2715 -24.7822 10.2715 -53.4766q0 -57.3906 -40.6494 -97.1729q-40.6504 -39.7822 -99.2227 -39.7822
q-59.0078 0 -98.3477 39.1299q-39.3389 39.1299 -39.3389 97.8252q0 58.2588 40.2139 98.6934q40.2129 40.4337 98.3478 40.4337zM956.133 478.719q-34.5312 0 -58.79 -24.1299q-24.2588 -24.1289 -24.2588 -58.9111q0 -34.7832 23.8223 -58.2607
q23.8213 -23.4775 58.3516 -23.4775q34.9688 0 59.6641 23.9121q24.6963 23.9131 24.6963 57.8262q0 34.3467 -24.4766 58.6943q-24.4785 24.3466 -59.0089 24.3466zM956.133 534.805q28.4111 0 53.9814 -10.6514q25.5703 -10.6523 44.8027 -30.6514
q19.6699 -19.5645 29.9414 -44.3477q10.2715 -24.7822 10.2715 -53.4766q0 -57.3906 -40.6494 -97.1729q-40.6504 -39.7822 -99.2227 -39.7822q-59.0078 0 -98.3477 39.1299q-39.3389 39.1299 -39.3389 97.8252q0 58.2588 40.2139 98.6934q40.2129 40.4337 98.3478 40.4337z
M336.133 1404.8q28.4111 0 53.9814 -10.6514q25.5703 -10.6523 44.8027 -30.6514q19.6699 -19.5645 29.9414 -44.3477q10.2715 -24.7822 10.2715 -53.4766q0 -57.3906 -40.6494 -97.1729q-40.6504 -39.7822 -99.2227 -39.7822q-59.0078 0 -98.3477 39.1299
q-39.3389 39.1299 -39.3389 97.8252q0 58.2588 40.2139 98.6934q40.2129 40.4337 98.3478 40.4337zM956.133 1404.8q28.4111 0 53.9814 -10.6514q25.5703 -10.6523 44.8027 -30.6514q19.6699 -19.5645 29.9414 -44.3477q10.2715 -24.7822 10.2715 -53.4766
q0 -57.3906 -40.6494 -97.1729q-40.6504 -39.7822 -99.2227 -39.7822q-59.0078 0 -98.3477 39.1299q-39.3389 39.1299 -39.3389 97.8252q0 58.2588 40.2139 98.6934q40.2129 40.4337 98.3478 40.4337zM336.133 1004.8q28.4111 0 53.9814 -10.6514
q25.5703 -10.6523 44.8027 -30.6514q19.6699 -19.5645 29.9414 -44.3477q10.2715 -24.7822 10.2715 -53.4766q0 -57.3906 -40.6494 -97.1729q-40.6504 -39.7822 -99.2227 -39.7822q-59.0078 0 -98.3477 39.1299q-39.3389 39.1299 -39.3389 97.8252
q0 58.2588 40.2139 98.6934q40.2129 40.4337 98.3478 40.4337zM956.133 1004.8q28.4111 0 53.9814 -10.6514q25.5703 -10.6523 44.8027 -30.6514q19.6699 -19.5645 29.9414 -44.3477q10.2715 -24.7822 10.2715 -53.4766q0 -57.3906 -40.6494 -97.1729
q-40.6504 -39.7822 -99.2227 -39.7822q-59.0078 0 -98.3477 39.1299q-39.3389 39.1299 -39.3389 97.8252q0 58.2588 40.2139 98.6934q40.2129 40.4337 98.3478 40.4337z" />
    <glyph glyph-name="uni281C" unicode="&#x281c;" 
d="M956.133 1004.8q28.4111 0 53.9814 -10.6514q25.5703 -10.6523 44.8027 -30.6514q19.6699 -19.5645 29.9414 -44.3477q10.2715 -24.7822 10.2715 -53.4766q0 -57.3906 -40.6494 -97.1729q-40.6504 -39.7822 -99.2227 -39.7822q-59.0078 0 -98.3477 39.1299
q-39.3389 39.1299 -39.3389 97.8252q0 58.2588 40.2139 98.6934q40.2129 40.4337 98.3478 40.4337zM956.133 1404.8q28.4111 0 53.9814 -10.6514q25.5703 -10.6523 44.8027 -30.6514q19.6699 -19.5645 29.9414 -44.3477q10.2715 -24.7822 10.2715 -53.4766
q0 -57.3906 -40.6494 -97.1729q-40.6504 -39.7822 -99.2227 -39.7822q-59.0078 0 -98.3477 39.1299q-39.3389 39.1299 -39.3389 97.8252q0 58.2588 40.2139 98.6934q40.2129 40.4337 98.3478 40.4337zM956.133 534.805q28.4111 0 53.9814 -10.6514
q25.5703 -10.6523 44.8027 -30.6514q19.6699 -19.5645 29.9414 -44.3477q10.2715 -24.7822 10.2715 -53.4766q0 -57.3906 -40.6494 -97.1729q-40.6504 -39.7822 -99.2227 -39.7822q-59.0078 0 -98.3477 39.1299q-39.3389 39.1299 -39.3389 97.8252
q0 58.2588 40.2139 98.6934q40.2129 40.4337 98.3478 40.4337zM956.133 478.719q-34.5312 0 -58.79 -24.1299q-24.2588 -24.1289 -24.2588 -58.9111q0 -34.7832 23.8223 -58.2607q23.8213 -23.4775 58.3516 -23.4775q34.9688 0 59.6641 23.9121
q24.6963 23.9131 24.6963 57.8262q0 34.3467 -24.4766 58.6943q-24.4785 24.3466 -59.0089 24.3466zM336.133 1004.8q28.4111 0 53.9814 -10.6514q25.5703 -10.6523 44.8027 -30.6514q19.6699 -19.5645 29.9414 -44.3477q10.2715 -24.7822 10.2715 -53.4766
q0 -57.3906 -40.6494 -97.1729q-40.6504 -39.7822 -99.2227 -39.7822q-59.0078 0 -98.3477 39.1299q-39.3389 39.1299 -39.3389 97.8252q0 58.2588 40.2139 98.6934q40.2129 40.4337 98.3478 40.4337zM336.133 948.719q-34.5312 0 -58.79 -24.1299
q-24.2588 -24.1289 -24.2588 -58.9111q0 -34.7832 23.8223 -58.2607q23.8213 -23.4775 58.3516 -23.4775q34.9688 0 59.6641 23.9121q24.6963 23.9131 24.6963 57.8262q0 34.3467 -24.4766 58.6943q-24.4785 24.3466 -59.0089 24.3466zM336.133 1404.8
q28.4111 0 53.9814 -10.6514q25.5703 -10.6523 44.8027 -30.6514q19.6699 -19.5645 29.9414 -44.3477q10.2715 -24.7822 10.2715 -53.4766q0 -57.3906 -40.6494 -97.1729q-40.6504 -39.7822 -99.2227 -39.7822q-59.0078 0 -98.3477 39.1299
q-39.3389 39.1299 -39.3389 97.8252q0 58.2588 40.2139 98.6934q40.2129 40.4337 98.3478 40.4337zM336.133 1348.72q-34.5312 0 -58.79 -24.1299q-24.2588 -24.1289 -24.2588 -58.9111q0 -34.7832 23.8223 -58.2607q23.8213 -23.4775 58.3516 -23.4775
q34.9688 0 59.6641 23.9121q24.6963 23.9131 24.6963 57.8262q0 34.3467 -24.4766 58.6943q-24.4785 24.3466 -59.0089 24.3466zM336.133 534.805q28.4111 0 53.9814 -10.6514q25.5703 -10.6523 44.8027 -30.6514q19.6699 -19.5645 29.9414 -44.3477
q10.2715 -24.7822 10.2715 -53.4766q0 -57.3906 -40.6494 -97.1729q-40.6504 -39.7822 -99.2227 -39.7822q-59.0078 0 -98.3477 39.1299q-39.3389 39.1299 -39.3389 97.8252q0 58.2588 40.2139 98.6934q40.2129 40.4337 98.3478 40.4337z" />
    <glyph glyph-name="uni281D" unicode="&#x281d;" 
d="M956.133 1004.8q28.4111 0 53.9814 -10.6514q25.5703 -10.6523 44.8027 -30.6514q19.6699 -19.5645 29.9414 -44.3477q10.2715 -24.7822 10.2715 -53.4766q0 -57.3906 -40.6494 -97.1729q-40.6504 -39.7822 -99.2227 -39.7822q-59.0078 0 -98.3477 39.1299
q-39.3389 39.1299 -39.3389 97.8252q0 58.2588 40.2139 98.6934q40.2129 40.4337 98.3478 40.4337zM336.133 948.719q-34.5312 0 -58.79 -24.1299q-24.2588 -24.1289 -24.2588 -58.9111q0 -34.7832 23.8223 -58.2607q23.8213 -23.4775 58.3516 -23.4775
q34.9688 0 59.6641 23.9121q24.6963 23.9131 24.6963 57.8262q0 34.3467 -24.4766 58.6943q-24.4785 24.3466 -59.0089 24.3466zM336.133 1004.8q28.4111 0 53.9814 -10.6514q25.5703 -10.6523 44.8027 -30.6514q19.6699 -19.5645 29.9414 -44.3477
q10.2715 -24.7822 10.2715 -53.4766q0 -57.3906 -40.6494 -97.1729q-40.6504 -39.7822 -99.2227 -39.7822q-59.0078 0 -98.3477 39.1299q-39.3389 39.1299 -39.3389 97.8252q0 58.2588 40.2139 98.6934q40.2129 40.4337 98.3478 40.4337zM956.133 478.719
q-34.5312 0 -58.79 -24.1299q-24.2588 -24.1289 -24.2588 -58.9111q0 -34.7832 23.8223 -58.2607q23.8213 -23.4775 58.3516 -23.4775q34.9688 0 59.6641 23.9121q24.6963 23.9131 24.6963 57.8262q0 34.3467 -24.4766 58.6943q-24.4785 24.3466 -59.0089 24.3466z
M956.133 534.805q28.4111 0 53.9814 -10.6514q25.5703 -10.6523 44.8027 -30.6514q19.6699 -19.5645 29.9414 -44.3477q10.2715 -24.7822 10.2715 -53.4766q0 -57.3906 -40.6494 -97.1729q-40.6504 -39.7822 -99.2227 -39.7822q-59.0078 0 -98.3477 39.1299
q-39.3389 39.1299 -39.3389 97.8252q0 58.2588 40.2139 98.6934q40.2129 40.4337 98.3478 40.4337zM336.133 1404.8q28.4111 0 53.9814 -10.6514q25.5703 -10.6523 44.8027 -30.6514q19.6699 -19.5645 29.9414 -44.3477q10.2715 -24.7822 10.2715 -53.4766
q0 -57.3906 -40.6494 -97.1729q-40.6504 -39.7822 -99.2227 -39.7822q-59.0078 0 -98.3477 39.1299q-39.3389 39.1299 -39.3389 97.8252q0 58.2588 40.2139 98.6934q40.2129 40.4337 98.3478 40.4337zM956.133 1404.8q28.4111 0 53.9814 -10.6514
q25.5703 -10.6523 44.8027 -30.6514q19.6699 -19.5645 29.9414 -44.3477q10.2715 -24.7822 10.2715 -53.4766q0 -57.3906 -40.6494 -97.1729q-40.6504 -39.7822 -99.2227 -39.7822q-59.0078 0 -98.3477 39.1299q-39.3389 39.1299 -39.3389 97.8252
q0 58.2588 40.2139 98.6934q40.2129 40.4337 98.3478 40.4337zM336.133 534.805q28.4111 0 53.9814 -10.6514q25.5703 -10.6523 44.8027 -30.6514q19.6699 -19.5645 29.9414 -44.3477q10.2715 -24.7822 10.2715 -53.4766q0 -57.3906 -40.6494 -97.1729
q-40.6504 -39.7822 -99.2227 -39.7822q-59.0078 0 -98.3477 39.1299q-39.3389 39.1299 -39.3389 97.8252q0 58.2588 40.2139 98.6934q40.2129 40.4337 98.3478 40.4337z" />
    <glyph glyph-name="uni281E" unicode="&#x281e;" 
d="M956.133 1004.8q28.4111 0 53.9814 -10.6514q25.5703 -10.6523 44.8027 -30.6514q19.6699 -19.5645 29.9414 -44.3477q10.2715 -24.7822 10.2715 -53.4766q0 -57.3906 -40.6494 -97.1729q-40.6504 -39.7822 -99.2227 -39.7822q-59.0078 0 -98.3477 39.1299
q-39.3389 39.1299 -39.3389 97.8252q0 58.2588 40.2139 98.6934q40.2129 40.4337 98.3478 40.4337zM956.133 1404.8q28.4111 0 53.9814 -10.6514q25.5703 -10.6523 44.8027 -30.6514q19.6699 -19.5645 29.9414 -44.3477q10.2715 -24.7822 10.2715 -53.4766
q0 -57.3906 -40.6494 -97.1729q-40.6504 -39.7822 -99.2227 -39.7822q-59.0078 0 -98.3477 39.1299q-39.3389 39.1299 -39.3389 97.8252q0 58.2588 40.2139 98.6934q40.2129 40.4337 98.3478 40.4337zM956.133 534.805q28.4111 0 53.9814 -10.6514
q25.5703 -10.6523 44.8027 -30.6514q19.6699 -19.5645 29.9414 -44.3477q10.2715 -24.7822 10.2715 -53.4766q0 -57.3906 -40.6494 -97.1729q-40.6504 -39.7822 -99.2227 -39.7822q-59.0078 0 -98.3477 39.1299q-39.3389 39.1299 -39.3389 97.8252
q0 58.2588 40.2139 98.6934q40.2129 40.4337 98.3478 40.4337zM956.133 478.719q-34.5312 0 -58.79 -24.1299q-24.2588 -24.1289 -24.2588 -58.9111q0 -34.7832 23.8223 -58.2607q23.8213 -23.4775 58.3516 -23.4775q34.9688 0 59.6641 23.9121
q24.6963 23.9131 24.6963 57.8262q0 34.3467 -24.4766 58.6943q-24.4785 24.3466 -59.0089 24.3466zM336.133 1404.8q28.4111 0 53.9814 -10.6514q25.5703 -10.6523 44.8027 -30.6514q19.6699 -19.5645 29.9414 -44.3477q10.2715 -24.7822 10.2715 -53.4766
q0 -57.3906 -40.6494 -97.1729q-40.6504 -39.7822 -99.2227 -39.7822q-59.0078 0 -98.3477 39.1299q-39.3389 39.1299 -39.3389 97.8252q0 58.2588 40.2139 98.6934q40.2129 40.4337 98.3478 40.4337zM336.133 1348.72q-34.5312 0 -58.79 -24.1299
q-24.2588 -24.1289 -24.2588 -58.9111q0 -34.7832 23.8223 -58.2607q23.8213 -23.4775 58.3516 -23.4775q34.9688 0 59.6641 23.9121q24.6963 23.9131 24.6963 57.8262q0 34.3467 -24.4766 58.6943q-24.4785 24.3466 -59.0089 24.3466zM336.133 534.805
q28.4111 0 53.9814 -10.6514q25.5703 -10.6523 44.8027 -30.6514q19.6699 -19.5645 29.9414 -44.3477q10.2715 -24.7822 10.2715 -53.4766q0 -57.3906 -40.6494 -97.1729q-40.6504 -39.7822 -99.2227 -39.7822q-59.0078 0 -98.3477 39.1299
q-39.3389 39.1299 -39.3389 97.8252q0 58.2588 40.2139 98.6934q40.2129 40.4337 98.3478 40.4337zM336.133 1004.8q28.4111 0 53.9814 -10.6514q25.5703 -10.6523 44.8027 -30.6514q19.6699 -19.5645 29.9414 -44.3477q10.2715 -24.7822 10.2715 -53.4766
q0 -57.3906 -40.6494 -97.1729q-40.6504 -39.7822 -99.2227 -39.7822q-59.0078 0 -98.3477 39.1299q-39.3389 39.1299 -39.3389 97.8252q0 58.2588 40.2139 98.6934q40.2129 40.4337 98.3478 40.4337z" />
    <glyph glyph-name="uni281F" unicode="&#x281f;" 
d="M956.133 1004.8q28.4111 0 53.9814 -10.6514q25.5703 -10.6523 44.8027 -30.6514q19.6699 -19.5645 29.9414 -44.3477q10.2715 -24.7822 10.2715 -53.4766q0 -57.3906 -40.6494 -97.1729q-40.6504 -39.7822 -99.2227 -39.7822q-59.0078 0 -98.3477 39.1299
q-39.3389 39.1299 -39.3389 97.8252q0 58.2588 40.2139 98.6934q40.2129 40.4337 98.3478 40.4337zM336.133 1004.8q28.4111 0 53.9814 -10.6514q25.5703 -10.6523 44.8027 -30.6514q19.6699 -19.5645 29.9414 -44.3477q10.2715 -24.7822 10.2715 -53.4766
q0 -57.3906 -40.6494 -97.1729q-40.6504 -39.7822 -99.2227 -39.7822q-59.0078 0 -98.3477 39.1299q-39.3389 39.1299 -39.3389 97.8252q0 58.2588 40.2139 98.6934q40.2129 40.4337 98.3478 40.4337zM956.133 1404.8q28.4111 0 53.9814 -10.6514
q25.5703 -10.6523 44.8027 -30.6514q19.6699 -19.5645 29.9414 -44.3477q10.2715 -24.7822 10.2715 -53.4766q0 -57.3906 -40.6494 -97.1729q-40.6504 -39.7822 -99.2227 -39.7822q-59.0078 0 -98.3477 39.1299q-39.3389 39.1299 -39.3389 97.8252
q0 58.2588 40.2139 98.6934q40.2129 40.4337 98.3478 40.4337zM336.133 1404.8q28.4111 0 53.9814 -10.6514q25.5703 -10.6523 44.8027 -30.6514q19.6699 -19.5645 29.9414 -44.3477q10.2715 -24.7822 10.2715 -53.4766q0 -57.3906 -40.6494 -97.1729
q-40.6504 -39.7822 -99.2227 -39.7822q-59.0078 0 -98.3477 39.1299q-39.3389 39.1299 -39.3389 97.8252q0 58.2588 40.2139 98.6934q40.2129 40.4337 98.3478 40.4337zM956.133 534.805q28.4111 0 53.9814 -10.6514q25.5703 -10.6523 44.8027 -30.6514
q19.6699 -19.5645 29.9414 -44.3477q10.2715 -24.7822 10.2715 -53.4766q0 -57.3906 -40.6494 -97.1729q-40.6504 -39.7822 -99.2227 -39.7822q-59.0078 0 -98.3477 39.1299q-39.3389 39.1299 -39.3389 97.8252q0 58.2588 40.2139 98.6934q40.2129 40.4337 98.3478 40.4337z
M956.133 478.719q-34.5312 0 -58.79 -24.1299q-24.2588 -24.1289 -24.2588 -58.9111q0 -34.7832 23.8223 -58.2607q23.8213 -23.4775 58.3516 -23.4775q34.9688 0 59.6641 23.9121q24.6963 23.9131 24.6963 57.8262q0 34.3467 -24.4766 58.6943
q-24.4785 24.3466 -59.0089 24.3466zM336.133 534.805q28.4111 0 53.9814 -10.6514q25.5703 -10.6523 44.8027 -30.6514q19.6699 -19.5645 29.9414 -44.3477q10.2715 -24.7822 10.2715 -53.4766q0 -57.3906 -40.6494 -97.1729q-40.6504 -39.7822 -99.2227 -39.7822
q-59.0078 0 -98.3477 39.1299q-39.3389 39.1299 -39.3389 97.8252q0 58.2588 40.2139 98.6934q40.2129 40.4337 98.3478 40.4337z" />
    <glyph glyph-name="uni2820" unicode="&#x2820;" 
d="M336.133 1348.72q-34.5312 0 -58.79 -24.1299q-24.2588 -24.1289 -24.2588 -58.9111q0 -34.7832 23.8223 -58.2607q23.8213 -23.4775 58.3516 -23.4775q34.9688 0 59.6641 23.9121q24.6963 23.9131 24.6963 57.8262q0 34.3467 -24.4766 58.6943
q-24.4785 24.3466 -59.0089 24.3466zM336.133 1404.8q28.4111 0 53.9814 -10.6514q25.5703 -10.6523 44.8027 -30.6514q19.6699 -19.5645 29.9414 -44.3477q10.2715 -24.7822 10.2715 -53.4766q0 -57.3906 -40.6494 -97.1729q-40.6504 -39.7822 -99.2227 -39.7822
q-59.0078 0 -98.3477 39.1299q-39.3389 39.1299 -39.3389 97.8252q0 58.2588 40.2139 98.6934q40.2129 40.4337 98.3478 40.4337zM956.133 1348.72q-34.5312 0 -58.79 -24.1299q-24.2588 -24.1289 -24.2588 -58.9111q0 -34.7832 23.8223 -58.2607
q23.8213 -23.4775 58.3516 -23.4775q34.9688 0 59.6641 23.9121q24.6963 23.9131 24.6963 57.8262q0 34.3467 -24.4766 58.6943q-24.4785 24.3466 -59.0089 24.3466zM956.133 1404.8q28.4111 0 53.9814 -10.6514q25.5703 -10.6523 44.8027 -30.6514
q19.6699 -19.5645 29.9414 -44.3477q10.2715 -24.7822 10.2715 -53.4766q0 -57.3906 -40.6494 -97.1729q-40.6504 -39.7822 -99.2227 -39.7822q-59.0078 0 -98.3477 39.1299q-39.3389 39.1299 -39.3389 97.8252q0 58.2588 40.2139 98.6934q40.2129 40.4337 98.3478 40.4337z
M336.133 948.719q-34.5312 0 -58.79 -24.1299q-24.2588 -24.1289 -24.2588 -58.9111q0 -34.7832 23.8223 -58.2607q23.8213 -23.4775 58.3516 -23.4775q34.9688 0 59.6641 23.9121q24.6963 23.9131 24.6963 57.8262q0 34.3467 -24.4766 58.6943
q-24.4785 24.3466 -59.0089 24.3466zM336.133 1004.8q28.4111 0 53.9814 -10.6514q25.5703 -10.6523 44.8027 -30.6514q19.6699 -19.5645 29.9414 -44.3477q10.2715 -24.7822 10.2715 -53.4766q0 -57.3906 -40.6494 -97.1729q-40.6504 -39.7822 -99.2227 -39.7822
q-59.0078 0 -98.3477 39.1299q-39.3389 39.1299 -39.3389 97.8252q0 58.2588 40.2139 98.6934q40.2129 40.4337 98.3478 40.4337zM956.133 948.719q-34.5312 0 -58.79 -24.1299q-24.2588 -24.1289 -24.2588 -58.9111q0 -34.7832 23.8223 -58.2607
q23.8213 -23.4775 58.3516 -23.4775q34.9688 0 59.6641 23.9121q24.6963 23.9131 24.6963 57.8262q0 34.3467 -24.4766 58.6943q-24.4785 24.3466 -59.0089 24.3466zM956.133 1004.8q28.4111 0 53.9814 -10.6514q25.5703 -10.6523 44.8027 -30.6514
q19.6699 -19.5645 29.9414 -44.3477q10.2715 -24.7822 10.2715 -53.4766q0 -57.3906 -40.6494 -97.1729q-40.6504 -39.7822 -99.2227 -39.7822q-59.0078 0 -98.3477 39.1299q-39.3389 39.1299 -39.3389 97.8252q0 58.2588 40.2139 98.6934q40.2129 40.4337 98.3478 40.4337z
M336.133 478.719q-34.5312 0 -58.79 -24.1299q-24.2588 -24.1289 -24.2588 -58.9111q0 -34.7832 23.8223 -58.2607q23.8213 -23.4775 58.3516 -23.4775q34.9688 0 59.6641 23.9121q24.6963 23.9131 24.6963 57.8262q0 34.3467 -24.4766 58.6943
q-24.4785 24.3466 -59.0089 24.3466zM336.133 534.805q28.4111 0 53.9814 -10.6514q25.5703 -10.6523 44.8027 -30.6514q19.6699 -19.5645 29.9414 -44.3477q10.2715 -24.7822 10.2715 -53.4766q0 -57.3906 -40.6494 -97.1729q-40.6504 -39.7822 -99.2227 -39.7822
q-59.0078 0 -98.3477 39.1299q-39.3389 39.1299 -39.3389 97.8252q0 58.2588 40.2139 98.6934q40.2129 40.4337 98.3478 40.4337zM956.133 534.805q28.4111 0 53.9814 -10.6514q25.5703 -10.6523 44.8027 -30.6514q19.6699 -19.5645 29.9414 -44.3477
q10.2715 -24.7822 10.2715 -53.4766q0 -57.3906 -40.6494 -97.1729q-40.6504 -39.7822 -99.2227 -39.7822q-59.0078 0 -98.3477 39.1299q-39.3389 39.1299 -39.3389 97.8252q0 58.2588 40.2139 98.6934q40.2129 40.4337 98.3478 40.4337z" />
    <glyph glyph-name="uni2821" unicode="&#x2821;" 
d="M336.133 1404.8q28.4111 0 53.9814 -10.6514q25.5703 -10.6523 44.8027 -30.6514q19.6699 -19.5645 29.9414 -44.3477q10.2715 -24.7822 10.2715 -53.4766q0 -57.3906 -40.6494 -97.1729q-40.6504 -39.7822 -99.2227 -39.7822q-59.0078 0 -98.3477 39.1299
q-39.3389 39.1299 -39.3389 97.8252q0 58.2588 40.2139 98.6934q40.2129 40.4337 98.3478 40.4337zM336.133 534.805q28.4111 0 53.9814 -10.6514q25.5703 -10.6523 44.8027 -30.6514q19.6699 -19.5645 29.9414 -44.3477q10.2715 -24.7822 10.2715 -53.4766
q0 -57.3906 -40.6494 -97.1729q-40.6504 -39.7822 -99.2227 -39.7822q-59.0078 0 -98.3477 39.1299q-39.3389 39.1299 -39.3389 97.8252q0 58.2588 40.2139 98.6934q40.2129 40.4337 98.3478 40.4337zM336.133 478.719q-34.5312 0 -58.79 -24.1299
q-24.2588 -24.1289 -24.2588 -58.9111q0 -34.7832 23.8223 -58.2607q23.8213 -23.4775 58.3516 -23.4775q34.9688 0 59.6641 23.9121q24.6963 23.9131 24.6963 57.8262q0 34.3467 -24.4766 58.6943q-24.4785 24.3466 -59.0089 24.3466zM956.133 1004.8
q28.4111 0 53.9814 -10.6514q25.5703 -10.6523 44.8027 -30.6514q19.6699 -19.5645 29.9414 -44.3477q10.2715 -24.7822 10.2715 -53.4766q0 -57.3906 -40.6494 -97.1729q-40.6504 -39.7822 -99.2227 -39.7822q-59.0078 0 -98.3477 39.1299
q-39.3389 39.1299 -39.3389 97.8252q0 58.2588 40.2139 98.6934q40.2129 40.4337 98.3478 40.4337zM956.133 948.719q-34.5312 0 -58.79 -24.1299q-24.2588 -24.1289 -24.2588 -58.9111q0 -34.7832 23.8223 -58.2607q23.8213 -23.4775 58.3516 -23.4775
q34.9688 0 59.6641 23.9121q24.6963 23.9131 24.6963 57.8262q0 34.3467 -24.4766 58.6943q-24.4785 24.3466 -59.0089 24.3466zM336.133 1004.8q28.4111 0 53.9814 -10.6514q25.5703 -10.6523 44.8027 -30.6514q19.6699 -19.5645 29.9414 -44.3477
q10.2715 -24.7822 10.2715 -53.4766q0 -57.3906 -40.6494 -97.1729q-40.6504 -39.7822 -99.2227 -39.7822q-59.0078 0 -98.3477 39.1299q-39.3389 39.1299 -39.3389 97.8252q0 58.2588 40.2139 98.6934q40.2129 40.4337 98.3478 40.4337zM336.133 948.719
q-34.5312 0 -58.79 -24.1299q-24.2588 -24.1289 -24.2588 -58.9111q0 -34.7832 23.8223 -58.2607q23.8213 -23.4775 58.3516 -23.4775q34.9688 0 59.6641 23.9121q24.6963 23.9131 24.6963 57.8262q0 34.3467 -24.4766 58.6943q-24.4785 24.3466 -59.0089 24.3466z
M956.133 1404.8q28.4111 0 53.9814 -10.6514q25.5703 -10.6523 44.8027 -30.6514q19.6699 -19.5645 29.9414 -44.3477q10.2715 -24.7822 10.2715 -53.4766q0 -57.3906 -40.6494 -97.1729q-40.6504 -39.7822 -99.2227 -39.7822q-59.0078 0 -98.3477 39.1299
q-39.3389 39.1299 -39.3389 97.8252q0 58.2588 40.2139 98.6934q40.2129 40.4337 98.3478 40.4337zM956.133 1348.72q-34.5312 0 -58.79 -24.1299q-24.2588 -24.1289 -24.2588 -58.9111q0 -34.7832 23.8223 -58.2607q23.8213 -23.4775 58.3516 -23.4775
q34.9688 0 59.6641 23.9121q24.6963 23.9131 24.6963 57.8262q0 34.3467 -24.4766 58.6943q-24.4785 24.3466 -59.0089 24.3466zM956.133 534.805q28.4111 0 53.9814 -10.6514q25.5703 -10.6523 44.8027 -30.6514q19.6699 -19.5645 29.9414 -44.3477
q10.2715 -24.7822 10.2715 -53.4766q0 -57.3906 -40.6494 -97.1729q-40.6504 -39.7822 -99.2227 -39.7822q-59.0078 0 -98.3477 39.1299q-39.3389 39.1299 -39.3389 97.8252q0 58.2588 40.2139 98.6934q40.2129 40.4337 98.3478 40.4337z" />
    <glyph glyph-name="uni2822" unicode="&#x2822;" 
d="M336.133 1004.8q28.4111 0 53.9814 -10.6514q25.5703 -10.6523 44.8027 -30.6514q19.6699 -19.5645 29.9414 -44.3477q10.2715 -24.7822 10.2715 -53.4766q0 -57.3906 -40.6494 -97.1729q-40.6504 -39.7822 -99.2227 -39.7822q-59.0078 0 -98.3477 39.1299
q-39.3389 39.1299 -39.3389 97.8252q0 58.2588 40.2139 98.6934q40.2129 40.4337 98.3478 40.4337zM336.133 534.805q28.4111 0 53.9814 -10.6514q25.5703 -10.6523 44.8027 -30.6514q19.6699 -19.5645 29.9414 -44.3477q10.2715 -24.7822 10.2715 -53.4766
q0 -57.3906 -40.6494 -97.1729q-40.6504 -39.7822 -99.2227 -39.7822q-59.0078 0 -98.3477 39.1299q-39.3389 39.1299 -39.3389 97.8252q0 58.2588 40.2139 98.6934q40.2129 40.4337 98.3478 40.4337zM336.133 478.719q-34.5312 0 -58.79 -24.1299
q-24.2588 -24.1289 -24.2588 -58.9111q0 -34.7832 23.8223 -58.2607q23.8213 -23.4775 58.3516 -23.4775q34.9688 0 59.6641 23.9121q24.6963 23.9131 24.6963 57.8262q0 34.3467 -24.4766 58.6943q-24.4785 24.3466 -59.0089 24.3466zM956.133 1004.8
q28.4111 0 53.9814 -10.6514q25.5703 -10.6523 44.8027 -30.6514q19.6699 -19.5645 29.9414 -44.3477q10.2715 -24.7822 10.2715 -53.4766q0 -57.3906 -40.6494 -97.1729q-40.6504 -39.7822 -99.2227 -39.7822q-59.0078 0 -98.3477 39.1299
q-39.3389 39.1299 -39.3389 97.8252q0 58.2588 40.2139 98.6934q40.2129 40.4337 98.3478 40.4337zM956.133 948.719q-34.5312 0 -58.79 -24.1299q-24.2588 -24.1289 -24.2588 -58.9111q0 -34.7832 23.8223 -58.2607q23.8213 -23.4775 58.3516 -23.4775
q34.9688 0 59.6641 23.9121q24.6963 23.9131 24.6963 57.8262q0 34.3467 -24.4766 58.6943q-24.4785 24.3466 -59.0089 24.3466zM956.133 1404.8q28.4111 0 53.9814 -10.6514q25.5703 -10.6523 44.8027 -30.6514q19.6699 -19.5645 29.9414 -44.3477
q10.2715 -24.7822 10.2715 -53.4766q0 -57.3906 -40.6494 -97.1729q-40.6504 -39.7822 -99.2227 -39.7822q-59.0078 0 -98.3477 39.1299q-39.3389 39.1299 -39.3389 97.8252q0 58.2588 40.2139 98.6934q40.2129 40.4337 98.3478 40.4337zM956.133 1348.72
q-34.5312 0 -58.79 -24.1299q-24.2588 -24.1289 -24.2588 -58.9111q0 -34.7832 23.8223 -58.2607q23.8213 -23.4775 58.3516 -23.4775q34.9688 0 59.6641 23.9121q24.6963 23.9131 24.6963 57.8262q0 34.3467 -24.4766 58.6943q-24.4785 24.3466 -59.0089 24.3466z
M336.133 1404.8q28.4111 0 53.9814 -10.6514q25.5703 -10.6523 44.8027 -30.6514q19.6699 -19.5645 29.9414 -44.3477q10.2715 -24.7822 10.2715 -53.4766q0 -57.3906 -40.6494 -97.1729q-40.6504 -39.7822 -99.2227 -39.7822q-59.0078 0 -98.3477 39.1299
q-39.3389 39.1299 -39.3389 97.8252q0 58.2588 40.2139 98.6934q40.2129 40.4337 98.3478 40.4337zM336.133 1348.72q-34.5312 0 -58.79 -24.1299q-24.2588 -24.1289 -24.2588 -58.9111q0 -34.7832 23.8223 -58.2607q23.8213 -23.4775 58.3516 -23.4775
q34.9688 0 59.6641 23.9121q24.6963 23.9131 24.6963 57.8262q0 34.3467 -24.4766 58.6943q-24.4785 24.3466 -59.0089 24.3466zM956.133 534.805q28.4111 0 53.9814 -10.6514q25.5703 -10.6523 44.8027 -30.6514q19.6699 -19.5645 29.9414 -44.3477
q10.2715 -24.7822 10.2715 -53.4766q0 -57.3906 -40.6494 -97.1729q-40.6504 -39.7822 -99.2227 -39.7822q-59.0078 0 -98.3477 39.1299q-39.3389 39.1299 -39.3389 97.8252q0 58.2588 40.2139 98.6934q40.2129 40.4337 98.3478 40.4337z" />
    <glyph glyph-name="uni2823" unicode="&#x2823;" 
d="M336.133 1004.8q28.4111 0 53.9814 -10.6514q25.5703 -10.6523 44.8027 -30.6514q19.6699 -19.5645 29.9414 -44.3477q10.2715 -24.7822 10.2715 -53.4766q0 -57.3906 -40.6494 -97.1729q-40.6504 -39.7822 -99.2227 -39.7822q-59.0078 0 -98.3477 39.1299
q-39.3389 39.1299 -39.3389 97.8252q0 58.2588 40.2139 98.6934q40.2129 40.4337 98.3478 40.4337zM336.133 1404.8q28.4111 0 53.9814 -10.6514q25.5703 -10.6523 44.8027 -30.6514q19.6699 -19.5645 29.9414 -44.3477q10.2715 -24.7822 10.2715 -53.4766
q0 -57.3906 -40.6494 -97.1729q-40.6504 -39.7822 -99.2227 -39.7822q-59.0078 0 -98.3477 39.1299q-39.3389 39.1299 -39.3389 97.8252q0 58.2588 40.2139 98.6934q40.2129 40.4337 98.3478 40.4337zM336.133 534.805q28.4111 0 53.9814 -10.6514
q25.5703 -10.6523 44.8027 -30.6514q19.6699 -19.5645 29.9414 -44.3477q10.2715 -24.7822 10.2715 -53.4766q0 -57.3906 -40.6494 -97.1729q-40.6504 -39.7822 -99.2227 -39.7822q-59.0078 0 -98.3477 39.1299q-39.3389 39.1299 -39.3389 97.8252
q0 58.2588 40.2139 98.6934q40.2129 40.4337 98.3478 40.4337zM336.133 478.719q-34.5312 0 -58.79 -24.1299q-24.2588 -24.1289 -24.2588 -58.9111q0 -34.7832 23.8223 -58.2607q23.8213 -23.4775 58.3516 -23.4775q34.9688 0 59.6641 23.9121
q24.6963 23.9131 24.6963 57.8262q0 34.3467 -24.4766 58.6943q-24.4785 24.3466 -59.0089 24.3466zM956.133 1004.8q28.4111 0 53.9814 -10.6514q25.5703 -10.6523 44.8027 -30.6514q19.6699 -19.5645 29.9414 -44.3477q10.2715 -24.7822 10.2715 -53.4766
q0 -57.3906 -40.6494 -97.1729q-40.6504 -39.7822 -99.2227 -39.7822q-59.0078 0 -98.3477 39.1299q-39.3389 39.1299 -39.3389 97.8252q0 58.2588 40.2139 98.6934q40.2129 40.4337 98.3478 40.4337zM956.133 948.719q-34.5312 0 -58.79 -24.1299
q-24.2588 -24.1289 -24.2588 -58.9111q0 -34.7832 23.8223 -58.2607q23.8213 -23.4775 58.3516 -23.4775q34.9688 0 59.6641 23.9121q24.6963 23.9131 24.6963 57.8262q0 34.3467 -24.4766 58.6943q-24.4785 24.3466 -59.0089 24.3466zM956.133 1404.8
q28.4111 0 53.9814 -10.6514q25.5703 -10.6523 44.8027 -30.6514q19.6699 -19.5645 29.9414 -44.3477q10.2715 -24.7822 10.2715 -53.4766q0 -57.3906 -40.6494 -97.1729q-40.6504 -39.7822 -99.2227 -39.7822q-59.0078 0 -98.3477 39.1299
q-39.3389 39.1299 -39.3389 97.8252q0 58.2588 40.2139 98.6934q40.2129 40.4337 98.3478 40.4337zM956.133 1348.72q-34.5312 0 -58.79 -24.1299q-24.2588 -24.1289 -24.2588 -58.9111q0 -34.7832 23.8223 -58.2607q23.8213 -23.4775 58.3516 -23.4775
q34.9688 0 59.6641 23.9121q24.6963 23.9131 24.6963 57.8262q0 34.3467 -24.4766 58.6943q-24.4785 24.3466 -59.0089 24.3466zM956.133 534.805q28.4111 0 53.9814 -10.6514q25.5703 -10.6523 44.8027 -30.6514q19.6699 -19.5645 29.9414 -44.3477
q10.2715 -24.7822 10.2715 -53.4766q0 -57.3906 -40.6494 -97.1729q-40.6504 -39.7822 -99.2227 -39.7822q-59.0078 0 -98.3477 39.1299q-39.3389 39.1299 -39.3389 97.8252q0 58.2588 40.2139 98.6934q40.2129 40.4337 98.3478 40.4337z" />
    <glyph glyph-name="uni2824" unicode="&#x2824;" 
d="M336.133 1348.72q-34.5312 0 -58.79 -24.1299q-24.2588 -24.1289 -24.2588 -58.9111q0 -34.7832 23.8223 -58.2607q23.8213 -23.4775 58.3516 -23.4775q34.9688 0 59.6641 23.9121q24.6963 23.9131 24.6963 57.8262q0 34.3467 -24.4766 58.6943
q-24.4785 24.3466 -59.0089 24.3466zM336.133 1404.8q28.4111 0 53.9814 -10.6514q25.5703 -10.6523 44.8027 -30.6514q19.6699 -19.5645 29.9414 -44.3477q10.2715 -24.7822 10.2715 -53.4766q0 -57.3906 -40.6494 -97.1729q-40.6504 -39.7822 -99.2227 -39.7822
q-59.0078 0 -98.3477 39.1299q-39.3389 39.1299 -39.3389 97.8252q0 58.2588 40.2139 98.6934q40.2129 40.4337 98.3478 40.4337zM956.133 1348.72q-34.5312 0 -58.79 -24.1299q-24.2588 -24.1289 -24.2588 -58.9111q0 -34.7832 23.8223 -58.2607
q23.8213 -23.4775 58.3516 -23.4775q34.9688 0 59.6641 23.9121q24.6963 23.9131 24.6963 57.8262q0 34.3467 -24.4766 58.6943q-24.4785 24.3466 -59.0089 24.3466zM956.133 1404.8q28.4111 0 53.9814 -10.6514q25.5703 -10.6523 44.8027 -30.6514
q19.6699 -19.5645 29.9414 -44.3477q10.2715 -24.7822 10.2715 -53.4766q0 -57.3906 -40.6494 -97.1729q-40.6504 -39.7822 -99.2227 -39.7822q-59.0078 0 -98.3477 39.1299q-39.3389 39.1299 -39.3389 97.8252q0 58.2588 40.2139 98.6934q40.2129 40.4337 98.3478 40.4337z
M336.133 948.719q-34.5312 0 -58.79 -24.1299q-24.2588 -24.1289 -24.2588 -58.9111q0 -34.7832 23.8223 -58.2607q23.8213 -23.4775 58.3516 -23.4775q34.9688 0 59.6641 23.9121q24.6963 23.9131 24.6963 57.8262q0 34.3467 -24.4766 58.6943
q-24.4785 24.3466 -59.0089 24.3466zM336.133 1004.8q28.4111 0 53.9814 -10.6514q25.5703 -10.6523 44.8027 -30.6514q19.6699 -19.5645 29.9414 -44.3477q10.2715 -24.7822 10.2715 -53.4766q0 -57.3906 -40.6494 -97.1729q-40.6504 -39.7822 -99.2227 -39.7822
q-59.0078 0 -98.3477 39.1299q-39.3389 39.1299 -39.3389 97.8252q0 58.2588 40.2139 98.6934q40.2129 40.4337 98.3478 40.4337zM956.133 948.719q-34.5312 0 -58.79 -24.1299q-24.2588 -24.1289 -24.2588 -58.9111q0 -34.7832 23.8223 -58.2607
q23.8213 -23.4775 58.3516 -23.4775q34.9688 0 59.6641 23.9121q24.6963 23.9131 24.6963 57.8262q0 34.3467 -24.4766 58.6943q-24.4785 24.3466 -59.0089 24.3466zM956.133 1004.8q28.4111 0 53.9814 -10.6514q25.5703 -10.6523 44.8027 -30.6514
q19.6699 -19.5645 29.9414 -44.3477q10.2715 -24.7822 10.2715 -53.4766q0 -57.3906 -40.6494 -97.1729q-40.6504 -39.7822 -99.2227 -39.7822q-59.0078 0 -98.3477 39.1299q-39.3389 39.1299 -39.3389 97.8252q0 58.2588 40.2139 98.6934q40.2129 40.4337 98.3478 40.4337z
M336.133 534.805q28.4111 0 53.9814 -10.6514q25.5703 -10.6523 44.8027 -30.6514q19.6699 -19.5645 29.9414 -44.3477q10.2715 -24.7822 10.2715 -53.4766q0 -57.3906 -40.6494 -97.1729q-40.6504 -39.7822 -99.2227 -39.7822q-59.0078 0 -98.3477 39.1299
q-39.3389 39.1299 -39.3389 97.8252q0 58.2588 40.2139 98.6934q40.2129 40.4337 98.3478 40.4337zM956.133 534.805q28.4111 0 53.9814 -10.6514q25.5703 -10.6523 44.8027 -30.6514q19.6699 -19.5645 29.9414 -44.3477q10.2715 -24.7822 10.2715 -53.4766
q0 -57.3906 -40.6494 -97.1729q-40.6504 -39.7822 -99.2227 -39.7822q-59.0078 0 -98.3477 39.1299q-39.3389 39.1299 -39.3389 97.8252q0 58.2588 40.2139 98.6934q40.2129 40.4337 98.3478 40.4337z" />
    <glyph glyph-name="uni2825" unicode="&#x2825;" 
d="M956.133 534.805q28.4111 0 53.9814 -10.6514q25.5703 -10.6523 44.8027 -30.6514q19.6699 -19.5645 29.9414 -44.3477q10.2715 -24.7822 10.2715 -53.4766q0 -57.3906 -40.6494 -97.1729q-40.6504 -39.7822 -99.2227 -39.7822q-59.0078 0 -98.3477 39.1299
q-39.3389 39.1299 -39.3389 97.8252q0 58.2588 40.2139 98.6934q40.2129 40.4337 98.3478 40.4337zM336.133 534.805q28.4111 0 53.9814 -10.6514q25.5703 -10.6523 44.8027 -30.6514q19.6699 -19.5645 29.9414 -44.3477q10.2715 -24.7822 10.2715 -53.4766
q0 -57.3906 -40.6494 -97.1729q-40.6504 -39.7822 -99.2227 -39.7822q-59.0078 0 -98.3477 39.1299q-39.3389 39.1299 -39.3389 97.8252q0 58.2588 40.2139 98.6934q40.2129 40.4337 98.3478 40.4337zM956.133 1004.8q28.4111 0 53.9814 -10.6514
q25.5703 -10.6523 44.8027 -30.6514q19.6699 -19.5645 29.9414 -44.3477q10.2715 -24.7822 10.2715 -53.4766q0 -57.3906 -40.6494 -97.1729q-40.6504 -39.7822 -99.2227 -39.7822q-59.0078 0 -98.3477 39.1299q-39.3389 39.1299 -39.3389 97.8252
q0 58.2588 40.2139 98.6934q40.2129 40.4337 98.3478 40.4337zM956.133 948.719q-34.5312 0 -58.79 -24.1299q-24.2588 -24.1289 -24.2588 -58.9111q0 -34.7832 23.8223 -58.2607q23.8213 -23.4775 58.3516 -23.4775q34.9688 0 59.6641 23.9121
q24.6963 23.9131 24.6963 57.8262q0 34.3467 -24.4766 58.6943q-24.4785 24.3466 -59.0089 24.3466zM336.133 1004.8q28.4111 0 53.9814 -10.6514q25.5703 -10.6523 44.8027 -30.6514q19.6699 -19.5645 29.9414 -44.3477q10.2715 -24.7822 10.2715 -53.4766
q0 -57.3906 -40.6494 -97.1729q-40.6504 -39.7822 -99.2227 -39.7822q-59.0078 0 -98.3477 39.1299q-39.3389 39.1299 -39.3389 97.8252q0 58.2588 40.2139 98.6934q40.2129 40.4337 98.3478 40.4337zM336.133 948.719q-34.5312 0 -58.79 -24.1299
q-24.2588 -24.1289 -24.2588 -58.9111q0 -34.7832 23.8223 -58.2607q23.8213 -23.4775 58.3516 -23.4775q34.9688 0 59.6641 23.9121q24.6963 23.9131 24.6963 57.8262q0 34.3467 -24.4766 58.6943q-24.4785 24.3466 -59.0089 24.3466zM956.133 1404.8
q28.4111 0 53.9814 -10.6514q25.5703 -10.6523 44.8027 -30.6514q19.6699 -19.5645 29.9414 -44.3477q10.2715 -24.7822 10.2715 -53.4766q0 -57.3906 -40.6494 -97.1729q-40.6504 -39.7822 -99.2227 -39.7822q-59.0078 0 -98.3477 39.1299
q-39.3389 39.1299 -39.3389 97.8252q0 58.2588 40.2139 98.6934q40.2129 40.4337 98.3478 40.4337zM956.133 1348.72q-34.5312 0 -58.79 -24.1299q-24.2588 -24.1289 -24.2588 -58.9111q0 -34.7832 23.8223 -58.2607q23.8213 -23.4775 58.3516 -23.4775
q34.9688 0 59.6641 23.9121q24.6963 23.9131 24.6963 57.8262q0 34.3467 -24.4766 58.6943q-24.4785 24.3466 -59.0089 24.3466zM336.133 1404.8q28.4111 0 53.9814 -10.6514q25.5703 -10.6523 44.8027 -30.6514q19.6699 -19.5645 29.9414 -44.3477
q10.2715 -24.7822 10.2715 -53.4766q0 -57.3906 -40.6494 -97.1729q-40.6504 -39.7822 -99.2227 -39.7822q-59.0078 0 -98.3477 39.1299q-39.3389 39.1299 -39.3389 97.8252q0 58.2588 40.2139 98.6934q40.2129 40.4337 98.3478 40.4337z" />
    <glyph glyph-name="uni2826" unicode="&#x2826;" 
d="M956.133 534.805q28.4111 0 53.9814 -10.6514q25.5703 -10.6523 44.8027 -30.6514q19.6699 -19.5645 29.9414 -44.3477q10.2715 -24.7822 10.2715 -53.4766q0 -57.3906 -40.6494 -97.1729q-40.6504 -39.7822 -99.2227 -39.7822q-59.0078 0 -98.3477 39.1299
q-39.3389 39.1299 -39.3389 97.8252q0 58.2588 40.2139 98.6934q40.2129 40.4337 98.3478 40.4337zM336.133 534.805q28.4111 0 53.9814 -10.6514q25.5703 -10.6523 44.8027 -30.6514q19.6699 -19.5645 29.9414 -44.3477q10.2715 -24.7822 10.2715 -53.4766
q0 -57.3906 -40.6494 -97.1729q-40.6504 -39.7822 -99.2227 -39.7822q-59.0078 0 -98.3477 39.1299q-39.3389 39.1299 -39.3389 97.8252q0 58.2588 40.2139 98.6934q40.2129 40.4337 98.3478 40.4337zM956.133 1004.8q28.4111 0 53.9814 -10.6514
q25.5703 -10.6523 44.8027 -30.6514q19.6699 -19.5645 29.9414 -44.3477q10.2715 -24.7822 10.2715 -53.4766q0 -57.3906 -40.6494 -97.1729q-40.6504 -39.7822 -99.2227 -39.7822q-59.0078 0 -98.3477 39.1299q-39.3389 39.1299 -39.3389 97.8252
q0 58.2588 40.2139 98.6934q40.2129 40.4337 98.3478 40.4337zM956.133 948.719q-34.5312 0 -58.79 -24.1299q-24.2588 -24.1289 -24.2588 -58.9111q0 -34.7832 23.8223 -58.2607q23.8213 -23.4775 58.3516 -23.4775q34.9688 0 59.6641 23.9121
q24.6963 23.9131 24.6963 57.8262q0 34.3467 -24.4766 58.6943q-24.4785 24.3466 -59.0089 24.3466zM956.133 1404.8q28.4111 0 53.9814 -10.6514q25.5703 -10.6523 44.8027 -30.6514q19.6699 -19.5645 29.9414 -44.3477q10.2715 -24.7822 10.2715 -53.4766
q0 -57.3906 -40.6494 -97.1729q-40.6504 -39.7822 -99.2227 -39.7822q-59.0078 0 -98.3477 39.1299q-39.3389 39.1299 -39.3389 97.8252q0 58.2588 40.2139 98.6934q40.2129 40.4337 98.3478 40.4337zM956.133 1348.72q-34.5312 0 -58.79 -24.1299
q-24.2588 -24.1289 -24.2588 -58.9111q0 -34.7832 23.8223 -58.2607q23.8213 -23.4775 58.3516 -23.4775q34.9688 0 59.6641 23.9121q24.6963 23.9131 24.6963 57.8262q0 34.3467 -24.4766 58.6943q-24.4785 24.3466 -59.0089 24.3466zM336.133 1404.8
q28.4111 0 53.9814 -10.6514q25.5703 -10.6523 44.8027 -30.6514q19.6699 -19.5645 29.9414 -44.3477q10.2715 -24.7822 10.2715 -53.4766q0 -57.3906 -40.6494 -97.1729q-40.6504 -39.7822 -99.2227 -39.7822q-59.0078 0 -98.3477 39.1299
q-39.3389 39.1299 -39.3389 97.8252q0 58.2588 40.2139 98.6934q40.2129 40.4337 98.3478 40.4337zM336.133 1348.72q-34.5312 0 -58.79 -24.1299q-24.2588 -24.1289 -24.2588 -58.9111q0 -34.7832 23.8223 -58.2607q23.8213 -23.4775 58.3516 -23.4775
q34.9688 0 59.6641 23.9121q24.6963 23.9131 24.6963 57.8262q0 34.3467 -24.4766 58.6943q-24.4785 24.3466 -59.0089 24.3466zM336.133 1004.8q28.4111 0 53.9814 -10.6514q25.5703 -10.6523 44.8027 -30.6514q19.6699 -19.5645 29.9414 -44.3477
q10.2715 -24.7822 10.2715 -53.4766q0 -57.3906 -40.6494 -97.1729q-40.6504 -39.7822 -99.2227 -39.7822q-59.0078 0 -98.3477 39.1299q-39.3389 39.1299 -39.3389 97.8252q0 58.2588 40.2139 98.6934q40.2129 40.4337 98.3478 40.4337z" />
    <glyph glyph-name="uni2827" unicode="&#x2827;" 
d="M336.133 534.805q28.4111 0 53.9814 -10.6514q25.5703 -10.6523 44.8027 -30.6514q19.6699 -19.5645 29.9414 -44.3477q10.2715 -24.7822 10.2715 -53.4766q0 -57.3906 -40.6494 -97.1729q-40.6504 -39.7822 -99.2227 -39.7822q-59.0078 0 -98.3477 39.1299
q-39.3389 39.1299 -39.3389 97.8252q0 58.2588 40.2139 98.6934q40.2129 40.4337 98.3478 40.4337zM336.133 1004.8q28.4111 0 53.9814 -10.6514q25.5703 -10.6523 44.8027 -30.6514q19.6699 -19.5645 29.9414 -44.3477q10.2715 -24.7822 10.2715 -53.4766
q0 -57.3906 -40.6494 -97.1729q-40.6504 -39.7822 -99.2227 -39.7822q-59.0078 0 -98.3477 39.1299q-39.3389 39.1299 -39.3389 97.8252q0 58.2588 40.2139 98.6934q40.2129 40.4337 98.3478 40.4337zM336.133 1404.8q28.4111 0 53.9814 -10.6514
q25.5703 -10.6523 44.8027 -30.6514q19.6699 -19.5645 29.9414 -44.3477q10.2715 -24.7822 10.2715 -53.4766q0 -57.3906 -40.6494 -97.1729q-40.6504 -39.7822 -99.2227 -39.7822q-59.0078 0 -98.3477 39.1299q-39.3389 39.1299 -39.3389 97.8252
q0 58.2588 40.2139 98.6934q40.2129 40.4337 98.3478 40.4337zM956.133 1004.8q28.4111 0 53.9814 -10.6514q25.5703 -10.6523 44.8027 -30.6514q19.6699 -19.5645 29.9414 -44.3477q10.2715 -24.7822 10.2715 -53.4766q0 -57.3906 -40.6494 -97.1729
q-40.6504 -39.7822 -99.2227 -39.7822q-59.0078 0 -98.3477 39.1299q-39.3389 39.1299 -39.3389 97.8252q0 58.2588 40.2139 98.6934q40.2129 40.4337 98.3478 40.4337zM956.133 948.719q-34.5312 0 -58.79 -24.1299q-24.2588 -24.1289 -24.2588 -58.9111
q0 -34.7832 23.8223 -58.2607q23.8213 -23.4775 58.3516 -23.4775q34.9688 0 59.6641 23.9121q24.6963 23.9131 24.6963 57.8262q0 34.3467 -24.4766 58.6943q-24.4785 24.3466 -59.0089 24.3466zM956.133 1404.8q28.4111 0 53.9814 -10.6514
q25.5703 -10.6523 44.8027 -30.6514q19.6699 -19.5645 29.9414 -44.3477q10.2715 -24.7822 10.2715 -53.4766q0 -57.3906 -40.6494 -97.1729q-40.6504 -39.7822 -99.2227 -39.7822q-59.0078 0 -98.3477 39.1299q-39.3389 39.1299 -39.3389 97.8252
q0 58.2588 40.2139 98.6934q40.2129 40.4337 98.3478 40.4337zM956.133 1348.72q-34.5312 0 -58.79 -24.1299q-24.2588 -24.1289 -24.2588 -58.9111q0 -34.7832 23.8223 -58.2607q23.8213 -23.4775 58.3516 -23.4775q34.9688 0 59.6641 23.9121
q24.6963 23.9131 24.6963 57.8262q0 34.3467 -24.4766 58.6943q-24.4785 24.3466 -59.0089 24.3466zM956.133 534.805q28.4111 0 53.9814 -10.6514q25.5703 -10.6523 44.8027 -30.6514q19.6699 -19.5645 29.9414 -44.3477q10.2715 -24.7822 10.2715 -53.4766
q0 -57.3906 -40.6494 -97.1729q-40.6504 -39.7822 -99.2227 -39.7822q-59.0078 0 -98.3477 39.1299q-39.3389 39.1299 -39.3389 97.8252q0 58.2588 40.2139 98.6934q40.2129 40.4337 98.3478 40.4337z" />
    <glyph glyph-name="uni2828" unicode="&#x2828;" 
d="M956.133 1404.8q28.4111 0 53.9814 -10.6514q25.5703 -10.6523 44.8027 -30.6514q19.6699 -19.5645 29.9414 -44.3477q10.2715 -24.7822 10.2715 -53.4766q0 -57.3906 -40.6494 -97.1729q-40.6504 -39.7822 -99.2227 -39.7822q-59.0078 0 -98.3477 39.1299
q-39.3389 39.1299 -39.3389 97.8252q0 58.2588 40.2139 98.6934q40.2129 40.4337 98.3478 40.4337zM336.133 534.805q28.4111 0 53.9814 -10.6514q25.5703 -10.6523 44.8027 -30.6514q19.6699 -19.5645 29.9414 -44.3477q10.2715 -24.7822 10.2715 -53.4766
q0 -57.3906 -40.6494 -97.1729q-40.6504 -39.7822 -99.2227 -39.7822q-59.0078 0 -98.3477 39.1299q-39.3389 39.1299 -39.3389 97.8252q0 58.2588 40.2139 98.6934q40.2129 40.4337 98.3478 40.4337zM336.133 478.719q-34.5312 0 -58.79 -24.1299
q-24.2588 -24.1289 -24.2588 -58.9111q0 -34.7832 23.8223 -58.2607q23.8213 -23.4775 58.3516 -23.4775q34.9688 0 59.6641 23.9121q24.6963 23.9131 24.6963 57.8262q0 34.3467 -24.4766 58.6943q-24.4785 24.3466 -59.0089 24.3466zM956.133 1004.8
q28.4111 0 53.9814 -10.6514q25.5703 -10.6523 44.8027 -30.6514q19.6699 -19.5645 29.9414 -44.3477q10.2715 -24.7822 10.2715 -53.4766q0 -57.3906 -40.6494 -97.1729q-40.6504 -39.7822 -99.2227 -39.7822q-59.0078 0 -98.3477 39.1299
q-39.3389 39.1299 -39.3389 97.8252q0 58.2588 40.2139 98.6934q40.2129 40.4337 98.3478 40.4337zM956.133 948.719q-34.5312 0 -58.79 -24.1299q-24.2588 -24.1289 -24.2588 -58.9111q0 -34.7832 23.8223 -58.2607q23.8213 -23.4775 58.3516 -23.4775
q34.9688 0 59.6641 23.9121q24.6963 23.9131 24.6963 57.8262q0 34.3467 -24.4766 58.6943q-24.4785 24.3466 -59.0089 24.3466zM336.133 1004.8q28.4111 0 53.9814 -10.6514q25.5703 -10.6523 44.8027 -30.6514q19.6699 -19.5645 29.9414 -44.3477
q10.2715 -24.7822 10.2715 -53.4766q0 -57.3906 -40.6494 -97.1729q-40.6504 -39.7822 -99.2227 -39.7822q-59.0078 0 -98.3477 39.1299q-39.3389 39.1299 -39.3389 97.8252q0 58.2588 40.2139 98.6934q40.2129 40.4337 98.3478 40.4337zM336.133 948.719
q-34.5312 0 -58.79 -24.1299q-24.2588 -24.1289 -24.2588 -58.9111q0 -34.7832 23.8223 -58.2607q23.8213 -23.4775 58.3516 -23.4775q34.9688 0 59.6641 23.9121q24.6963 23.9131 24.6963 57.8262q0 34.3467 -24.4766 58.6943q-24.4785 24.3466 -59.0089 24.3466z
M336.133 1404.8q28.4111 0 53.9814 -10.6514q25.5703 -10.6523 44.8027 -30.6514q19.6699 -19.5645 29.9414 -44.3477q10.2715 -24.7822 10.2715 -53.4766q0 -57.3906 -40.6494 -97.1729q-40.6504 -39.7822 -99.2227 -39.7822q-59.0078 0 -98.3477 39.1299
q-39.3389 39.1299 -39.3389 97.8252q0 58.2588 40.2139 98.6934q40.2129 40.4337 98.3478 40.4337zM336.133 1348.72q-34.5312 0 -58.79 -24.1299q-24.2588 -24.1289 -24.2588 -58.9111q0 -34.7832 23.8223 -58.2607q23.8213 -23.4775 58.3516 -23.4775
q34.9688 0 59.6641 23.9121q24.6963 23.9131 24.6963 57.8262q0 34.3467 -24.4766 58.6943q-24.4785 24.3466 -59.0089 24.3466zM956.133 534.805q28.4111 0 53.9814 -10.6514q25.5703 -10.6523 44.8027 -30.6514q19.6699 -19.5645 29.9414 -44.3477
q10.2715 -24.7822 10.2715 -53.4766q0 -57.3906 -40.6494 -97.1729q-40.6504 -39.7822 -99.2227 -39.7822q-59.0078 0 -98.3477 39.1299q-39.3389 39.1299 -39.3389 97.8252q0 58.2588 40.2139 98.6934q40.2129 40.4337 98.3478 40.4337z" />
    <glyph glyph-name="uni2829" unicode="&#x2829;" 
d="M956.133 1404.8q28.4111 0 53.9814 -10.6514q25.5703 -10.6523 44.8027 -30.6514q19.6699 -19.5645 29.9414 -44.3477q10.2715 -24.7822 10.2715 -53.4766q0 -57.3906 -40.6494 -97.1729q-40.6504 -39.7822 -99.2227 -39.7822q-59.0078 0 -98.3477 39.1299
q-39.3389 39.1299 -39.3389 97.8252q0 58.2588 40.2139 98.6934q40.2129 40.4337 98.3478 40.4337zM336.133 1404.8q28.4111 0 53.9814 -10.6514q25.5703 -10.6523 44.8027 -30.6514q19.6699 -19.5645 29.9414 -44.3477q10.2715 -24.7822 10.2715 -53.4766
q0 -57.3906 -40.6494 -97.1729q-40.6504 -39.7822 -99.2227 -39.7822q-59.0078 0 -98.3477 39.1299q-39.3389 39.1299 -39.3389 97.8252q0 58.2588 40.2139 98.6934q40.2129 40.4337 98.3478 40.4337zM336.133 534.805q28.4111 0 53.9814 -10.6514
q25.5703 -10.6523 44.8027 -30.6514q19.6699 -19.5645 29.9414 -44.3477q10.2715 -24.7822 10.2715 -53.4766q0 -57.3906 -40.6494 -97.1729q-40.6504 -39.7822 -99.2227 -39.7822q-59.0078 0 -98.3477 39.1299q-39.3389 39.1299 -39.3389 97.8252
q0 58.2588 40.2139 98.6934q40.2129 40.4337 98.3478 40.4337zM336.133 478.719q-34.5312 0 -58.79 -24.1299q-24.2588 -24.1289 -24.2588 -58.9111q0 -34.7832 23.8223 -58.2607q23.8213 -23.4775 58.3516 -23.4775q34.9688 0 59.6641 23.9121
q24.6963 23.9131 24.6963 57.8262q0 34.3467 -24.4766 58.6943q-24.4785 24.3466 -59.0089 24.3466zM956.133 1004.8q28.4111 0 53.9814 -10.6514q25.5703 -10.6523 44.8027 -30.6514q19.6699 -19.5645 29.9414 -44.3477q10.2715 -24.7822 10.2715 -53.4766
q0 -57.3906 -40.6494 -97.1729q-40.6504 -39.7822 -99.2227 -39.7822q-59.0078 0 -98.3477 39.1299q-39.3389 39.1299 -39.3389 97.8252q0 58.2588 40.2139 98.6934q40.2129 40.4337 98.3478 40.4337zM956.133 948.719q-34.5312 0 -58.79 -24.1299
q-24.2588 -24.1289 -24.2588 -58.9111q0 -34.7832 23.8223 -58.2607q23.8213 -23.4775 58.3516 -23.4775q34.9688 0 59.6641 23.9121q24.6963 23.9131 24.6963 57.8262q0 34.3467 -24.4766 58.6943q-24.4785 24.3466 -59.0089 24.3466zM336.133 1004.8
q28.4111 0 53.9814 -10.6514q25.5703 -10.6523 44.8027 -30.6514q19.6699 -19.5645 29.9414 -44.3477q10.2715 -24.7822 10.2715 -53.4766q0 -57.3906 -40.6494 -97.1729q-40.6504 -39.7822 -99.2227 -39.7822q-59.0078 0 -98.3477 39.1299
q-39.3389 39.1299 -39.3389 97.8252q0 58.2588 40.2139 98.6934q40.2129 40.4337 98.3478 40.4337zM336.133 948.719q-34.5312 0 -58.79 -24.1299q-24.2588 -24.1289 -24.2588 -58.9111q0 -34.7832 23.8223 -58.2607q23.8213 -23.4775 58.3516 -23.4775
q34.9688 0 59.6641 23.9121q24.6963 23.9131 24.6963 57.8262q0 34.3467 -24.4766 58.6943q-24.4785 24.3466 -59.0089 24.3466zM956.133 534.805q28.4111 0 53.9814 -10.6514q25.5703 -10.6523 44.8027 -30.6514q19.6699 -19.5645 29.9414 -44.3477
q10.2715 -24.7822 10.2715 -53.4766q0 -57.3906 -40.6494 -97.1729q-40.6504 -39.7822 -99.2227 -39.7822q-59.0078 0 -98.3477 39.1299q-39.3389 39.1299 -39.3389 97.8252q0 58.2588 40.2139 98.6934q40.2129 40.4337 98.3478 40.4337z" />
    </font>
</defs>
</svg>
