<?xml version="1.0" standalone="no"?>
<!DOCTYPE svg PUBLIC "-//W3C//DTD SVG 1.1//EN" "http://www.w3.org/Graphics/SVG/1.1/DTD/svg11.dtd" >
<!--
2017-12-3: Created with FontForge (http://fontforge.org)
-->
<svg xmlns="http://www.w3.org/2000/svg" xmlns:xlink="http://www.w3.org/1999/xlink" version="1.1">
<metadata>
Created by FontForge 20170731 at Sun Dec 03 10:13:06 2017
 By caixnet
Chia OpenType Layout logic copyright (c) 2013-2017, Daway.Cai,guangxian (caixnet@outlook.com). This layout logic for Chia Font is open source software under the MIT License; see embedded license description for details.
</metadata>
<defs>
<font id="Chia" horiz-adv-x="1038" >
  <font-face 
    font-family="Chia"
    font-weight="400"
    font-stretch="normal"
    units-per-em="2048"
    panose-1="2 0 5 3 0 0 0 0 0 0"
    ascent="1638"
    descent="-410"
    x-height="925"
    cap-height="1503"
    bbox="-7 -365 1446 1522.11"
    underline-thickness="307"
    underline-position="-598"
    unicode-range="U+0020-007E"
  />
    <missing-glyph />
    <glyph glyph-name="exclam" unicode="!" horiz-adv-x="667" 
d="M371 1374c46 0 91 -3 91 -47l-17 -954c0 -31 -41 -32 -74 -32s-74 1 -74 32l-17 954c-6 45 44 47 91 47zM371 218c82 0 105 -31 105 -114s-23 -114 -105 -114s-105 31 -105 114c0 84 22 114 105 114z" />
    <glyph glyph-name="quotedbl" unicode="&#x22;" horiz-adv-x="821" 
d="M580 1397c32 0 91 -1 85 -32l-22 -463c0 -29 -32 -32 -63 -32s-63 2 -63 32l-23 463c0 32 52 32 86 32zM225 1397c42 0 86 -1 86 -32l-23 -463c0 -29 -32 -32 -63 -32s-63 3 -63 32l-23 463c0 31 51 32 86 32z" />
    <glyph glyph-name="numbersign" unicode="#" horiz-adv-x="1020" 
d="M949 950c26 0 34 -31 34 -64c0 -30 -6 -63 -34 -63h-131l-40 -332h116c27 0 34 -31 34 -64c0 -29 -6 -63 -34 -63h-133l-42 -342c-4 -18 -14 -26 -37 -26c-9 -2 -22 -2 -37 -2s-28 0 -38 2c-20 0 -40 7 -36 26l42 342h-278l-42 -342c-3 -17 -13 -26 -36 -26
c-9 -2 -22 -2 -37 -2c-16 0 -29 0 -39 2c-20 0 -40 7 -36 26l41 342h-116c-27 0 -34 30 -34 63c0 29 6 64 34 64h134l41 332h-121c-26 0 -34 31 -34 62c0 33 7 65 34 65h136l41 321c6 29 42 29 78 29c33 0 71 3 71 -28l-42 -322h278l39 321c6 29 42 29 79 29
c28 0 77 2 70 -28l-40 -322h115zM392 823l-40 -332h277l42 332h-279z" />
    <glyph glyph-name="dollar" unicode="$" 
d="M516 572l-321 -456l643 -3zM516 746l325 462l-646 -3zM513 -219c-28 0 -51 22 -51 49l-1 185l-362 2c-41 0 -64 45 -41 79l397 563l-397 567c-23 34 1 79 41 79l350 2l-2 165c0 27 23 50 49 50c27 2 51 -23 51 -49l2 -166l389 2c40 0 62 -46 41 -79l-402 -571l398 -568
c22 -36 -4 -79 -41 -79l-373 2l1 -182c0 -28 -22 -51 -49 -51z" />
    <glyph glyph-name="percent" unicode="%" horiz-adv-x="1464" 
d="M974 338v-187l157 1l2 186h-159zM874 388c0 26 25 50 50 50h259c26 0 50 -25 50 -51l-2 -284c0 -26 -24 -50 -49 -50l-257 -3c-27 0 -51 24 -51 50v288zM360 1139v-187l157 1l2 186h-159zM260 1189c0 26 25 50 50 50h259c26 0 50 -26 50 -51l-2 -284
c0 -26 -24 -50 -49 -50l-257 -3c-27 0 -51 25 -51 50v288zM1198 1333c27 0 66 -4 58 -31c0 -7 -4 -14 -9 -21l-901 -1289c-8 -16 -29 -26 -53 -26c-9 -2 -21 -2 -34 -2c-30 0 -59 3 -59 30c2 7 5 14 10 22l900 1289c11 19 28 22 54 27c8 0 20 1 34 1z" />
    <glyph glyph-name="ampersand" unicode="&#x26;" horiz-adv-x="1397" 
d="M1001 479l62 145c22 53 117 25 92 -40l-84 -197l235 -310c39 -53 -43 -111 -80 -60l-200 264l-110 -257c-7 -15 -25 -30 -46 -30h-658c-34 0 -64 38 -44 73l418 795l-299 395c-26 32 1 80 40 80h540c37 0 61 -39 44 -73l-207 -393zM956 373l-303 401l-358 -680h542z
M638 959l146 278h-356z" />
    <glyph glyph-name="quotesingle" unicode="'" horiz-adv-x="452" 
d="M139 1365c0 31 53 32 87 32c16 0 30 -1 40 -1c21 -3 51 -8 46 -31l-22 -463c0 -29 -33 -32 -64 -32s-64 3 -64 32z" />
    <glyph glyph-name="parenleft" unicode="(" horiz-adv-x="621" 
d="M495 1378c-112 -239 -188 -513 -188 -838s78 -600 186 -840c3 -8 5 -15 5 -20c4 -24 -39 -25 -67 -25c-34 0 -65 1 -78 21c-125 237 -220 507 -220 861c0 352 103 623 221 863c4 13 24 14 40 18c9 0 21 1 36 1c33 0 83 -5 65 -41z" />
    <glyph glyph-name="parenright" unicode=")" horiz-adv-x="621" 
d="M487 537c0 -353 -94 -625 -219 -861c-13 -19 -45 -21 -78 -21c-30 0 -68 -1 -68 25c1 5 3 12 6 20c109 240 186 514 186 840c0 324 -76 600 -188 838c-17 35 29 41 65 41c14 0 26 -1 35 -1c16 -4 37 -5 41 -18c122 -243 220 -524 220 -863z" />
    <glyph glyph-name="asterisk" unicode="*" horiz-adv-x="1020" 
d="M841 935c43 -19 -33 -119 -49 -129c-9 -6 -18 -6 -26 0l-213 155l28 -262c6 -29 -36 -31 -75 -31s-81 2 -75 31l28 262l-212 -155c-28 -21 -50 22 -65 49c-15 26 -23 45 -24 57c0 11 5 19 14 23l241 107l-241 106c-9 5 -14 13 -14 24c2 24 46 95 62 105c10 6 19 6 27 0
l212 -154l-28 261c-6 30 35 32 75 32s81 -2 75 -32l-28 -261l213 154c27 20 49 -22 64 -49c18 -31 39 -64 11 -80l-241 -106z" />
    <glyph glyph-name="plus" unicode="+" horiz-adv-x="1020" 
d="M913 647c31 0 37 -38 37 -71c0 -34 -7 -72 -38 -72h-328v-364c0 -30 -41 -32 -74 -32c-32 0 -74 2 -74 32v364h-328c-32 0 -38 38 -38 72c0 32 7 71 37 71h329v364c0 32 40 35 74 35s74 -3 74 -35v-364h329z" />
    <glyph glyph-name="comma" unicode="," horiz-adv-x="511" 
d="M276 224c67 0 95 -14 95 -81c0 -92 -24 -144 -60 -199l-137 -206c-8 -13 -28 -26 -50 -26c-8 -2 -18 -2 -31 -2c-11 0 -21 0 -29 2c-13 0 -20 5 -22 14c0 4 1 9 4 14l133 275v128c0 68 30 81 97 81z" />
    <glyph glyph-name="hyphen" unicode="-" horiz-adv-x="627" 
d="M523 573c31 0 35 -35 35 -68c0 -38 -5 -69 -35 -69h-418c-31 0 -36 31 -36 69s5 68 36 68h418z" />
    <glyph glyph-name="period" unicode="." horiz-adv-x="517" 
d="M260 224c85 0 106 -27 106 -115c0 -90 -21 -118 -109 -118c-85 0 -106 27 -106 115c0 91 22 118 109 118z" />
    <glyph glyph-name="slash" unicode="/" horiz-adv-x="791" 
d="M168 -241c-12 -35 -40 -40 -87 -40c-44 0 -94 7 -74 52l605 1659c8 24 22 38 51 38c10 2 22 2 36 2c44 0 89 -6 74 -52z" />
    <glyph glyph-name="zero" unicode="0" 
d="M284 365l423 805h-423v-805zM138 1242c0 37 34 72 72 72h619c17 0 31 -6 44 -17h1c17 -15 26 -33 26 -55v-1172c0 -35 -36 -72 -72 -72h-618c-35 0 -72 36 -72 72v1172zM755 951l-425 -807h425v807z" />
    <glyph glyph-name="one" unicode="1" horiz-adv-x="929" 
d="M187 98l429 1166c11 32 51 61 96 45c31 -11 61 -50 44 -96l-429 -1167c-33 -89 -175 -44 -140 52z" />
    <glyph glyph-name="two" unicode="2" 
d="M211 0c-38 0 -72 33 -72 72s34 72 72 72h496l-560 1064c-25 52 11 106 64 106h616c38 0 72 -33 72 -72s-34 -72 -72 -72h-497l560 -1064c13 -30 6 -63 -11 -83c-12 -12 -30 -23 -53 -23h-615z" />
    <glyph glyph-name="three" unicode="3" 
d="M827 143c40 0 72 -32 72 -72c0 -38 -33 -73 -72 -71l-616 4c-39 0 -71 33 -71 72v1168c0 38 35 74 72 72l615 -2c40 0 72 -33 72 -72c0 -40 -33 -72 -72 -72l-543 2v-1025z" />
    <glyph glyph-name="four" unicode="4" 
d="M827 -0h-615c-50 0 -93 53 -64 105l615 1170c15 29 57 52 97 31c29 -14 52 -57 31 -97l-560 -1065h496v-144z" />
    <glyph glyph-name="five" unicode="5" 
d="M211 -1c-51 0 -90 53 -64 105l616 1171c17 38 76 54 112 20c16 -15 23 -32 23 -53l1 -1171c2 -36 -34 -72 -71 -72h-617zM330 143h425v808z" />
    <glyph glyph-name="six" unicode="6" horiz-adv-x="1139" 
d="M705 145c-141 267 -281 535 -421 803v-804zM140 1240c0 72 105 100 135 33l477 -908l2 878c0 40 32 72 72 72c38 0 73 -34 71 -72l-1 -1099v-70c0 -41 -30 -72 -72 -72l-612 -2c-38 -2 -72 35 -72 72v1168z" />
    <glyph glyph-name="seven" unicode="7" 
d="M284 71c0 -39 -34 -72 -72 -72c-40 0 -72 32 -72 72v1173c0 37 35 73 72 71l615 -1c40 0 72 -33 72 -72c0 -40 -33 -72 -72 -72l-543 1v-1100z" />
    <glyph glyph-name="eight" unicode="8" 
d="M437 656l-153 292v-583zM140 1240c0 72 105 100 135 33l244 -463l244 465c14 29 57 52 97 31c29 -15 52 -57 31 -97l-290 -552l289 -551c28 -55 -19 -123 -85 -102c-19 6 -33 17 -42 35l-244 464l-244 -463c-23 -48 -101 -52 -126 -1c-6 11 -9 22 -9 34v1167z" />
    <glyph glyph-name="nine" unicode="9" 
d="M707 1170h-423v-805zM138 1256c13 26 34 58 73 58h600c4 1 8 2 11 2c42 2 78 -32 78 -72v-1173c0 -36 -34 -72 -72 -72h-2c-35 0 -72 35 -72 72v877l-480 -913c-18 -37 -76 -53 -112 -19c-16 15 -24 32 -24 53v1187z" />
    <glyph glyph-name="colon" unicode=":" horiz-adv-x="548" 
d="M292 917c84 0 105 -32 105 -117c0 -82 -23 -114 -105 -114c-55 0 -94 13 -100 60c-4 15 -5 33 -5 54c0 85 20 117 105 117zM292 -9c-84 0 -105 32 -105 115c0 82 22 116 105 116c54 0 93 -13 100 -60c4 -16 5 -34 5 -56c0 -83 -22 -115 -105 -115z" />
    <glyph glyph-name="semicolon" unicode=";" horiz-adv-x="548" 
d="M292 917c84 0 105 -32 105 -117c0 -82 -23 -114 -105 -114c-55 0 -94 13 -100 60c-4 15 -5 33 -5 54c0 85 20 117 105 117zM303 224c66 0 94 -14 94 -81c0 -92 -23 -143 -59 -199l-136 -204c-14 -23 -42 -29 -79 -29c-11 0 -21 1 -29 1c-12 4 -19 5 -22 16c0 3 1 8 4 14
l131 273v128c0 67 30 81 96 81z" />
    <glyph glyph-name="less" unicode="&#x3c;" horiz-adv-x="1020" 
d="M919 162c0 -25 1 -73 -21 -68c-6 1 -12 3 -19 7l-788 398c-19 8 -22 45 -22 79c0 11 1 21 1 30c4 18 8 43 24 47l785 396c40 19 40 -17 40 -60c0 -19 -1 -35 -1 -46c-6 -32 -10 -43 -34 -55l-644 -315l640 -310c26 -15 32 -21 38 -57c0 -11 1 -27 1 -46z" />
    <glyph glyph-name="equal" unicode="=" horiz-adv-x="1020" 
d="M887 841c31 0 38 -33 38 -70c0 -39 -9 -71 -38 -71h-756c-29 0 -37 33 -37 71c0 36 7 70 37 70h756zM887 453c31 0 38 -33 38 -71c0 -39 -8 -70 -38 -70h-756c-29 0 -37 32 -37 70c0 37 7 71 37 71h756z" />
    <glyph glyph-name="greater" unicode="&#x3e;" horiz-adv-x="1020" 
d="M122 94c-22 0 -21 41 -21 66c0 52 -3 84 34 100l645 317l-641 309c-38 17 -38 46 -38 103c0 40 -1 83 40 60l788 -397c19 -8 23 -45 23 -78c0 -34 -4 -67 -26 -78l-785 -396c-7 -3 -14 -5 -19 -6z" />
    <glyph glyph-name="question" unicode="?" horiz-adv-x="949" 
d="M818 1337c30 0 56 -28 56 -57v-897c0 -46 -61 -68 -89 -31l-234 291l-145 -290c-17 -37 -79 -36 -92 6c-5 14 -4 26 2 38l166 332l-423 527c-27 35 1 81 39 81h720zM615 741l159 -216v563zM532 827c68 137 137 273 205 410h-535zM481 104c0 -82 -22 -114 -105 -114
c-55 0 -94 13 -100 60c-4 14 -5 32 -5 54c0 56 8 98 53 108c14 4 31 6 52 6c53 0 93 -12 100 -58c4 -16 5 -34 5 -56z" />
    <glyph glyph-name="at" unicode="@" horiz-adv-x="1831" 
d="M735 865v-539l499 -2zM675 201c-31 0 -59 29 -59 63v755c0 35 26 60 58 62c18 0 33 -6 44 -19l627 -679l1 818h-1006v-1201h675c26 0 50 -24 50 -50s-24 -50 -50 -50h-725c-26 0 -50 24 -50 50v1301c0 25 25 50 50 50h1106c25 0 50 -24 50 -50l-1 -1002
c0 -24 -29 -56 -50 -50c-3 1 -6 1 -9 1c-6 -1 -10 -1 -11 -1z" />
    <glyph glyph-name="A" unicode="A" horiz-adv-x="1175" 
d="M257 -7c-38 0 -75 35 -75 75l3 1083c0 73 96 99 136 43l759 -1085c38 -53 -8 -118 -61 -118zM334 914l-2 -771l543 -2zM224 1386v48l-23 -24zM149 1358h47l-24 23zM196 1462h-47l23 -24zM244 1503c12 0 20 -11 20 -20v-145c0 -13 -7 -20 -20 -20h-143c-13 0 -20 7 -20 20
v143c0 13 6 20 21 20zM121 1387l23 23l-23 23v-46z" />
    <glyph glyph-name="B" unicode="B" horiz-adv-x="1269" 
d="M1018 1226c58 0 97 -70 61 -119l-350 -494l351 -497c38 -49 -4 -118 -61 -118l-762 4h-5c-39 2 -70 36 -70 75l-1 1074c0 40 36 75 75 75h762zM637 483l-235 -332l471 -2zM401 1076l236 -333l236 333h-472zM545 613l-214 302l1 -603zM225 1386v48l-23 -24zM150 1358h47
l-24 23zM197 1462h-47l23 -24zM245 1503c12 0 20 -11 20 -20v-145c0 -13 -7 -20 -20 -20h-143c-13 0 -20 7 -20 20v143c0 13 6 20 21 20zM122 1387l23 23l-23 23v-46z" />
    <glyph glyph-name="C" unicode="C" horiz-adv-x="1194" 
d="M258 1076c-41 0 -75 34 -75 75c0 40 36 75 75 75h678c39 0 75 -37 75 -76l-3 -1073c0 -40 -36 -75 -74 -75l-676 -6c-40 0 -76 34 -76 74c0 41 34 76 74 76l602 5l3 925h-603zM221 1386v48l-23 -24zM146 1358h47l-24 23zM193 1462h-47l23 -24zM241 1503
c12 0 20 -11 20 -20v-145c0 -13 -7 -20 -20 -20h-143c-13 0 -20 7 -20 20v143c0 13 6 20 21 20zM118 1387l23 23l-23 23v-46z" />
    <glyph glyph-name="D" unicode="D" horiz-adv-x="1271" 
d="M183 1151c0 39 35 75 75 75h764c58 0 99 -70 61 -119l-765 -1069c-43 -58 -136 -25 -136 44zM333 1076l-1 -760l544 760h-543zM226 1386v48l-23 -24zM151 1358h47l-24 23zM198 1462h-47l23 -24zM246 1503c12 0 20 -11 20 -20v-145c0 -13 -7 -20 -20 -20h-143
c-13 0 -20 7 -20 20v143c0 13 6 20 21 20zM123 1387l23 23l-23 23v-46z" />
    <glyph glyph-name="E" unicode="E" horiz-adv-x="1268" 
d="M257 -8c-57 0 -97 69 -61 118l675 966h-614c-41 0 -75 34 -75 75c0 40 36 75 75 75h758c43 0 73 -35 75 -74v-31l4 -1050c0 -41 -34 -75 -75 -75zM941 914l-539 -771l542 3zM228 1386v48l-23 -24zM153 1358h47l-24 23zM200 1462h-47l23 -24zM248 1503c12 0 20 -11 20 -20
v-145c0 -13 -7 -20 -20 -20h-143c-13 0 -20 7 -20 20v143c0 13 6 20 21 20zM125 1387l23 23l-23 23v-46z" />
    <glyph glyph-name="F" unicode="F" horiz-adv-x="1270" 
d="M127 1387l23 23l-23 23v-46zM250 1503c12 0 20 -11 20 -20v-145c0 -13 -7 -20 -20 -20h-143c-13 0 -20 7 -20 20v143c0 13 6 20 21 20zM202 1462h-47l23 -24zM155 1358h47l-24 23zM230 1386v48l-23 -24zM402 147h542l-2 768zM255 1226c41 0 75 -35 75 -75l2 -843l624 886
c25 36 76 41 112 12c16 -15 24 -34 24 -55l2 -1079c0 -39 -36 -75 -75 -75h-762c-42 0 -73 34 -75 72v32l-2 1049c0 41 34 76 75 76z" />
    <glyph glyph-name="G" unicode="G" horiz-adv-x="1163" 
d="M254 1076c-41 0 -75 34 -75 75c0 40 36 75 75 75h674c40 0 75 -36 75 -75l5 -1078c0 -40 -34 -75 -75 -75c-40 0 -75 34 -75 75l-5 1003h-599zM230 1386v48l-23 -24zM155 1358h47l-24 23zM202 1462h-47l23 -24zM250 1503c12 0 20 -11 20 -20v-145c0 -13 -7 -20 -20 -20
h-143c-13 0 -20 7 -20 20v143c0 13 6 20 21 20zM127 1387l23 23l-23 23v-46z" />
    <glyph glyph-name="H" unicode="H" horiz-adv-x="1276" 
d="M229 1386v48l-23 -24zM154 1358h47l-24 23zM201 1462h-47l23 -24zM249 1503c12 0 20 -11 20 -20v-145c0 -13 -7 -20 -20 -20h-143c-13 0 -20 7 -20 20v143c0 13 7 20 21 20zM126 1387l23 23l-23 23v-46zM733 610l212 -300l3 604zM1094 75c0 -72 -95 -100 -136 -43
l-317 448l-323 -454c-24 -36 -78 -44 -112 -12c-16 15 -24 34 -24 55l2 1082c0 72 97 99 136 43l321 -454l322 454c40 60 136 24 136 -44zM549 610l-215 305l-2 -610z" />
    <glyph glyph-name="I" unicode="I" horiz-adv-x="1107" 
d="M192 1114c-49 88 84 156 130 73l604 -1076c32 -57 -18 -128 -85 -108c-20 5 -35 17 -45 35zM218 1386v48l-23 -24zM143 1358h47l-24 23zM190 1462h-47l23 -24zM238 1503c12 0 20 -11 20 -20v-145c0 -13 -7 -20 -20 -20h-143c-13 0 -20 7 -20 20v143c0 13 6 20 21 20z
M115 1387l23 23l-23 23v-46z" />
    <glyph glyph-name="J" unicode="J" horiz-adv-x="1110" 
d="M182 71c0 41 34 75 75 75l540 1l-606 964c-36 56 14 128 80 112c20 -4 36 -15 46 -32l679 -1079c34 -51 -7 -115 -63 -115l-676 -1c-41 0 -75 34 -75 75zM224 1386v48l-23 -24zM149 1358h47l-24 23zM196 1462h-47l23 -24zM244 1503c12 0 20 -11 20 -20v-145
c0 -13 -7 -20 -20 -20h-143c-13 0 -20 7 -20 20v143c0 13 6 20 21 20zM121 1387l23 23l-23 23v-46z" />
    <glyph glyph-name="K" unicode="K" horiz-adv-x="1064" 
d="M227 1386v48l-23 -24zM152 1358h47l-24 23zM199 1462h-47l23 -24zM247 1503c12 0 20 -11 20 -20v-145c0 -13 -7 -20 -20 -20h-143c-13 0 -20 7 -20 20v143c0 13 7 20 21 20zM124 1387l23 23l-23 23v-46zM255 1076c-41 0 -75 34 -75 75c0 40 36 75 75 75h682
c55 0 97 -67 63 -115l-680 -1077c-35 -54 -121 -39 -136 24c-5 20 -1 39 10 56l607 962h-546z" />
    <glyph glyph-name="L" unicode="L" horiz-adv-x="939" 
d="M220 1386v48l-23 -24zM145 1358h47l-24 23zM192 1462h-47l23 -24zM240 1503c12 0 20 -11 20 -20v-145c0 -13 -7 -20 -20 -20h-143c-13 0 -20 7 -20 20v143c0 13 7 20 21 20zM117 1387l23 23l-23 23v-46zM182 1152c0 41 34 75 75 75s75 -34 75 -75v-1003h454
c40 2 75 -34 75 -74c0 -43 -32 -75 -75 -75l-529 -1c-38 0 -75 35 -75 75v1078z" />
    <glyph glyph-name="M" unicode="M" horiz-adv-x="1350" 
d="M1104 1226c45 0 76 -38 75 -79v-3l1 -1068c0 -70 -92 -100 -134 -46l-365 463l-365 -463c-44 -57 -134 -20 -134 46l1 1006v69c0 40 34 75 75 75h846zM333 936l-1 -643l254 321zM777 614l253 -321l-1 642zM681 735l268 341h-536zM229 1386v48l-23 -24zM154 1358h47
l-24 23zM201 1462h-47l23 -24zM249 1503c12 0 20 -11 20 -20v-145c0 -13 -7 -20 -20 -20h-143c-13 0 -20 7 -20 20v143c0 13 6 20 21 20zM126 1387l23 23l-23 23v-46z" />
    <glyph glyph-name="N" unicode="N" horiz-adv-x="1322" 
d="M224 1386v48l-23 -24zM149 1358h47l-24 23zM196 1462h-47l23 -24zM244 1503c12 0 20 -11 20 -20v-145c0 -13 -7 -20 -20 -20h-143c-13 0 -20 7 -20 20v143c0 13 7 20 21 20zM121 1387l23 23l-23 23v-46zM179 1150c0 41 34 76 75 76s75 -35 75 -75l2 -847l626 890
c41 58 136 26 136 -43l1 -1079c0 -43 -32 -75 -75 -75c-41 0 -75 34 -75 75l-1 842l-625 -889c-41 -61 -136 -25 -136 43z" />
    <glyph glyph-name="O" unicode="O" horiz-adv-x="1274" 
d="M331 1076l1 -930l612 6l3 924h-616zM181 1151c0 39 37 75 75 75h766c39 0 75 -37 75 -76l-3 -1072c0 -41 -35 -75 -74 -75l-762 -8c-41 0 -76 37 -76 75zM233 1386v48l-23 -24zM158 1358h47l-24 23zM205 1462h-47l23 -24zM253 1503c12 0 20 -11 20 -20v-145
c0 -13 -7 -20 -20 -20h-143c-13 0 -20 7 -20 20v143c0 13 6 20 21 20zM130 1387l23 23l-23 23v-46z" />
    <glyph glyph-name="P" unicode="P" horiz-adv-x="1263" 
d="M257 7c-41 0 -75 34 -75 75v1056c-1 5 -1 9 -1 13c0 40 35 75 75 75h764c40 0 75 -37 75 -75l-1 -1079c0 -74 -97 -97 -136 -43l-626 883v-830c0 -41 -34 -75 -75 -75zM400 1076l544 -769l1 769h-545zM232 1386v48l-23 -24zM157 1358h47l-24 23zM204 1462h-47l23 -24z
M252 1503c12 0 20 -11 20 -20v-145c0 -13 -7 -20 -20 -20h-143c-13 0 -20 7 -20 20v143c0 13 6 20 21 20zM129 1387l23 23l-23 23v-46z" />
    <glyph glyph-name="Q" unicode="Q" horiz-adv-x="1267" 
d="M179 1150c0 41 34 76 75 76h855c62 0 97 -72 59 -122l-404 -510l402 -550c40 -54 -9 -127 -72 -118c-21 3 -37 13 -50 30l-377 516l-351 -444c-45 -52 -134 -21 -134 47l-3 1002v73zM330 933l1 -643l244 307zM672 719l282 357h-543zM232 1386v48l-23 -24zM157 1358h47
l-24 23zM204 1462h-47l23 -24zM252 1503c12 0 20 -11 20 -20v-145c0 -13 -7 -20 -20 -20h-143c-13 0 -20 7 -20 20v143c0 13 6 20 21 20zM129 1387l23 23l-23 23v-46z" />
    <glyph glyph-name="R" unicode="R" horiz-adv-x="1269" 
d="M181 1151c0 40 35 75 75 75h766c38 0 75 -36 75 -76l-3 -1059v-23c0 -39 -32 -75 -75 -75h-762c-39 0 -75 35 -75 75l-1 1004v79zM331 922l1 -779h537zM945 298l2 778h-540zM232 1386v48l-23 -24zM157 1358h47l-24 23zM204 1462h-47l23 -24zM252 1503c12 0 20 -11 20 -20
v-145c0 -13 -7 -20 -20 -20h-143c-13 0 -20 7 -20 20v143c0 13 6 20 21 20zM129 1387l23 23l-23 23v-46z" />
    <glyph glyph-name="S" unicode="S" horiz-adv-x="1268" 
d="M1022 1226c57 0 97 -70 61 -119l-353 -496l350 -498c38 -52 -8 -118 -62 -118l-762 6c-57 0 -97 69 -60 118l350 492l-348 494c-38 49 4 118 61 118zM638 741l238 334l-473 -2zM637 481l-235 -331l472 -4zM228 1386v48l-23 -24zM153 1358h47l-24 23zM200 1462h-47l23 -24
zM248 1503c12 0 20 -11 20 -20v-145c0 -13 -7 -20 -20 -20h-143c-13 0 -20 7 -20 20v143c0 13 6 20 21 20zM125 1387l23 23l-23 23v-46z" />
    <glyph glyph-name="T" unicode="T" horiz-adv-x="1267" 
d="M395 1076l481 -770l61 770h-542zM1018 1226c41 0 77 -41 75 -81l-85 -1077c-6 -68 -101 -94 -139 -34l-673 1077c-32 52 8 115 64 115h758zM229 1386v48l-23 -24zM154 1358h47l-24 23zM201 1462h-47l23 -24zM249 1503c12 0 20 -11 20 -20v-145c0 -13 -7 -20 -20 -20h-143
c-13 0 -20 7 -20 20v143c0 13 6 20 21 20zM126 1387l23 23l-23 23v-46z" />
    <glyph glyph-name="U" unicode="U" horiz-adv-x="1201" 
d="M183 1151c0 40 34 75 75 75c40 0 75 -35 75 -75l-1 -1003h526l-1 1003c0 40 35 75 75 75c39 0 75 -35 75 -75l1 -1078c0 -38 -35 -75 -75 -75h-676c-38 0 -75 35 -75 75zM222 1386v48l-23 -24zM147 1358h47l-24 23zM194 1462h-47l23 -24zM242 1503c12 0 20 -11 20 -20
v-145c0 -13 -7 -20 -20 -20h-143c-13 0 -20 7 -20 20v143c0 13 6 20 21 20zM119 1387l23 23l-23 23v-46z" />
    <glyph glyph-name="V" unicode="V" horiz-adv-x="1167" 
d="M187 1151c0 40 35 75 75 75c41 0 75 -35 75 -76l-4 -838l626 882c21 30 69 44 104 18c30 -21 44 -68 18 -105l-763 -1075c-22 -34 -78 -44 -112 -12c-16 15 -24 34 -24 55zM223 1386v48l-23 -24zM148 1358h47l-24 23zM195 1462h-47l23 -24zM243 1503c12 0 20 -11 20 -20
v-145c0 -13 -7 -20 -20 -20h-143c-13 0 -20 7 -20 20v143c0 13 6 20 21 20zM120 1387l23 23l-23 23v-46z" />
    <glyph glyph-name="W" unicode="W" horiz-adv-x="1267" 
d="M257 -5c-57 0 -97 69 -61 118l351 498l-350 496c-39 55 9 129 74 117c20 -3 36 -13 48 -30l320 -453l320 453c21 30 68 43 104 18c30 -21 44 -68 18 -105l-350 -496l349 -494c38 -49 -4 -118 -61 -118zM639 481l-237 -335l473 2zM223 1386v48l-23 -24zM148 1358h47
l-24 23zM195 1462h-47l23 -24zM243 1503c12 0 20 -11 20 -20v-145c0 -13 -7 -20 -20 -20h-143c-13 0 -20 7 -20 20v143c0 13 6 20 21 20zM120 1387l23 23l-23 23v-46z" />
    <glyph glyph-name="X" unicode="X" horiz-adv-x="1229" 
d="M636 482l-318 -453c-20 -31 -68 -44 -104 -18c-31 20 -43 68 -18 104l348 498l-348 494c-39 55 9 129 74 117c20 -3 37 -13 48 -30l318 -451l316 451c41 60 136 25 136 -43l6 -1082c0 -71 -97 -102 -136 -43zM728 613l215 -305l-4 607zM224 1386v48l-23 -24zM149 1358h47
l-24 23zM196 1462h-47l23 -24zM244 1503c12 0 20 -11 20 -20v-145c0 -13 -7 -20 -20 -20h-143c-13 0 -20 7 -20 20v143c0 13 6 20 21 20zM121 1387l23 23l-23 23v-46z" />
    <glyph glyph-name="Y" unicode="Y" horiz-adv-x="1268" 
d="M130 1387l23 23l-23 23v-46zM253 1503c12 0 20 -11 20 -20v-145c0 -13 -7 -20 -20 -20h-143c-13 0 -20 7 -20 20v143c0 13 6 20 21 20zM205 1462h-47l23 -24zM158 1358h47l-24 23zM233 1386v48l-23 -24zM192 1111c-54 83 74 160 126 80l559 -885l69 851
c6 61 90 94 132 42c14 -16 19 -34 18 -55l-88 -1074c-6 -68 -101 -94 -138 -34z" />
    <glyph glyph-name="Z" unicode="Z" horiz-adv-x="1271" 
d="M258 1076c-41 0 -75 34 -75 75c0 40 36 75 75 75h760c60 0 94 -69 61 -119l-677 -961l617 2c41 0 75 -34 75 -75s-34 -75 -75 -75l-762 -2c-59 0 -99 69 -61 118l677 962h-615zM126 1387l23 23l-23 23v-46zM249 1503c12 0 20 -11 20 -20v-145c0 -13 -7 -20 -20 -20h-143
c-13 0 -20 7 -20 20v143c0 13 6 20 21 20zM201 1462h-47l23 -24zM154 1358h47l-24 23zM229 1386v48l-23 -24z" />
    <glyph glyph-name="bracketleft" unicode="[" horiz-adv-x="628" 
d="M510 -199c26 0 29 -33 29 -61c0 -33 -4 -60 -29 -60h-256c-42 0 -63 27 -63 70v1579c0 42 21 70 63 70h256c26 0 29 -34 29 -62c0 -32 -4 -60 -29 -60h-163v-1476h163z" />
    <glyph glyph-name="backslash" unicode="\" horiz-adv-x="791" 
d="M11 1440c0 17 15 19 33 22c10 0 25 1 43 1c42 0 78 2 90 -27l606 -1659c4 -11 6 -20 6 -27c0 -26 -45 -24 -76 -24c-17 0 -31 0 -42 2c-27 0 -41 7 -48 26l-605 1659c-5 11 -7 20 -7 27z" />
    <glyph glyph-name="bracketright" unicode="]" horiz-adv-x="628" 
d="M374 1399c42 0 64 -28 64 -70v-1579c0 -43 -22 -70 -64 -70h-255c-25 0 -29 28 -29 60c0 11 0 21 2 28c0 18 9 33 27 33h163v1476h-163c-25 0 -29 30 -29 60c0 11 0 21 2 29c0 18 10 33 27 33h255z" />
    <glyph glyph-name="asciicircum" unicode="^" horiz-adv-x="1020" 
d="M138 568c-20 3 -32 8 -32 26c1 7 4 17 9 30l284 648c11 32 61 34 104 34c49 0 90 -2 106 -34l291 -648c7 -19 16 -37 2 -48c-5 -4 -14 -6 -26 -8c-11 0 -27 -1 -46 -1c-17 0 -32 1 -44 1c-30 5 -42 10 -54 30l-232 551l-3 -3l-219 -548c-9 -21 -26 -25 -52 -30
c-12 0 -26 -1 -43 -1c-19 0 -35 1 -45 1z" />
    <glyph glyph-name="underscore" unicode="_" horiz-adv-x="1020" 
d="M991 -232c28 0 33 -32 33 -66c0 -35 -4 -67 -33 -67h-963c-29 0 -35 30 -35 65s6 68 35 68h963z" />
    <glyph glyph-name="grave" unicode="`" horiz-adv-x="596" 
d="M455 1134c25 -34 -10 -43 -47 -43c-13 0 -24 1 -33 1c-26 6 -39 12 -53 31l-181 233c-31 38 28 46 67 46c54 0 81 -6 103 -37z" />
    <glyph glyph-name="a" unicode="a" horiz-adv-x="1018" 
d="M201 884c7 61 90 87 129 36l626 -801c21 -27 20 -67 -4 -93c-15 -16 -32 -23 -53 -24h-711c-38 0 -77 38 -71 80zM326 691l-58 -545h483z" />
    <glyph glyph-name="b" unicode="b" horiz-adv-x="1264" 
d="M256 -5c-40 -2 -75 34 -75 74c0 4 0 8 1 13v797c0 42 34 76 75 76h676c61 0 98 -75 58 -123l-276 -330l359 -381c45 -48 7 -126 -55 -126h-763zM429 805l182 -193l162 193h-344zM618 386l-201 -241h428zM515 496l-183 193v-412z" />
    <glyph glyph-name="c" unicode="c" horiz-adv-x="908" 
d="M201 809c-40 0 -72 33 -72 72c0 40 33 72 72 72l478 -1c39 0 72 -34 72 -72v-809c0 -37 -30 -72 -72 -72l-526 -1c-39 0 -72 32 -72 72c0 39 32 72 72 72l454 1v665z" />
    <glyph glyph-name="d" unicode="d" horiz-adv-x="1076" 
d="M148 880c0 38 33 72 72 72l739 1c63 0 93 -75 53 -121l-739 -809c-26 -28 -71 -31 -102 -4c-15 15 -23 32 -23 53v808zM292 808v-550l504 551z" />
    <glyph glyph-name="e" unicode="e" horiz-adv-x="1035" 
d="M142 0c-60 0 -91 70 -56 117l552 691l-444 -1c-39 0 -72 32 -72 72c0 39 32 72 72 72l592 1c39 0 72 -36 72 -72v-808c0 -38 -35 -72 -72 -72h-644zM714 673l-422 -529h422v529z" />
    <glyph glyph-name="f" unicode="f" horiz-adv-x="1183" 
d="M384 142h486v543zM224 950c38 0 72 -33 72 -72v-619l592 663c26 28 71 33 103 5c15 -15 23 -32 23 -53v-804c0 -37 -34 -72 -72 -72h-719c-39 0 -69 32 -71 68v812c0 40 32 72 72 72z" />
    <glyph glyph-name="g" unicode="g" horiz-adv-x="906" 
d="M116 808c-40 0 -72 32 -72 72c-2 38 33 72 71 72l534 2c39 0 73 -36 73 -72v-814c0 -39 -34 -72 -72 -72c-40 0 -72 32 -72 72v742z" />
    <glyph glyph-name="h" unicode="h" horiz-adv-x="1369" 
d="M1199 74c0 -60 -75 -94 -120 -53l-401 359l-400 -361c-26 -24 -69 -26 -97 0c-16 15 -23 32 -23 53v806c0 63 73 92 120 54l400 -359l401 362c47 44 120 4 120 -53v-808zM786 477l269 -241v484zM570 476l-268 241v-483z" />
    <glyph glyph-name="i" unicode="i" horiz-adv-x="680" 
d="M81 904c12 30 48 56 93 40c19 -8 32 -21 40 -39l340 -802c25 -57 -29 -119 -93 -95c-18 8 -32 21 -39 39l-341 802c-8 18 -8 36 0 55z" />
    <glyph glyph-name="j" unicode="j" horiz-adv-x="805" 
d="M75 74c0 39 32 72 72 72l400 1l-460 692c-35 54 12 123 74 110c20 -4 35 -14 46 -30l534 -803c34 -48 -5 -112 -59 -112l-534 -2c-40 0 -73 33 -73 72z" />
    <glyph glyph-name="k" unicode="k" horiz-adv-x="931" 
d="M204 808c-40 0 -72 32 -72 72c-2 38 33 72 71 72l536 1c57 0 91 -63 60 -112l-536 -807c-18 -28 -65 -44 -99 -20c-30 19 -45 64 -20 100l461 695z" />
    <glyph glyph-name="l" unicode="l" horiz-adv-x="865" 
d="M234 922c41 0 75 -34 75 -75l2 -696l365 -1c41 0 75 -34 74 -75c0 -41 -34 -75 -75 -75l-439 2c-37 0 -75 32 -75 75l-2 770c0 41 34 75 75 75z" />
    <glyph glyph-name="m" unicode="m" horiz-adv-x="1462" 
d="M163 880c0 39 34 72 72 72c4 0 8 0 12 -1l948 1c46 0 81 -27 81 -72v-810c0 -60 -72 -93 -118 -55l-437 368l-440 -366c-28 -23 -67 -23 -95 2c-15 15 -23 32 -23 53v808zM721 571l284 236h-565zM833 477l299 -252v501zM609 477l-302 254v-505z" />
    <glyph glyph-name="n" unicode="n" horiz-adv-x="1105" 
d="M168 880c0 39 34 72 72 72c40 0 72 -32 72 -72v-592l489 638c25 31 73 37 106 10c16 -15 23 -33 23 -54v-808c0 -40 -32 -72 -72 -72c-38 0 -72 33 -72 72v596l-488 -638c-42 -55 -130 -19 -130 44v804z" />
    <glyph glyph-name="o" unicode="o" horiz-adv-x="1080" 
d="M312 808v-664l462 1v663h-462zM168 880c0 38 35 72 72 72h606c38 0 72 -35 72 -72v-807c0 -41 -31 -72 -72 -72l-606 -1c-39 0 -72 36 -72 72v808z" />
    <glyph glyph-name="p" unicode="p" horiz-adv-x="1146" 
d="M240 1c-39 0 -72 34 -72 72v807c0 39 32 72 72 72h39l624 2c38 0 72 -36 72 -72l1 -809c0 -66 -86 -96 -128 -46l-536 651v-605c0 -38 -33 -72 -72 -72zM391 808l441 -534l-1 536z" />
    <glyph glyph-name="q" unicode="q" horiz-adv-x="1152" 
d="M230 -2c-39 2 -71 33 -71 72v805c0 40 33 73 72 73h40l736 5c62 3 96 -78 53 -121l-362 -378l365 -406c67 -67 -46 -165 -106 -96l-359 397l-315 -329c-14 -15 -32 -22 -53 -22zM381 805l220 -244l237 247zM502 457l-199 220v-428z" />
    <glyph glyph-name="r" unicode="r" horiz-adv-x="1223" 
d="M242 -1c-39 0 -72 35 -72 72v809c0 39 33 73 72 73h716c39 0 72 -35 72 -72v-806c0 -39 -32 -72 -72 -72zM400 809l486 -543v543h-486zM800 146l-486 544v-547z" />
    <glyph glyph-name="s" unicode="s" horiz-adv-x="1069" 
d="M895 953c62 0 94 -77 53 -121l-329 -356l329 -355c25 -27 23 -71 0 -98c-12 -12 -30 -23 -53 -23h-748c-62 0 -95 76 -53 121l329 355l-329 354c-44 47 -3 121 53 121zM521 582l209 227l-418 -2zM521 370l-209 -226h418z" />
    <glyph glyph-name="t" unicode="t" horiz-adv-x="1008" 
d="M247 805l387 -528l54 528h-441zM99 955h673c42 0 78 -41 74 -83l-83 -804c-6 -65 -95 -90 -135 -36l-589 804c-38 50 2 119 60 119z" />
    <glyph glyph-name="u" unicode="u" horiz-adv-x="1076" 
d="M183 880c0 39 34 72 72 72s72 -33 72 -72v-735l410 1v736c0 39 34 72 72 72s72 -33 72 -72v-808c0 -33 -12 -54 -35 -61c-24 -7 -36 -10 -37 -11l-554 -2c-36 0 -72 34 -72 72v808z" />
    <glyph glyph-name="v" unicode="v" horiz-adv-x="959" 
d="M76 875c-6 59 64 104 116 63c16 -13 25 -29 27 -49l65 -625l489 660c38 51 120 28 129 -32c3 -20 -1 -38 -13 -53l-599 -810c-22 -29 -67 -40 -101 -14c-17 12 -26 29 -29 50z" />
    <glyph glyph-name="w" unicode="w" horiz-adv-x="1207" 
d="M76 878c-2 41 29 72 69 74c20 0 37 -6 52 -20l412 -391l406 392c14 14 31 21 51 20c40 0 71 -33 71 -73c-1 -20 -8 -37 -22 -50l-401 -388l333 -315c15 -14 22 -32 22 -53c-2 -38 -32 -73 -72 -71l-765 1c-53 0 -86 55 -64 104c5 9 10 15 14 20l324 313l-408 387
c-15 13 -22 30 -22 50zM610 342l-200 -194l406 -1z" />
    <glyph glyph-name="x" unicode="x" horiz-adv-x="1262" 
d="M562 397l-368 -311c-71 -61 -163 49 -93 110l355 300l-358 328c-14 13 -22 30 -22 50c-3 63 74 99 120 56l370 -341l407 343c26 24 68 22 95 -2c15 -15 23 -32 23 -53v-802c0 -62 -76 -95 -121 -53zM673 491l274 -252v483z" />
    <glyph glyph-name="y" unicode="y" horiz-adv-x="1007" 
d="M36 841c-57 76 64 160 116 84l484 -669l97 634c9 59 91 83 129 32c12 -17 16 -34 13 -54l-123 -808c-7 -61 -93 -82 -129 -31z" />
    <glyph glyph-name="z" unicode="z" horiz-adv-x="809" 
d="M179 808c-40 0 -72 32 -72 72c-2 38 33 72 71 72l462 1c55 0 88 -58 63 -108l-401 -700l339 -1c38 0 73 -34 71 -72c0 -40 -32 -72 -72 -72l-462 2c-53 0 -90 57 -62 108l400 699z" />
    <glyph glyph-name="braceleft" unicode="{" horiz-adv-x="644" 
d="M544 -195c32 0 36 -28 36 -62c0 -29 -5 -60 -31 -60c-12 -3 -23 -4 -31 -5h-33c-202 0 -221 153 -221 362v206c0 137 -27 244 -146 258c-27 5 -32 29 -32 61c0 11 0 20 2 27c0 22 11 31 29 34c114 12 147 118 147 259v161c0 207 21 362 221 362c28 0 38 0 62 -5
c28 0 33 -30 33 -60c0 -32 -4 -62 -34 -62l-41 -1c-65 0 -77 -47 -85 -109c-3 -29 -5 -73 -5 -132v-146c0 -171 -37 -298 -177 -328c141 -27 177 -159 177 -328v-190c0 -91 -2 -145 21 -199c12 -28 30 -42 66 -42z" />
    <glyph glyph-name="bar" unicode="|" horiz-adv-x="943" 
d="M471 1434c34 0 78 0 78 -31v-1736c0 -32 -43 -32 -78 -32c-34 0 -77 0 -77 32v1736c0 31 44 31 77 31z" />
    <glyph glyph-name="braceright" unicode="}" horiz-adv-x="644" 
d="M582 627c28 0 31 -31 31 -60c0 -32 -2 -57 -30 -60c-91 -9 -128 -96 -140 -185c-5 -32 -7 -73 -7 -121v-161c0 -206 -21 -362 -221 -362c-29 0 -39 1 -65 5c-26 0 -33 32 -33 60c0 29 7 62 34 62l43 1c64 0 78 47 85 109c3 29 5 73 5 132v146c0 141 22 254 92 326
c22 24 51 40 85 47c-137 27 -177 117 -177 283v190c0 92 2 145 -20 199c-13 28 -31 42 -67 42l-40 1c-35 0 -40 26 -40 62c0 31 6 60 36 60c23 5 35 5 62 5c201 0 221 -155 221 -362v-206c0 -135 30 -198 146 -213z" />
    <glyph glyph-name="asciitilde" unicode="~" horiz-adv-x="1020" 
d="M896 1102c32 0 70 0 66 -32v-33c-4 -130 -67 -220 -163 -257c-31 -11 -62 -17 -94 -17c-149 0 -199 86 -267 166c-29 34 -62 69 -122 69c-92 0 -124 -81 -124 -174c0 -28 -33 -29 -66 -29c-31 0 -65 0 -65 30v27c0 170 89 281 257 281c147 0 200 -84 266 -164
c29 -35 62 -69 123 -69c94 0 124 80 124 175c0 26 34 27 65 27z" />
    <glyph glyph-name="space" unicode=" " horiz-adv-x="725" 
d="M310 511c-9 0 -15 7 -15 15v99c0 9 9 15 15 15h101c9 0 15 -9 15 -15v-99c0 -9 -7 -15 -15 -15h-101zM374 541l-13 13l-14 -13h27zM325 562l14 13l-14 14v-27zM396 562v27l-14 -14zM374 610h-27l14 -13z" />
  </font>
</defs>
</svg>
